<svg width="1000" height="1000" viewBox="0 0 1000 1000" fill="none" xmlns="http://www.w3.org/2000/svg">
<path fill-rule="evenodd" clip-rule="evenodd" d="M0 0H1000V1000H0V0ZM764.458 838.333C718.083 838.333 691.875 814.167 671.75 781.25L595.375 825.625C622.958 880.125 679.333 921.708 766.625 921.708C855.875 921.708 922.333 875.375 922.333 790.75C922.333 712.292 877.25 677.417 797.417 643.125L773.917 633.083C733.583 615.583 716.125 604.208 716.125 576C716.125 553.208 733.625 535.75 761.125 535.75C788.083 535.75 805.458 547.125 821.583 576L894.75 529.042C863.792 474.583 820.875 453.792 761.125 453.792C677.208 453.792 623.5 507.458 623.5 577.958C623.5 654.417 668.5 690.625 736.333 719.5L759.833 729.583C802.708 748.333 828.25 759.75 828.25 791.958C828.25 818.875 803.375 838.333 764.458 838.333V838.333ZM400.292 837.708C368 837.708 354.542 815.625 339.792 789.375L263.292 835.708C285.458 882.625 329.042 921.542 404.25 921.542C487.542 921.542 544.583 877.25 544.583 779.958V459.125H450.625V778.708C450.625 825.667 431.125 837.708 400.25 837.708H400.292Z" fill="black"/>
</svg>
