<svg width="1170" height="300" viewBox="0 0 1170 300" fill="none" xmlns="http://www.w3.org/2000/svg">
<path d="M402.494 226.245H371.622V149.285H350.592V124.229H371.622V106.399C371.622 85.2711 380.923 70.1182 411.711 70.1182C418.223 70.1182 428.447 71.4307 428.447 71.4307V94.6971H417.709C406.768 94.6971 402.496 98.0251 402.496 107.226V124.229H428.037L425.762 149.285H402.495L402.494 226.245ZM473.331 122.226C472.881 122.226 472.418 122.243 471.96 122.254C443.334 122.254 430.237 143.787 430.237 174.353C430.237 212.859 447.226 228.27 472.184 228.27C486.464 228.27 495.845 222.26 501.548 211.043V226.256H530.911V124.239H501.548V139.928C496.892 129.834 487.248 122.346 473.331 122.226V122.226ZM480.797 146.333C492.82 146.333 500.037 154.719 500.037 168.984L500.065 183.553C500.065 193.168 494.104 204.416 480.797 204.416C460.339 204.416 460.886 182.326 460.886 174.969C460.886 150.22 471.786 146.333 480.797 146.333V146.333ZM542.77 175.253C542.77 162.856 542.177 122.293 595.025 122.293C616.239 122.293 625.097 129.038 625.097 129.038L617.977 151.121C617.977 151.121 609.131 146.249 597.603 146.249C582.838 146.249 573.417 154.808 573.417 169.868L573.434 180.666C573.434 195.137 582.524 204.796 597.633 204.796C608.135 204.796 617.814 199.879 617.814 199.879L624.916 221.5C624.916 221.5 616.816 228.288 595.173 228.288C544.853 228.288 542.771 191.895 542.771 175.253H542.77ZM797.267 122.254C825.894 122.254 839.198 143.787 839.198 174.353C839.198 212.859 822.208 228.27 797.25 228.27C782.97 228.27 772.414 222.26 766.712 211.043V226.256L737.718 226.245V73.22L768.502 70.5352V138.546C772.945 126.647 787.547 122.254 797.268 122.254H797.267ZM788.637 146.333C776.613 146.333 768.502 154.719 768.502 168.984L768.474 183.553C768.456 193.168 774.091 204.416 788.637 204.416C809.094 204.416 808.548 182.326 808.548 174.969C808.548 150.22 797.649 146.333 788.637 146.333ZM678.51 122.339C646.042 122.339 628.9 140.041 628.9 171.501V177.346C628.9 218.177 652.972 228.689 681.671 228.689C709.565 228.689 722.191 220.887 722.191 220.887L716.431 200.11C716.431 200.11 701.579 206.429 685.361 206.429C668.549 206.429 661.319 202.144 659.466 185.988H724.653V169.319C724.653 135.193 705.415 122.338 678.51 122.338L678.51 122.339ZM679.293 143.144C690.532 143.144 697.815 150.036 697.415 166.02H659.522C660.179 149.197 668.033 143.145 679.293 143.145V143.144ZM900.581 122.199C867.238 122.199 849.684 140.988 849.684 174.661C849.684 220.861 879.942 228.298 900.636 228.298C930.931 228.298 951.085 211.988 951.085 175.08C951.085 136.666 928.424 122.199 900.581 122.199V122.199ZM900.161 146.416C914.823 146.416 920.632 157.389 920.632 169.879V180.618C920.632 195.749 912.503 204.5 900.105 204.5C888.511 204.5 880.362 196.314 880.362 180.618V169.879C880.362 153.139 890.058 146.416 900.161 146.416V146.416ZM1012.41 122.199C979.07 122.199 961.517 140.988 961.517 174.661C961.517 220.861 991.775 228.298 1012.47 228.298C1042.76 228.298 1062.92 211.988 1062.92 175.08C1062.92 136.666 1040.26 122.199 1012.41 122.199V122.199ZM1011.99 146.416C1026.66 146.416 1032.46 157.389 1032.46 169.879V180.618C1032.46 195.749 1024.33 204.5 1011.94 204.5C1000.34 204.5 992.195 196.314 992.195 180.618V169.879C992.195 153.139 1001.89 146.416 1011.99 146.416V146.416ZM1074.55 226.245V73.22L1105.43 70.536V173.103L1136.06 124.23H1168.66L1136.71 174.848L1169.89 226.245H1137.19L1105.43 176.339V226.245H1074.55Z" fill="#949494"/>
<path d="M300 150C300 67.1573 232.843 0 150 0C67.1572 0 0 67.1573 0 150C0 224.87 54.8528 286.925 126.563 298.178V193.36H88.4767V150H126.563V116.953C126.563 79.3594 148.956 58.5939 183.22 58.5939C199.631 58.5939 216.797 61.5235 216.797 61.5235V98.4376H197.882C179.249 98.4376 173.438 110 173.438 121.863V150H215.039L208.389 193.36H173.437V298.178C245.147 286.925 300 224.87 300 150" fill="#949494"/>
<path d="M208.389 193.359L215.039 150H173.437V121.862C173.437 110 179.248 98.4375 197.882 98.4375H216.797V61.5234C216.797 61.5234 199.631 58.5938 183.22 58.5938C148.956 58.5938 126.562 79.3593 126.562 116.953V150H88.4766V193.359H126.562V298.178C134.316 299.393 142.152 300.002 150 300C157.973 300 165.801 299.376 173.437 298.178V193.359H208.389Z" fill="white"/>
</svg>
