<svg xmlns="http://www.w3.org/2000/svg" width="1319" height="338" fill="none" xmlns:v="https://vecta.io/nano"><path d="M453.477 254.903h-34.783v-86.708H395v-28.23h23.694v-20.088c0-23.805 10.479-40.877 45.168-40.877 7.336 0 18.854 1.479 18.854 1.479v26.213h-12.098c-12.326 0-17.139 3.75-17.139 14.116v19.157h28.776l-2.563 28.23h-26.214l-.001 86.708zm79.809-117.194c-.507 0-1.028.018-1.544.031-32.252 0-47.009 24.26-47.009 58.698 0 43.383 19.141 60.746 47.261 60.746 16.088 0 26.658-6.771 33.083-19.408v17.139h33.083V139.977h-33.083v17.676c-5.246-11.373-16.111-19.81-31.791-19.944h0zm8.412 27.159c13.546 0 21.677 9.449 21.677 25.521l.031 16.415c0 10.832-6.715 23.505-21.708 23.505-23.049 0-22.433-24.888-22.433-33.177 0-27.884 12.28-32.264 22.433-32.264h0zm69.823 32.584c0-13.967-.669-59.669 58.873-59.669 23.902 0 33.882 7.6 33.882 7.6l-8.022 24.88s-9.967-5.489-22.955-5.489c-16.634 0-27.249 9.644-27.249 26.611l.019 12.166c0 16.303 10.241 27.186 27.265 27.186 11.832 0 22.737-5.54 22.737-5.54l8.001 24.36s-9.126 7.648-33.51 7.648c-56.694 0-59.04-41.003-59.04-59.753h-.001zm286.733-59.712c32.253 0 47.242 24.26 47.242 58.698 0 43.383-19.142 60.746-47.261 60.746-16.089 0-27.981-6.77-34.406-19.408v17.139l-32.667-.013V82.495l34.684-3.025v76.625c5.006-13.405 21.457-18.355 32.409-18.355h-.001zm-9.724 27.128c-13.546 0-22.684 9.449-22.684 25.521l-.032 16.415c-.021 10.832 6.328 23.505 22.716 23.505 23.05 0 22.434-24.888 22.434-33.177 0-27.884-12.28-32.264-22.434-32.264zm-124.075-27.033c-36.581 0-55.894 19.945-55.894 55.389v6.586c0 46.003 27.121 57.847 59.454 57.847 31.428 0 45.654-8.791 45.654-8.791l-6.49-23.409s-16.734 7.12-35.005 7.12c-18.942 0-27.088-4.828-29.176-23.031h73.444v-18.78c0-38.448-21.675-52.932-51.988-52.932l.001.001zm.882 23.441c12.662 0 20.868 7.765 20.417 25.773h-42.692c.74-18.954 9.589-25.772 22.275-25.772v-.001zm249.313-23.599c-37.562 0-57.339 21.17-57.339 59.108 0 52.052 34.091 60.431 57.409 60.431 34.13 0 56.84-18.376 56.84-59.959 0-43.28-25.54-59.58-56.91-59.58h0zm-.47 27.285c16.52 0 23.07 12.363 23.07 26.436v12.098c0 17.048-9.16 26.908-23.13 26.908-13.06 0-22.246-9.223-22.246-26.908v-12.098c0-18.861 10.926-26.436 22.306-26.436h0zm126.47-27.285c-37.56 0-57.34 21.17-57.34 59.108 0 52.052 34.09 60.431 57.41 60.431 34.13 0 56.83-18.376 56.83-59.959 0-43.28-25.53-59.58-56.9-59.58h0zm-.47 27.285c16.52 0 23.06 12.363 23.06 26.436v12.098c0 17.048-9.16 26.908-23.12 26.908-13.07 0-22.25-9.223-22.25-26.908v-12.098c0-18.861 10.93-26.436 22.31-26.436h0zm70.48 89.941V82.495l34.79-3.024V195.03l34.51-55.064h36.73l-36 57.03 37.39 57.907h-36.84l-35.79-56.228v56.228h-34.79zM338 169C338 75.664 262.336 0 169 0S0 75.664 0 169c0 84.353 61.801 154.269 142.594 166.947V217.852h-42.91V169h42.91v-37.233c0-42.355 25.23-65.751 63.834-65.751 18.49 0 37.83 3.301 37.83 3.301v41.59h-21.311c-20.994 0-27.541 13.028-27.541 26.393V169h46.871l-7.492 48.852h-39.379v118.095C276.199 323.269 338 253.353 338 169" fill="#1877f2"/><path d="M234.785 217.852L242.277 169h-46.871v-31.702c0-13.364 6.547-26.392 27.541-26.392h21.311v-41.59s-19.34-3.301-37.831-3.301c-38.603 0-63.833 23.396-63.833 65.751V169h-42.91v48.852h42.91v118.095c8.735 1.369 17.564 2.055 26.406 2.053 8.983 0 17.802-.703 26.406-2.053V217.852h39.379z" fill="#fff"/></svg>