<svg width="1319" height="338" viewBox="0 0 1319 338" fill="none" xmlns="http://www.w3.org/2000/svg">
<path d="M453.477 254.903H418.694V168.195H395V139.965H418.694V119.877C418.694 96.0723 429.173 79 463.862 79C471.198 79 482.716 80.4788 482.716 80.4788V106.692H470.618C458.292 106.692 453.479 110.442 453.479 120.808V139.965H482.255L479.692 168.195H453.478L453.477 254.903ZM533.286 137.709C532.779 137.709 532.258 137.727 531.742 137.74C499.49 137.74 484.733 162 484.733 196.438C484.733 239.821 503.874 257.184 531.994 257.184C548.082 257.184 558.652 250.413 565.077 237.776V254.915H598.16V139.977H565.077V157.653C559.831 146.28 548.966 137.843 533.286 137.709V137.709ZM541.698 164.868C555.244 164.868 563.375 174.317 563.375 190.389L563.406 206.804C563.406 217.636 556.691 230.309 541.698 230.309C518.649 230.309 519.265 205.421 519.265 197.132C519.265 169.248 531.545 164.868 541.698 164.868V164.868ZM611.521 197.452C611.521 183.485 610.852 137.783 670.394 137.783C694.296 137.783 704.276 145.383 704.276 145.383L696.254 170.263C696.254 170.263 686.287 164.774 673.299 164.774C656.665 164.774 646.05 174.418 646.05 191.385L646.069 203.551C646.069 219.854 656.31 230.737 673.334 230.737C685.166 230.737 696.071 225.197 696.071 225.197L704.072 249.557C704.072 249.557 694.946 257.205 670.562 257.205C613.868 257.205 611.522 216.202 611.522 197.452H611.521ZM898.254 137.74C930.507 137.74 945.496 162 945.496 196.438C945.496 239.821 926.354 257.184 898.235 257.184C882.146 257.184 870.254 250.414 863.829 237.776V254.915L831.162 254.902V82.4948L865.846 79.4698V156.095C870.852 142.69 887.303 137.74 898.255 137.74H898.254ZM888.53 164.868C874.984 164.868 865.846 174.317 865.846 190.389L865.814 206.804C865.793 217.636 872.142 230.309 888.53 230.309C911.58 230.309 910.964 205.421 910.964 197.132C910.964 169.248 898.684 164.868 888.53 164.868ZM764.455 137.835C727.874 137.835 708.561 157.78 708.561 193.224V199.81C708.561 245.813 735.682 257.657 768.015 257.657C799.443 257.657 813.669 248.866 813.669 248.866L807.179 225.457C807.179 225.457 790.445 232.577 772.174 232.577C753.232 232.577 745.086 227.749 742.998 209.546H816.442V190.766C816.442 152.318 794.767 137.834 764.454 137.834L764.455 137.835ZM765.337 161.276C777.999 161.276 786.205 169.041 785.754 187.049H743.062C743.802 168.095 752.651 161.277 765.337 161.277V161.276ZM1014.65 137.677C977.088 137.677 957.311 158.847 957.311 196.785C957.311 248.837 991.402 257.216 1014.72 257.216C1048.85 257.216 1071.56 238.84 1071.56 197.257C1071.56 153.977 1046.02 137.677 1014.65 137.677V137.677ZM1014.18 164.962C1030.7 164.962 1037.25 177.325 1037.25 191.398V203.496C1037.25 220.544 1028.09 230.404 1014.12 230.404C1001.06 230.404 991.874 221.181 991.874 203.496V191.398C991.874 172.537 1002.8 164.962 1014.18 164.962V164.962ZM1140.65 137.677C1103.09 137.677 1083.31 158.847 1083.31 196.785C1083.31 248.837 1117.4 257.216 1140.72 257.216C1174.85 257.216 1197.55 238.84 1197.55 197.257C1197.55 153.977 1172.02 137.677 1140.65 137.677V137.677ZM1140.18 164.962C1156.7 164.962 1163.24 177.325 1163.24 191.398V203.496C1163.24 220.544 1154.08 230.404 1140.12 230.404C1127.05 230.404 1117.87 221.181 1117.87 203.496V191.398C1117.87 172.537 1128.8 164.962 1140.18 164.962V164.962ZM1210.66 254.903V82.4948L1245.45 79.4708V195.03L1279.96 139.966H1316.69L1280.69 196.996L1318.08 254.903H1281.24L1245.45 198.675V254.903H1210.66Z" fill="#949494"/>
<path d="M338 169C338 75.6639 262.336 0 169 0C75.6638 0 0 75.6639 0 169C0 253.353 61.8008 323.269 142.594 335.947V217.852H99.6837V169H142.594V131.767C142.594 89.4116 167.824 66.0158 206.428 66.0158C224.918 66.0158 244.258 69.3165 244.258 69.3165V110.906H222.947C201.953 110.906 195.406 123.934 195.406 137.299V169H242.277L234.785 217.852H195.406V335.947C276.199 323.269 338 253.353 338 169" fill="#949494"/>
<path d="M234.785 217.852L242.277 169H195.406V137.298C195.406 123.934 201.953 110.906 222.947 110.906H244.258V69.3163C244.258 69.3163 224.918 66.0156 206.427 66.0156C167.824 66.0156 142.594 89.4114 142.594 131.767V169H99.6836V217.852H142.594V335.947C151.329 337.316 160.158 338.002 169 338C177.983 338 186.802 337.297 195.406 335.947V217.852H234.785Z" fill="white"/>
</svg>
