<svg xmlns="http://www.w3.org/2000/svg" xmlns:xlink="http://www.w3.org/1999/xlink" width="2100" height="240" preserveAspectRatio="xMidYMid meet" xmlns:v="https://vecta.io/nano"><style><![CDATA[.B{fill:#0a0a23}.C{fill-opacity:0}.D{stroke:#000}.E{stroke-opacity:0}]]></style><defs><path id="A" d="M354.16 55.58l4.37.51 4.15.78 3.93.96 3.72 1.16 3.52 1.41 3.26 1.58 3.08 1.83 2.83 2.05 2.67 2.21 2.43 2.45 2.21 2.63 1.99 2.88 1.78 3.1 1.58 3.25 1.36 3.53 1.14 3.65.96 3.95.74 4.08.51 4.37.31 4.51.11 4.77v1.16l-.04 1.09-.11 1.05-.31 2.01-.21.89-.26.89-.27.78-.74 1.47-.35.63-.49.62-.47.58-.52.47-.58.49-.57.36-.63.38-.69.24-.74.27-.73.22-.78.09-.85.11h-88.93v-.73h-.2v18.37l.04 2.46.27 2.4.36 2.28.58 2.14.69 2.05.89 1.94.98 1.79 1.23 1.71 1.29 1.59 1.54 1.51 1.67 1.36 1.79 1.27 1.98 1.16 2.16 1.05 2.26.94 2.47.85 2.61.66 2.79.65 2.94.47 3.08.36 3.25.31 3.42.15 3.56.07h1.32l1.32-.07h1.24l1.28-.04 1.2-.04 1.2-.12 1.21-.04 2.32-.22 1.09-.09 1.12-.18 2.09-.31.98-.16 1.05-.2 2.85-.62.94-.27.89-.23.85-.24.83-.31.84-.27.47-.16.47-.22.54-.16.51-.24.58-.22.58-.27.62-.31.63-.27 2.05-1.09.8-.43.71-.42 1.7-.94.82-.51.9-.54.89-.58 1.89-1.24 1.01-.65 1.05-.67 1.04-.74 1.25-1.16 1.27-1.04.58-.47.52-.43.58-.42.53-.42.94-.74.93-.62.43-.27.42-.2.38-.27.71-.31.34-.16.31-.11.25-.09.53-.11h.85l1.05.11.51.09.47.11.49.16.4.15.74.43.37.27.63.62.27.31.26.38.41.83.15.46.11.54.16.54.07.51.09.58v.62l.06.69-.06.63-.05.69-.11.67-.09.62-.65 2.05-.31.63-.31.69-.36.69-.42.67-.47.69-.49.63-1.05 1.36-1.25 1.36-1.36 1.38-1.58 1.36-.85.67-.82.73-1.47 1.05-1.52 1.05-1.58 1-1.63 1.01-1.67.89-1.79.89-1.83.78-1.89.78-1.94.74-2.05.69-2.1.62-2.16.58-2.19.58-2.27.47-4.71.85-2.47.31-2.52.31-2.57.2-2.67.23-2.68.11-2.74.09h-2.84l-4.86-.05-4.68-.26-4.46-.43-4.24-.62-4.05-.74-3.82-.93-3.57-1.12-3.41-1.29-3.14-1.43-2.95-1.63-2.74-1.78-2.56-1.99-2.26-2.12-2.09-2.29-1.9-2.52-1.62-2.63-1.41-2.84-1.27-2.98-.94-3.19-.78-3.33-.58-3.5-.31-3.72-.11-3.88V95.72l.11-1.38.09-1.25.16-1.32.22-1.31.2-1.25.31-1.27.31-1.21.43-1.25.42-1.2.47-1.2.53-1.16 1.14-2.32.69-1.14.69-1.12.74-1.09.78-1.05.85-1.04.89-1.05 1.87-2.01 1.01-1 1.36-1.3 2.94-2.43 1.56-1.09 1.63-1.05 1.69-1 1.79-.94 1.78-.89 1.88-.78 1.94-.8 2-.67 2.05-.65 2.14-.62 2.17-.52 2.25-.49 2.25-.4 2.37-.31 2.4-.33 2.41-.25 2.52-.16 2.59-.15 2.61-.07 2.67-.04 4.78.11 4.61.31zm-20.4 16.06l-4.04.66-3.94 1.01-3.82 1.25-3.63 1.54-3.5 1.78-3.22 2.52-2.72 2.61-2.31 2.83-1.83 2.94-1.32 3.1-.85 3.26-.24 3.41v9.66h81.84l-.89-9.81-2.52-8.34-4.24-6.83-6-5.31-7.65-3.83-9.45-2.25-11.11-.78-4.37.15-4.19.43z"/><path id="B" d="M2035.67 1.73c-1.17 1.15-2.33 2.82-2.33 4.5-.01 2.9 3.39 6.83 9.69 13.29 26.23 25.26 39.43 56.2 39.34 93.5-.1 41.28-13.98 74.43-40.96 100.12-5.67 5.08-8 9.06-8.01 12.47 0 1.68 1.15 3.42 2.31 5.09 1.09 1.17 3.41 2.33 5.08 2.33 6.24.02 14.98-7.36 26.38-21.72 22.21-27.22 32.25-57.28 32.81-98.24.52-40.99-12.32-68.78-37.48-97.48C2053.45 5.34 2045.91.01 2040.75 0c-1.67 0-3.41.57-5.08 1.73z"/><path id="C" d="M142.09 65.75c0-5.67 3.42-7.92 10.24-7.92h33.16c5.66 0 8.49 5.09 8.49 14.39 10.24-10.82 21.19-17.29 32.58-17.29 9.66 0 17.22 2.9 22.35 8.57 5.68 5.66 7.98 13.8 7.98 22.92 0 6.24-2.88 9.66-7.98 9.66-3.41 0-5.67-2.3-6.8-6.25-2.28-7.98-3.41-11.95-3.99-12.53-2.26-3.95-6.83-6.24-12.49-6.24-6.25 0-12.49 2.29-17.8 6.82-3.41 2.3-7.98 7.38-13.85 14.94v76.71h30.84c6.83 0 10.24 2.9 10.24 7.99 0 5.66-3.41 8.54-10.24 8.54h-73.29c-6.81 0-10.22-2.88-10.22-7.96 0-5.67 3.41-7.99 10.22-7.99h25.19v-.73h.21V73.73h-24.6c-6.82 0-10.24-2.83-10.24-7.98z"/><path id="D" d="M1956.6 120.44c-9.85-2.52 30.6-50.31-41.3-107.53 0 0 9.44 29.97-38.13 96.85-47.59 66.86 21.16 106.68 21.16 106.68s-32.26-17.19 5.24-78.4c6.72-11.11 15.5-21.17 26.41-43.8 0 0 9.65 13.62 4.61 43.17-7.54 44.65 32.69 31.87 33.32 32.49 14.05 16.55-11.64 45.63-13.2 46.54-1.56.89 73.36-45.07 20.13-114.24-3.65 3.65-8.38 20.76-18.24 18.24z"/><path id="E" d="M9.66 57.99h18.42v-16.1C28.08 13.86 42.46.01 70.47.01c11.39 0 21.25 2.3 28.58 6.29 9.66 5.66 15.01 14.96 15.01 25.78 0 7.33-2.87 10.21-7.96 10.21-3.41 0-6.82-2.3-8.56-6.29-2.25-7.34-4.51-11.33-5.67-13.22-3.41-3.99-10.23-6.25-20.09-6.25-17.21 0-25.71 8.5-25.71 25.76v15.54h33.12c7.38 0 10.79 2.83 10.79 7.92 0 5.66-3.41 7.98-10.79 7.98H46.07v104.72c0 6.25-2.88 9.66-7.98 9.66-5.67 0-7.96-3.41-7.96-9.66V73.91c-.03 0-19.46-.02-20.47-.02-6.25 0-9.66-2.83-9.66-7.92 0-5.73 3.41-7.98 9.66-7.98z"/><path id="F" d="M1818.81 1.76c1.16 1.15 2.32 2.82 2.32 4.5.01 2.9-3.39 6.83-9.69 13.29-26.23 25.26-39.42 56.2-39.34 93.5.1 41.28 13.98 74.43 40.96 100.12 5.67 5.08 8 9.06 8.01 12.47 0 1.68-1.15 3.42-2.31 5.09-1.09 1.17-3.4 2.33-5.08 2.33-6.24.02-14.98-7.36-26.38-21.72-22.21-27.22-32.25-57.28-32.81-98.24-.52-40.99 12.32-68.78 37.48-97.48 9.05-10.25 16.6-15.58 21.75-15.59 1.67 0 3.41.57 5.09 1.73z"/><path id="G" d="M497.93 55.58l4.37.51 4.15.78 3.92.96 3.73 1.16 3.52 1.41 3.25 1.58 3.08 1.83 2.83 2.05 2.68 2.21 2.43 2.45 2.21 2.63 1.98 2.88 1.79 3.1 1.58 3.25 1.36 3.53 1.14 3.65.96 3.95.73 4.08.52 4.37.31 4.51.11 4.77v1.16l-.05 1.09-.11 1.05-.31 2.01-.2.89-.27.89-.27.78-.73 1.47-.36.63-.49.62-.47.58-.51.47-.58.49-.58.36-.62.38-.69.24-.74.27-.74.22-.78.09-.84.11H446.3v-.73h-.2v18.37l.09 2.46.23 2.4.42 2.28.51 2.14.69 2.05.9 1.94.98 1.79 1.22 1.71 1.36 1.59 1.48 1.51 1.67 1.36 1.78 1.27 1.99 1.16 2.16 1.05 2.25.94 2.48.85 2.61.66 2.78.65 2.95.47 3.07.36 3.26.31 3.41.15 3.57.07h1.32l1.31-.07h1.25l1.27-.04 1.21-.04 1.2-.12 1.2-.04 2.32-.22 1.1-.09 1.11-.18 3.15-.47.98-.2.96-.22 1-.2.89-.2.94-.27.89-.23.85-.24.82-.31.85-.27.47-.16.47-.22.53-.16.51-.24.58-.22.58-.27.63-.31.62-.27 1.38-.71.74-.38.74-.43.78-.42.78-.47.84-.47.83-.51.89-.54.89-.58 1.9-1.24 1-.65 1.05-.67 1.05-.74 1.25-1.16 1.27-1.04.58-.47.51-.43.58-.42.54-.42.93-.74.94-.62.42-.27.43-.2.38-.27.71-.31.33-.16.32-.11.24-.09.54-.11h.84l1.05.11.52.09.46.11.49.16.41.15.73.43.38.27.62.62.27.31.27.38.4.83.16.46.11.54.16.54.06.51.09.58v.62l.07.69-.07.63-.04.69-.11.67-.09.62-.65 2.05-.31.63-.32.69-.35.69-.85 1.36-.53.63-1.05 1.36-1.25 1.36-1.36 1.38-1.58 1.36-.85.67-.83.73-1.47 1.05-1.52 1.05-1.58 1-1.63 1.01-1.67.89-1.78.89-1.83.78-1.9.78-1.94.74-2.05.69-2.09.62-2.17.58-2.18.58-2.28.47-4.7.85-2.48.31-2.52.31-2.56.2-2.63.23-5.47.2h-2.83l-4.86-.05-4.68-.26-4.46-.43-4.24-.62-4.06-.74-3.77-.93-3.61-1.12-3.41-1.29-3.15-1.43-2.94-1.63-2.74-1.78-2.52-1.99-2.3-2.12-2.1-2.29-1.89-2.52-1.63-2.63-1.4-2.84-1.21-2.98-1-3.19-.78-3.33-.58-3.5-.31-3.72-.12-3.88V95.72l.12-1.38.09-1.25.15-1.32.22-1.31.2-1.25.32-1.27.31-1.21.42-1.25.43-1.2.47-1.2.53-1.16 1.14-2.32.69-1.14.69-1.12.74-1.09.78-1.05.84-1.04.9-1.05 1.87-2.01 1-1 1.36-1.3 2.95-2.43 1.56-1.09 1.63-1.05 1.69-1 1.78-.94 1.79-.89 1.87-.78 1.94-.8 2.01-.67 2.05-.65 2.14-.62 2.16-.52 2.26-.49 2.25-.4 2.36-.31 2.41-.33 2.41-.25 2.52-.16 2.59-.15 2.6-.07 2.68-.04 4.77.11 4.62.31zm-20.41 16.06l-4.03.66-3.95 1.01-3.81 1.25-3.64 1.54-3.5 1.78-3.37 2.52-2.83 2.61-2.32 2.83-1.71 2.94-1.27 3.1-.74 3.26-.25 3.41v9.66h81.84l-.89-9.81-2.52-8.34-4.24-6.83-5.99-5.31-7.65-3.83-9.46-2.25-11.1-.78-4.37.15-4.2.43z"/><path id="H" d="M1587.89 54.31l.31.07.63.2.31.15.27.16.31.15.31.23.27.2.31.27.27.24.31.27.51.62.54.74.27.42.24.38.22.47.27.42.05.43.2.82.15.47.11.42.16.43.11.42.16.43.15.46.47 1.25.16.47.31.85.11.42.16.43.2.82.18.38.04.42.11.36 2.52-1.2 4.93-2.3 2.36-1.07 2.35-.98 2.27-.96 2.25-.89 2.21-.83 2.14-.73 2.1-.74 2.05-.62 1.98-.65 2.01-.51 3.77-.94 1.85-.38 1.72-.31 1.74-.27 1.67-.16 1.63-.15 1.63-.11h1.51l4.68.11 4.4.27 4.21.46 3.97.63 3.79.85 3.57 1 3.3 1.2 3.14 1.36 2.9 1.52 2.68 1.74 2.45 1.94 2.25 2.05 2.06 2.25 1.83 2.46 1.62 2.63 1.39 2.79 1.2 2.92.94 3.16.73 3.3.58 3.46.31 3.64.12 3.81v47.54l-.07 1.9-.09 1.78-.16 1.79-.22 1.71-.27 1.74-.35 1.63-.43 1.63-.47 1.58-.53 1.52-.56 1.47-.65 1.47-.73 1.41-.78 1.42-.85 1.36-.89 1.32-.94 1.25-1 1.27-1.09 1.2-1.16 1.21-1.16 1.16-1.25 1.09-1.32 1.09-1.2.96-1.21.83-1.31.84-1.32.78-1.36.74-1.36.69-1.47.67-1.47.58-1.52.58-3.14 1.05-3.37.85-1.67.35-1.79.34-1.78.24-3.68.43-1.89.15-1.94.11-1.94.05h-4.4l-2.43-.09-2.34-.18-2.32-.16-2.3-.24-2.27-.31-2.19-.38-4.41-.94-2.16-.58-2.1-.58-2.1-.69-2.05-.74-2.03-.82-2-.85-1.99-.93-1.94-1.01-1.94-1.05-1.89-1.09-1.9-1.16-1.83-1.27-1.83-1.32v54.84l-.06 1.05-.09 1-.11.89-.16.9-.22.84-.2.78-.27.78-.27.7-.36.69-.31.55-.42.58-.36.47-.49.49-.47.4-.51.38-.54.27-.58.25-.58.22-.62.11-.67.09h-1.38l-.63-.04-.62-.16-.58-.16-.58-.22-1.05-.62-.47-.36-.46-.42-.43-.54-.38-.51-.35-.58-.32-.63-.26-.69-.27-.78-.2-.78-.23-.85-.15-.93-.09-.96-.11-1.05-.05-1.05V65.64l.05-1.05.04-.94.11-.93.12-.9.15-.84.2-.78.23-.74.24-.74.54-1.27.31-.51.38-.53.35-.47.43-.36.47-.38.42-.31.51-.27 1.05-.31.58-.11h.96l.31.06.27.05zm44.96 17.42l-2.37.15-2.3.22-2.2.32-2.1.31-2.05.42-1.94.52-1.9.57-1.82.65-1.74.72-1.52.69-1.58.84-1.56.94-1.63 1.09-1.63 1.27-1.67 1.36-1.74 1.52-1.79 1.63-1.83 1.74-1.96 1.89-2.03 1.99v65.38h.58v-.22l4.71 2.79 4.57 2.52 4.42 2.32 4.23 1.98 4.11 1.74 3.99 1.4 3.81 1.21 3.63.96 3.51.67 3.36.38 3.21.15 2.77-.07 2.68-.08 2.58-.27 2.5-.31 2.43-.38 2.3-.52 2.2-.58 2.1-.73 2.01-.78 1.87-.96 1.74-.98 2.1-1.32 1.83-1.43 1.62-1.51 1.43-1.63 1.2-1.74 1.01-1.83.78-1.94.62-1.98.47-2.17.22-2.25.12-2.32V98.55l-.12-2.74-.26-2.57-.52-2.36-.69-2.25-.93-2.1-1.12-2-1.36-1.83-1.52-1.68-1.78-1.51-2.01-1.47-2.18-1.28-1.79-.89-1.89-.82-2.01-.69-2.09-.63-2.26-.58-2.36-.47-2.45-.38-2.59-.31-2.68-.2-2.76-.11-2.9-.04-2.57.04-2.51.05z"/><path id="I" d="M673.4 17.63c11.38 8.56 17.26 20.69 17.26 35.43 0 6.82-2.83 10.24-8.56 10.24-3.99 0-6.82-3.42-8.5-10.24-1.15-5.66-3.41-10.77-6.24-16.12-5.15-9.08-16.1-13.23-33.16-13.23-14.96 0-25.2 3.42-31.44 10.77-5.71 6.83-9.12 17.26-9.12 32.58v59.5c0 15.54 3.41 26.34 9.65 33.16 6.83 7.4 17.26 11.33 32.07 11.33 22.35 0 35.41-7.92 38.24-23.44l1.68-9.14c1.16-3.41 3.41-5.09 6.82-5.09 5.73 0 8.56 3.42 8.56 10.24 0 14.38-5.73 25.18-17.84 33.74-9.65 6.24-21.78 9.66-37.68 9.66-18.35 0-32.58-4-43.02-12.56-12.13-7.92-17.21-21.56-17.21-39.4V63.5c0-37.74 19.31-56.09 59.49-56.09 16.06 0 28.61 3.41 39 10.22z"/><path id="J" d="M1495.86 69.36c4.55-5.71 8.54-9.12 12.53-10.79 3.93-2.25 9.66-3.41 16.06-3.41 19.51 0 29.74 9.65 29.74 28.58v92.84c0 7.96-2.83 11.37-8.49 11.37-5.73 0-7.99-3.41-7.99-11.37V89.63c0-11.91-5.08-18.37-14.94-18.37-7.4 0-14.96 4.52-21.2 13.27v92.83c0 7.92-2.88 11.33-7.99 11.33-5.12 0-7.96-3.41-7.96-11.33V91.51c0-13.27-5.66-19.52-16.12-19.52-6.76 0-13.22 4.57-20.02 13.27v92.26c0 7.98-2.86 11.39-8.57 11.39-5.66 0-7.91-3.41-7.91-11.39V63.65c0-5.66 2.25-7.91 6.82-7.91 2.25 0 4.5 1.67 5.66 5.08 1.14 1.52 1.68 4.35 1.68 7.76 5.35-5.66 8.76-9.08 10.23-10.23 3.41-2.26 7.96-3.42 14.43-3.42 9.08 0 17.21 4.57 24.04 14.43z"/><path id="K" d="M788.05 55.47l6.02.85 5.66 1.13 5.15 1.54 4.77 1.83 4.31 2.21 3.83 2.52 3.42 2.87 2.92 3.15 2.52 3.57 2.05 3.83 1.58 4.19 1.16 4.58.67 4.81.22 5.2v47.03l-.22 5.2-.67 4.81-1.11 4.57-1.56 4.2-2.01 3.83-2.41 3.5-2.9 3.21-3.3 2.88-3.77 2.52-4.19 2.21-4.68 1.85-5.09 1.52-5.51 1.15-5.97.83-6.4.54-6.83.15-7.24-.07-6.78-.4-6.29-.8-5.78-1.09-5.28-1.47-4.84-1.83-4.35-2.17-3.88-2.52-3.41-2.87-2.99-3.21-2.47-3.57-2.06-3.88-1.56-4.24-1.11-4.64-.67-4.93-.22-5.28V97.75l.22-5.2.67-4.81 1.16-4.58 1.58-4.19 2.03-3.83 2.52-3.57 2.94-3.15 3.42-2.87 3.83-2.52 4.31-2.21 4.72-1.83 5.2-1.54 5.66-1.13 6.02-.85 6.52-.54 6.98-.15 6.97.15 6.52.54zm-26.76 16.17l-5.27.93-4.7 1.32-4.22 1.67-3.65 2.1-3.1 2.41-2.52 2.85-2.01 3.14-1.4 3.5-.9 3.95-.26 4.24v47.03l.26 4.24.9 3.88 1.4 3.56 2.05 3.17 2.59 2.77 3.14 2.4 3.73 2.01 4.3 1.67 4.88 1.21 5.45.89 6.04.42 6.56.05L781 171l5.89-.42 5.39-.78 4.78-1.2 4.25-1.59 3.68-1.98 3.15-2.37 2.56-2.78 2.01-3.19 1.4-3.57.9-3.99.26-4.35V97.75l-.26-4.24-.9-3.95-1.4-3.5-2.05-3.14-2.63-2.85-3.15-2.41-3.77-2.1-4.37-1.67-4.97-1.32-5.51-.93-6.15-.58-6.71-.16-6.29.16-5.82.58z"/><path id="L" d="M1352.56 53.73l1.94.11 1.83.16 1.78.11 1.74.2 1.72.15 1.7.27 1.62.2 1.56.34 1.52.24 1.47.38 1.47.31 1.36.36 1.43.42 1.32.43 1.25.42 1.27.47 1.2.54 1.21.46 1.15.58 1.1.52 1.05.58 1.04.62 1.16.85 1.1.89 1.04.89 1.01 1.01.96.98.93 1.11.89 1.09.85 1.16.78 1.21.74 1.25.67 1.27.69 1.31 1.16 2.84.51 1.47.47 1.47.42 1.56.38 1.58.31 1.63.27 1.67.2 1.74.2 1.79.12 1.78.11 1.83v61.01l.04.81v.78l.11 1.47.11 1.36.09.69.11.62.12.58.15.63.09.58.34 1.05.2.53.62 1.41.22.42.25.42.27.36.62.74.69.69.11.04.16.11.09.09.22.07.16.11.42.2.25.16.53.2.32.15.31.12 1.11.46 1.25.5.47.15.47.2.49.16.47.2.51.22.58.2.31.11.65.32.24.22.27.16.54.4.2.26.2.23.22.24.16.31.15.27.31.63.12.38.11.31.09.42.11.36.04.42.11.43.05.46v.47l.07.49v2.1l-.12.51-.04.43-.11.46-.11.43-.16.42-.16.36-.2.38-.22.31-.51.62-.27.27-.31.27-1.12.62-.82.32-.47.11-.53.09-1.05.11-.58.06h-1.05l-.2-.06h-.16l-.22-.05h-.2l-.22-.06-1.05-.2-.25-.12-.33-.04-.31-.11-.32-.05-1.09-.31-.42-.11-.36-.11-.42-.09-.47-.11-.43-.16-.46-.11-1.48-.51-.69-.27-.67-.2-.64-.27-1.25-.42-.58-.2-.58-.18-.51-.2-.49-.16-.52-.15-.42-.16-.47-.16-.42-.11-.36-.15-.38-.12-.62-.2-.78-.31-.23-.07-.15-.08-.16-.07-.36-.05-.33-.04-.36-.11-.31-.11-.31-.16-.27-.2-.31-.22-.27-.2-.27-.27-.24-.31-.27-.27-.22-.36-.2-.31-.27-.42-.2-.38-.16-.4-.22-.43-.2-.47-.31-.96-.63-2.09-.18-.58-2.29 1.58-2.21 1.47-1.05.74-1.98 1.25-.96.62-1.79 1.16-1.67 1.05-.78.47-.74.42-1.36.85-.69.36-.58.38-1.67.82-.47.22-.84.43-.43.09-.67.33-.69.2-1.47.51-2.36.65-.78.16-.85.2-.83.15-1.78.32-.89.11-.89.15-2.84.32-1 .06-1 .09-1.01.07-1.05.04-.98.05h-4.88l-1.63-.05-1.58-.04-3.15-.22-3.03-.32-1.47-.2-1.47-.26-2.83-.54-2.72-.62-1.32-.36-1.32-.42-1.27-.43-1.25-.47-2.4-.93-1.16-.58-1.16-.54-1.1-.58-1.11-.62-1.05-.63-1.05-.69-1.2-.82-1.16-.85-2.19-1.9-1-.93-.96-1.01-.94-1.04-.84-1.05-.83-1.09-.78-1.16-.69-1.16-.69-1.21-.63-1.2-.57-1.27-.52-1.25-.47-1.32-.84-2.72-.32-1.38-.26-1.41-.43-2.94-.2-3.03v-3.15l.09-1.54.11-1.56.23-1.47.51-2.94.73-2.83.47-1.36 1.05-2.64.65-1.31.62-1.25 1.47-2.41.78-1.16.85-1.11.89-1.1.99-1.04.95-1.01 1.05-.98 1.09-.96 2.32-1.78 1.25-.83 2.21-1.58 1.16-.74 2.41-1.36 2.52-1.27 1.31-.55 2.61-1.07 1.39-.47 2.83-.83 1.4-.38 1.47-.35 1.48-.32 1.47-.26 1.51-.27 1.52-.2 1.58-.16 1.52-.15 1.63-.12 1.58-.11 1.63-.04h2.99l1.36.04 1.4.05 2.83.22 1.43.16 1.47.15 1.48.2 1.51.27 1.47.22 1.52.32 1.52.24 1.58.34 3.14.73 4.89 1.25 1.63.47 1.71.47 1.7.53 1.71.51 1.74.58 1.79.58 1.78.63V95.5l-.04-1.16-.07-1.1-.09-1.09-.16-1.11-.22-.98-.2-1.07-.31-.99-.31-.95-.38-.94-.43-.89-.46-.9-1.05-1.67-.63-.85-.62-.73-.69-.78-1.47-1.36-.85-.69-1.79-1.25-.93-.58-1.01-.54-1.04-.51-1.1-.54-.73-.31-1.59-.62-3.34-1.05-2.68-.62-.96-.18-.89-.16-.98-.15-.96-.16-.93-.09-1.99-.22-1.05-.11-1-.05-1.05-.11-1.05-.05h-1.04l-1.05-.04h-4.73l-2.48.09-2.4.11-2.26.22-2.16.25-2.1.31-1.94.34-1.89.4-1.79.49-1.67.56-1.56.57-1.54.65-1.4.72-1.32.73-1.2.85-1.12.85-1.04.93-.94 1.01-.85 1.09-.78 1.11-.62 1.14-.63 1.27-.49 1.32-.4 1.36-.31 1.4-.11.69-.16.63-.22 1.16-.2 1.05-.2.93-.12.43-.06.42-.09.36-.07.38-.09.31-.06.31-.09.54-.12.42v.2l-.04.16v.15l-.07.11v.27l-.15.36-.32.62-.15.27-.43.54-.15.24-.27.22-.2.2-.27.23-.2.15-.27.16-.31.16-.27.15-.31.09-.27.11-.31.11-.35.12-.32.04-.38.11-.35.05h-.38l-.36.04h-1.47l-.62-.04-1.28-.2-.58-.12-1.56-.62-.49-.31-.46-.27-.43-.38-.4-.31-.74-.83-.31-.49-.53-.93-.27-.58-.16-.58-.2-.58-.15-.63-.12-.62-.04-.69-.07-.74v-1.72l.07-1.04.04-1.01.16-1 .11-.98.43-2.01.51-1.98.31-1.01.31-.93.38-1.01.43-.93.46-1.01.94-1.89 1.74-2.84.62-.89.7-.93 2.18-2.68.85-.89.94-1.12 2.2-1.98 1.21-.94 2.63-1.78 1.43-.8 1.45-.79 1.58-.73 1.58-.69 1.67-.63 1.79-.62 1.78-.54 1.9-.51 1.94-.47 1.98-.42 2.05-.38 2.1-.36 4.42-.53 2.29-.2 2.37-.16 2.4-.11 2.48-.05 2.52-.04h1.98l2.01.04 1.94.05zm-24.08 73.1l-6.83 2.41-5.3 3.45-3.84 4.42-2.3 5.39-.73 6.43.2 3.34.65 3.15 1.09 2.98 1.51 2.75 1.94 2.41 2.48 2.05 2.94 1.67 2.52 1.36 2.77 1.16 2.99.94 3.21.73 3.41.54 3.61.31 3.84.11 3.37-.11 3.23-.2 3.17-.42 3.07-.65 3.01-.78 2.99-1.09 2.92-1.32 2.01-1.16 2.21-1.47 2.45-1.63 2.63-1.83 2.83-2.05 2.95-2.21 3.1-2.34v-24.04l-5.36-1.63-5.35-1.36-5.3-1.16-5.2-.89-5.08-.69-4.93-.4-4.73-.11-9.81.47-8.34 1.47z"/><path id="M" d="M966.8.38l.62.2.58.31.54.31.51.38.47.43.85.93.38.58.31.63.31.69.27.67.4 1.58.31 1.79.11 1.98.07 1.05v168.38l-.07.79-.04.73-.07.69-.31 1.25-.16.58-.24.54-.22.51-.63.96-.73.73-.43.36-.42.27-.51.27-.47.24-.54.22-.58.16-1.25.2-.64.07h-1.14l-1.27-.16-.43-.11-.35-.16-.38-.11-.36-.2-.31-.15-.31-.23-.31-.26-.54-.52-.27-.31-.62-1.11-.16-.41-.15-.49-.12-.47-.15-.46-.05-.52v-.8l-.04-.42v-.36l-.07-.42v-.36l-.04-.42v-.43l-.07-.42-.04-.47-.05-.42v-.47l-.11-.94v-.53l-.04-.47-.07-.58v-1.09l-.05-.58v-1.28l-1.36.85-1.27.85-1.29.82-2.43 1.48-1.09.73-1.16.69-2.1 1.25-1 .58-.94.58-.94.52-2.52 1.42-.73.36-.74.42-1.36.63-1.16.53-.58.2-.85.34-.89.31-.89.25-1.87.53-3.01.62-1.05.23-2.1.31-2.2.31-1.1.11-2.29.2-1.16.05-1.21.07-1.16.04-1.2.04h-4.57l-2.1-.04-1.98-.11-2.01-.16-1.94-.15-1.94-.27-1.83-.25-3.68-.64-3.46-.83-1.73-.47-1.63-.49-1.63-.55-3.14-1.16-1.52-.7-1.47-.66-1.43-.74-1.4-.8-1.37-.78-1.38-.85-1.4-.98-2.72-2.21-1.23-1.16-1.2-1.2-1.14-1.27-1.07-1.3-.98-1.38-.96-1.36-1.67-2.92-.74-1.54-.62-1.56-.63-1.63-.53-1.63-.47-1.74-.36-1.78-.33-1.79-.25-1.82-.22-1.9-.09-1.94V95.24l.09-1.94.22-1.83.2-1.78.31-1.78.43-1.74.42-1.68.51-1.62.58-1.59.63-1.51.73-1.52.74-1.47.85-1.43.93-1.36.96-1.31 1.05-1.32 1.05-1.2 1.16-1.21 1.2-1.16 2.61-2.18 1.43-1.01 1.25-.84 1.27-.79 1.36-.78 1.43-.73 1.4-.69 1.47-.69 3.04-1.14 1.58-.58 3.26-.96 3.34-.83 1.74-.31 1.78-.31 1.79-.27 1.83-.26 3.68-.32 1.89-.11 1.94-.04h4.51l2.52.11 1.2.04 1.27.05 1.16.11 1.2.11 1.1.09 1.16.16 2.2.33 1.05.16 2.1.4 1 .22.94.2 2.83.8.85.32.89.31.82.31.9.31.84.38.9.36.89.42.93.43 1.79.93 2.83 1.59.96.55 2.83 1.9 1.99 1.36.96.74.98.73 1 .8 1.98 1.68V11.91l.07-1.05.09-1.98.34-1.79.15-.78.25-.8.22-.67.31-.69.31-.63.36-.58.38-.46.42-.47.43-.43.51-.38.47-.31.53-.31.58-.2 1.25-.31.63-.07h1.47l.69.07 1.36.31zm-56.98 71.94l-2.63.24-2.56.27-2.52.43-2.36.53-2.32.56-2.14.73-2.06.81-1.94.93-1.78 1.01-2.05 1.47-1.94 1.56-1.72 1.69-1.54 1.79-1.36 1.83-1.14 1.98-1 2.1-.73 2.21-.54 2.31-.36 2.37-.11 2.52v45.22l.11 2.61.32 2.48.46 2.36.74 2.25.89 2.1 1.12 2.01 1.36 1.87 1.56 1.74 1.74 1.63 1.98 1.4 2.21 1.38 1.94.9 2.01.82 2.09.74 2.21.73 2.25.63 2.41.53 2.48.47 2.61.38 2.67.25 2.79.15 2.88.07 4.61-.11 2.28-.16 2.18-.2 4.31-.65 2.05-.4 2-.53 1.94-.58 1.83-.63 1.74-.73 1.45-1.01 1.54-1.05 1.56-1.09 1.58-1.2 1.63-1.21 1.67-1.31 1.74-1.36 1.72-1.43 1.78-1.52 1.86-1.58 1.82-1.63V88.06L955 86.52l-2.09-1.4-2.01-1.43-1.98-1.31-1.9-1.21-1.78-1.09-1.74-1.05-1.63-.89-1.52-.78-1.4-.69-1.32-.54-1.89-.71-1.9-.65-1.94-.58-1.98-.51-1.99-.42-2.05-.32-2.1-.31-2.05-.22-2.16-.16-4.3-.09-2.72.05-2.73.11z"/><path id="N" d="M1247.51 17.63c11.39 8.56 17.26 20.69 17.26 35.43 0 6.82-2.83 10.24-8.54 10.24-3.95 0-6.78-3.42-8.5-10.24-1.16-5.66-3.41-10.77-6.24-16.12-5.15-9.08-16.13-13.23-33.16-13.23-14.97 0-25.2 3.42-31.45 10.77-5.66 6.83-9.07 17.26-9.07 32.58v59.5c0 15.54 3.41 26.34 9.65 33.16 6.83 7.4 17.22 11.33 32 11.33 22.37 0 35.44-7.92 38.27-23.44l1.72-9.14c1.11-3.41 3.41-5.09 6.78-5.09 5.71 0 8.54 3.42 8.54 10.24 0 14.38-5.67 25.18-17.78 33.74-9.72 6.24-21.83 9.66-37.73 9.66-18.37 0-32.58-4-42.97-12.56-11.59-7.92-17.26-21.56-17.26-39.4V63.5c0-37.74 19.51-56.09 59.5-56.09 16.1 0 28.59 3.41 38.98 10.22z"/><path id="O" d="M1072.05 55.58l4.35.51 4.15.78 3.95.96 3.72 1.16 3.5 1.41 3.33 1.58 3.03 1.83 2.87 2.05 2.64 2.21 2.4 2.45 2.21 2.63 2.05 2.88 1.79 3.1 1.58 3.25 1.36 3.53 1.14 3.65.96 3.95.73 4.08.52 4.37.31 4.51.11 4.77-.04 1.16-.07 1.09-.09 1.05-.11 1-.2 1.01-.23.89-.26.89-.25.78-.31.74-.38.73-.42.63-.47.62-.47.58-1.05.96-1.27.74-1.36.51-.78.22-.78.09-.85.11-89.14.01-.01 17.63.11 2.46.2 2.4.42 2.28.54 2.14.73 2.05.83 1.94 1.05 1.79 1.16 1.71 1.36 1.59 1.47 1.51 1.69 1.36 1.83 1.27 1.94 1.16 2.14 1.05 2.32.94 2.41.85 2.63.66 2.79.65 2.92.47 3.1.36 3.26.31 3.41.15 3.57.07h1.31l1.32-.07h1.25l2.52-.08 1.2-.12 1.16-.04 2.3-.22 1.11-.09 1.09-.18 3.15-.47 2.01-.42 1.89-.4.89-.27.9-.23.89-.24.82-.31 1.27-.43.47-.22.51-.16.54-.24.58-.22.58-.27.62-.31.63-.27 1.36-.71.73-.38.74-.43.78-.42.8-.47.83-.47.85-.51.89-.54.89-.58.94-.62 2-1.27 1.01-.67 1.05-.74.62-.58.67-.58.58-.51.64-.53.56-.47.58-.43 1.05-.84.49-.36.51-.38.47-.31.43-.31.42-.27.42-.2.36-.27.74-.31.31-.16.62-.2.27-.07.22-.04h.83l.58.04.53.07.94.2.47.16.42.15.43.23.35.2.31.27.65.62.25.31.26.38.43.83.15.46.16.54.22 1.05.05.58.04.62v1.32l-.09.69-.06.67-.16.62-.16.69-.2.7-.26.66-.32.63-.31.69-.38.69-.82 1.36-.49.63-.52.69-1.16 1.36-2.05 2.05-2.36 2.03-.89.73-2.92 2.1-1.59 1-1.67 1.01-1.67.89-1.79.89-1.85.78-1.89.78-1.94.74-2.03.69-2.1.62-2.16.58-2.21.58-2.25.47-2.3.43-2.43.42-2.45.31-2.52.31-2.59.2-2.61.23-5.46.2h-2.83l-4.89-.05-4.66-.26-4.46-.43-4.26-.62-3.99-.74-3.81-.93-3.64-1.12-3.34-1.29-3.21-1.43-2.95-1.63-2.72-1.78-2.52-1.99-2.29-2.12-2.12-2.29-1.83-2.52-1.67-2.63-1.43-2.84-1.2-2.98-1.01-3.19-.78-3.33-.51-3.5-.38-3.72-.11-3.88V97.01l.07-1.29.04-1.38.11-1.25.16-1.32.2-1.31.53-2.52.36-1.21.38-1.25.42-1.2.47-1.2.51-1.16 1.16-2.32.69-1.14.67-1.12.74-1.09.85-1.05.78-1.04.89-1.05 1.9-2.01 1.04-1 1.36-1.3 1.43-1.22 1.52-1.21 1.51-1.09 1.63-1.05 1.74-1 1.72-.94 1.85-.89 1.83-.78 1.94-.8 2-.67 4.2-1.27 2.14-.52 2.25-.49 2.27-.4 2.35-.31 2.43-.33 2.45-.25 2.47-.16 2.57-.15 2.63-.07 2.68-.04 4.81.11 4.57.31zm-20.36 16.06l-4.08.66-3.94 1.01-3.77 1.25-3.68 1.54-3.46 1.78-3.41 2.52-2.83 2.61-2.28 2.83-1.78 2.94-1.25 3.1-.73 3.26-.27 3.41v9.66h81.86l-.85-9.81-2.56-8.34-4.26-6.83-5.98-5.31-7.65-3.83-9.45-2.25-11.13-.78-4.3.15-4.2.43z"/></defs><use xlink:href="#A" class="B"/><use xlink:href="#A" class="C D E"/><use xlink:href="#B" class="B"/><use xlink:href="#B" class="C D E"/><use xlink:href="#C" class="B"/><use xlink:href="#C" class="C D E"/><use xlink:href="#D" class="B"/><use xlink:href="#D" class="C D E"/><use xlink:href="#E" class="B"/><use xlink:href="#E" class="C D E"/><use xlink:href="#F" class="B"/><use xlink:href="#F" class="C D E"/><use xlink:href="#G" class="B"/><use xlink:href="#G" class="C D E"/><use xlink:href="#H" class="B"/><use xlink:href="#H" class="C D E"/><use xlink:href="#I" class="B"/><use xlink:href="#I" class="C D E"/><use xlink:href="#J" class="B"/><use xlink:href="#J" class="C D E"/><use xlink:href="#K" class="B"/><use xlink:href="#K" class="C D E"/><use xlink:href="#L" class="B"/><use xlink:href="#L" class="C D E"/><use xlink:href="#M" class="B"/><use xlink:href="#M" class="C D E"/><use xlink:href="#N" class="B"/><use xlink:href="#N" class="C D E"/><use xlink:href="#O" class="B"/><use xlink:href="#O" class="C D E"/></svg>