<svg xmlns="http://www.w3.org/2000/svg" width="1076" height="374" fill="none" xmlns:v="https://vecta.io/nano"><path fill-rule="evenodd" d="M124.278 303.928c2.243 0 4.021-1.237 4.021-2.784 0-1.778-2.01-3.016-4.33-2.784-2.243 0-4.022 1.238-4.022 2.784 0 1.779 1.779 3.016 4.331 2.784zm-16.704-2.474c-2.32-.464-3.867-2.243-3.326-3.79s2.784-2.32 4.795-1.779c2.32.696 3.789 2.475 3.325 4.022s-2.784 2.32-4.794 1.547zm27.299-1.315c-.232-1.779 1.315-3.248 3.557-3.79 2.243-.232 4.331.774 4.563 2.243.232 1.547-1.314 3.016-3.557 3.558-2.32.541-4.331-.464-4.563-2.011zM0 188.699C0 81.434 82.053 0 189.317 0s194.267 81.434 194.267 188.699c0 85.765-52.434 159.156-129.769 184.831-9.822 1.779-13.379-4.331-13.379-9.357l.059-13.609.173-51.044c0-18.174-6.032-29.774-13.147-35.883 43.23-4.873 88.781-10.827 88.781-85.456 0-21.19-7.579-31.862-19.953-45.551 2.011-5.026 8.585-25.675-2.01-52.51-16.163-5.104-53.362 20.88-53.362 20.88-15.467-4.331-32.094-6.573-48.566-6.573s-33.1 2.243-48.567 6.573c0 0-37.198-25.907-53.361-20.88-10.595 26.758-4.022 47.485-2.011 52.51-12.374 13.611-18.251 24.284-18.251 45.551 0 74.397 43.617 80.661 86.847 85.456-5.568 5.104-10.595 13.688-12.373 26.062-11.059 5.104-39.441 13.688-56.378-16.163-10.595-18.406-29.851-19.953-29.851-19.953-18.947-.232-1.237 11.91-1.237 11.91 12.683 5.8 21.499 28.304 21.499 28.304 11.368 34.647 65.503 23.046 65.503 23.046l.166 35.759.066 11.725c0 5.027-3.48 11.137-13.379 9.358C53.98 347.855 0 274.464 0 188.699zm75.711 82.052c-1.315-1.469-1.547-3.248-.541-4.021 1.005-1.005 2.784-.464 4.021.773 1.315 1.47 1.547 3.248.541 4.022-1.005 1.005-2.784.464-4.021-.774zm-7.115-7.269c-1.547-.773-2.32-2.011-1.779-3.016.541-.774 1.779-1.006 3.325-.542 1.547.774 2.32 2.011 1.779 3.017-.541 1.082-2.088 1.314-3.325.541zm24.283 29.31c-1.779-1.469-2.243-3.789-1.005-4.795 1.005-1.237 3.325-1.005 5.027.774 1.547 1.469 2.011 3.789 1.005 4.794-1.005 1.238-3.248 1.006-5.027-.773zm-9.822-11.6c-1.237-1.779-1.237-3.79 0-4.563 1.237-1.005 3.248-.232 4.331 1.547 1.237 1.778 1.237 3.789 0 4.794-1.005.774-3.094 0-4.331-1.778zm415.685-106.689h54.394c.334 0 .665.066.973.193s.589.316.825.552a2.54 2.54 0 0 1 .744 1.798v82.944c0 .476-.081 1.516-.825 1.926 0 0-18.05 12.716-47.806 12.716-35.938 0-78.585-11.067-78.585-85.336s37.25-89.719 73.562-89.719c31.522 0 43.999 6.982 46.044 8.442.748.537.971 1.328.971 1.986l-6.068 25.695c0 1.403-1.464 2.978-3.047 2.495l-1.619-.517c-5.119-1.66-13.183-4.276-29.702-4.276-21.223 0-43.829 6.283-43.829 54.032 0 47.739 21.709 53.416 37.25 53.416 13.172 0 17.937-1.623 17.937-1.623v-33.043h-21.219c-1.404 0-2.542-1.14-2.542-2.544v-26.594a2.54 2.54 0 0 1 2.542-2.543zm334.536-67.002c.125.31.188.641.185.975l-.001 160.267c-.003 1.413-1.124 2.564-2.526 2.564h-30.698c-1.404 0-2.538-1.151-2.538-2.564l.082-68.553h-47.738v68.553c0 1.413-1.127 2.564-2.529 2.564H716.89c-1.393 0-2.529-1.151-2.529-2.564V108.476a2.55 2.55 0 0 1 2.529-2.557h30.626c1.402 0 2.529 1.142 2.529 2.557v59.19h47.738l-.006-59.19c-.002-.334.063-.666.189-.975s.313-.591.549-.828a2.53 2.53 0 0 1 .823-.556 2.57 2.57 0 0 1 .974-.198h30.628a2.54 2.54 0 0 1 .972.198 2.51 2.51 0 0 1 .821.556c.235.237.42.519.546.828zm-242.097 2.067c10.908 0 19.75 8.912 19.75 19.939 0 11.017-8.842 19.954-19.75 19.954-10.897 0-19.746-8.937-19.746-19.954 0-11.027 8.849-19.939 19.746-19.939zm17.56 51.387v73.981 32.257c0 2.608-.74 4.091-3.758 4.091h-27.507c-2.512 0-4.453-.928-4.453-4.041V161.252c0-1.406 1.253-2.848 2.655-2.848h30.529c1.402 0 2.534 1.148 2.534 2.551zm310.728-2.311h30.392v-.002c1.401 0 2.535 1.149 2.535 2.564l.011 107.583c0 1.408-1.14 2.559-2.531 2.559l-19.624.087c-.981 0-1.888-.698-2.235-1.389s-1.118-6.529-1.118-6.529-16.164 11.077-36.213 11.077c-24.436 0-42.199-7.799-42.199-39.67v-73.718c0-1.415 1.141-2.564 2.532-2.564h30.846c1.395 0 2.527 1.149 2.527 2.564v68.531c0 10.729 2.909 15.703 13.867 15.703s18.682-5.651 18.682-5.651v-78.582c0-1.415 1.133-2.563 2.528-2.563zm83.78 81.594s7.15 4.783 17.69 5.105c14.75.444 19.51-4.99 19.51-32.52 0-26.11-10.55-29.415-21.49-28.435-8.66.772-15.71 5.096-15.71 5.096v50.754zm.68-77.491s11.74-7.703 29-7.703c17.27 0 42.84 6.456 42.84 55.855s-16.01 63.559-43.92 63.559c-23.77 0-36.333-11.9-36.333-11.9s-.764 6.526-1.294 7.387c-.538.867-1.264 1.363-2.224 1.363h-21.31c-1.4 0-2.534-1.15-2.534-2.565V108.476a2.56 2.56 0 0 1 .189-.974c.126-.31.312-.591.547-.828s.514-.427.822-.556.638-.197.972-.199h30.715c1.4 0 2.53 1.142 2.53 2.557v54.271zm-330.137-4.358h22.974c1.401 0 2.536 1.139 2.536 2.554v24.686c.002.335-.063.667-.189.977a2.57 2.57 0 0 1-.548.829c-.236.238-.516.427-.824.557a2.55 2.55 0 0 1-.975.198h-22.975v45.062c0 6.791 3.825 12.037 15.109 12.037 2.182 0 4.324-.209 5.958-.369 1.008-.098 1.822-.177 2.333-.177a2.59 2.59 0 0 1 2.539 2.561l-.025 21.682c0 1.021-.53 1.962-1.44 2.296-1.504.556-10.616 3.002-18.234 3.002-16.669 0-41.371-3.46-41.371-38.677v-47.415h-16.053c-1.401 0-2.533-1.146-2.533-2.561v-19.71c0-.551.179-1.087.51-1.528a2.54 2.54 0 0 1 1.326-.914c1.059-.308 16.748-4.094 16.748-4.094V128.02c0-1.17.656-1.706 1.871-1.706h31.307c1.331 0 1.921.574 1.921 1.722l.035 30.353z" fill="#0f0e0f"/></svg>