<svg width="1048" height="300" viewBox="0 0 1048 300" fill="none" xmlns="http://www.w3.org/2000/svg">
<path d="M102.914 241.56C102.914 242.8 101.487 243.793 99.6883 243.793C97.6412 243.979 96.2144 242.986 96.2144 241.56C96.2144 240.319 97.6412 239.326 99.4401 239.326C101.301 239.14 102.914 240.133 102.914 241.56ZM83.6215 238.768C83.1873 240.009 84.428 241.435 86.289 241.808C87.9019 242.428 89.7629 241.808 90.1351 240.567C90.5073 239.326 89.3286 237.9 87.4676 237.341C85.8548 236.907 84.0558 237.527 83.6215 238.768ZM111.04 237.713C109.241 238.148 108.001 239.326 108.187 240.753C108.373 241.994 109.986 242.8 111.847 242.366C113.646 241.932 114.887 240.753 114.7 239.512C114.514 238.334 112.839 237.527 111.04 237.713ZM151.859 0C65.8178 0 0 65.3216 0 151.362C0 220.158 43.2996 279.028 105.147 299.747C113.088 301.174 115.879 296.273 115.879 292.241C115.879 288.395 115.693 267.18 115.693 254.152C115.693 254.152 72.2694 263.457 63.1504 235.666C63.1504 235.666 56.0785 217.615 45.905 212.962C45.905 212.962 31.6993 203.223 46.8975 203.409C46.8975 203.409 62.3439 204.649 70.8426 219.413C84.428 243.359 107.194 236.473 116.065 232.379C117.492 222.453 121.524 215.567 125.991 211.473C91.3137 207.627 56.3267 202.602 56.3267 142.926C56.3267 125.867 61.0412 117.306 70.9666 106.388C69.3538 102.356 64.0809 85.7307 72.5795 64.267C85.5446 60.2348 115.383 81.0161 115.383 81.0161C127.79 77.5422 141.127 75.7432 154.34 75.7432C167.553 75.7432 180.891 77.5422 193.297 81.0161C193.297 81.0161 223.135 60.1728 236.101 64.267C244.599 85.7927 239.326 102.356 237.713 106.388C247.639 117.368 253.718 125.929 253.718 142.926C253.718 202.788 217.18 207.565 182.503 211.473C188.21 216.374 193.049 225.679 193.049 240.257C193.049 261.162 192.863 287.03 192.863 292.117C192.863 296.149 195.717 301.05 203.595 299.623C265.629 279.028 307.688 220.158 307.688 151.362C307.688 65.3216 237.9 0 151.859 0ZM60.2968 213.955C59.4904 214.575 59.6765 216.002 60.7311 217.18C61.7236 218.173 63.1504 218.607 63.9568 217.801C64.7633 217.18 64.5772 215.753 63.5226 214.575C62.53 213.582 61.1033 213.148 60.2968 213.955ZM53.5972 208.93C53.1629 209.736 53.7833 210.729 55.024 211.349C56.0165 211.969 57.2572 211.783 57.6914 210.915C58.1256 210.108 57.5053 209.116 56.2646 208.496C55.024 208.123 54.0314 208.309 53.5972 208.93ZM73.6961 231.014C72.7036 231.82 73.0758 233.681 74.5026 234.86C75.9293 236.287 77.7283 236.473 78.5348 235.48C79.3412 234.674 78.969 232.813 77.7283 231.634C76.3636 230.207 74.5026 230.021 73.6961 231.014ZM66.6243 221.895C65.6317 222.515 65.6317 224.128 66.6243 225.555C67.6168 226.982 69.2917 227.602 70.0982 226.982C71.0907 226.175 71.0907 224.562 70.0982 223.136C69.2297 221.709 67.6168 221.088 66.6243 221.895Z" fill="black"/>
<path d="M490.089 136.038H432.023C431.303 136.039 430.613 136.325 430.104 136.834C429.595 137.344 429.309 138.035 429.309 138.755V167.163C429.309 168.664 430.525 169.882 432.023 169.882H454.675V205.18C454.675 205.18 449.588 206.913 435.527 206.913C418.937 206.913 395.763 200.849 395.763 149.852C395.763 98.8441 419.895 92.1329 442.55 92.1329C462.161 92.1329 470.61 95.5886 475.986 97.253C477.675 97.7685 479.237 96.0868 479.237 94.5879L485.715 67.1386C485.715 66.436 485.478 65.5908 484.679 65.0178C482.496 63.4584 469.177 56 435.527 56C396.764 56 357 72.505 357 151.84C357 231.177 402.525 243 440.889 243C472.653 243 491.922 229.416 491.922 229.416C492.717 228.979 492.803 227.867 492.803 227.359V138.755C492.803 138.398 492.733 138.045 492.597 137.716C492.46 137.386 492.261 137.086 492.009 136.834C491.757 136.582 491.457 136.382 491.128 136.245C490.799 136.108 490.446 136.038 490.089 136.038V136.038ZM789.338 65.5059C789.341 65.1492 789.274 64.7954 789.14 64.4648C789.006 64.1342 788.809 63.8333 788.558 63.5795C788.308 63.3257 788.01 63.1239 787.681 62.9857C787.352 62.8476 787 62.7758 786.643 62.7745H753.948C753.591 62.776 753.238 62.8478 752.909 62.9859C752.58 63.124 752.281 63.3256 752.03 63.5792C751.778 63.8329 751.579 64.1336 751.444 64.4641C751.309 64.7947 751.24 65.1487 751.242 65.5059L751.249 128.735H700.288V65.5059C700.288 63.994 699.085 62.7745 697.589 62.7745H664.895C664.175 62.779 663.487 63.0692 662.981 63.5814C662.475 64.0935 662.192 64.7856 662.196 65.5059V236.709C662.196 238.218 663.409 239.448 664.895 239.448H697.589C699.085 239.448 700.288 238.218 700.288 236.709V163.479H751.249L751.161 236.709C751.161 238.218 752.371 239.448 753.871 239.448H786.64C788.137 239.448 789.334 238.218 789.337 236.709L789.338 65.5059ZM551.786 87.9718C551.786 76.1924 542.347 66.6721 530.702 66.6721C519.069 66.6721 509.623 76.1924 509.623 87.9718C509.623 99.7411 519.069 109.287 530.702 109.287C542.347 109.287 551.786 99.7411 551.786 87.9718ZM549.447 200.595V121.566C549.447 120.067 548.239 118.841 546.742 118.841H514.153C512.656 118.841 511.318 120.381 511.318 121.883V235.107C511.318 238.433 513.39 239.423 516.072 239.423H545.436C548.658 239.423 549.447 237.84 549.447 235.053V200.595ZM913.593 119.097H881.15C879.66 119.097 878.45 120.324 878.45 121.836V205.78C878.45 205.78 870.206 211.816 858.508 211.816C846.81 211.816 843.705 206.503 843.705 195.042V121.834C843.705 120.322 842.496 119.095 841.007 119.095H808.079C806.594 119.095 805.376 120.322 805.376 121.834V200.582C805.376 234.629 824.338 242.96 850.423 242.96C871.826 242.96 889.081 231.127 889.081 231.127C889.081 231.127 889.901 237.363 890.275 238.102C890.645 238.839 891.613 239.585 892.66 239.585L913.609 239.493C915.094 239.493 916.311 238.263 916.311 236.758L916.299 121.834C916.299 120.322 915.088 119.095 913.593 119.095V119.097ZM989.472 211.712C978.217 211.368 970.584 206.259 970.584 206.259V152.042C970.584 152.042 978.114 147.423 987.354 146.598C999.037 145.551 1010.29 149.082 1010.29 176.973C1010.29 206.382 1005.22 212.187 989.472 211.712V211.712ZM1002.27 115.251C983.84 115.251 971.308 123.48 971.308 123.48V65.5059C971.308 63.994 970.099 62.7745 968.61 62.7745H935.822C935.465 62.7764 935.112 62.8485 934.784 62.9868C934.455 63.1251 934.157 63.3268 933.906 63.5804C933.655 63.8341 933.457 64.1346 933.322 64.465C933.187 64.7954 933.119 65.1491 933.121 65.5059V236.709C933.121 238.221 934.331 239.449 935.826 239.449H958.574C959.599 239.449 960.374 238.919 960.948 237.994C961.514 237.074 962.33 230.102 962.33 230.102C962.33 230.102 975.735 242.814 1001.12 242.814C1030.91 242.814 1048 227.69 1048 174.918C1048 122.148 1020.71 115.251 1002.27 115.251V115.251ZM643.414 118.825H618.889L618.852 86.4009C618.852 85.1742 618.222 84.5608 616.801 84.5608H583.381C582.083 84.5608 581.384 85.1338 581.384 86.3836V119.889C581.384 119.889 564.636 123.933 563.505 124.262C562.94 124.425 562.443 124.768 562.09 125.239C561.736 125.709 561.545 126.282 561.545 126.871V147.926C561.545 149.437 562.754 150.661 564.249 150.661H581.386V201.312C581.386 238.932 607.755 242.629 625.55 242.629C633.682 242.629 643.409 240.015 645.014 239.422C645.986 239.065 646.551 238.06 646.551 236.968L646.578 213.807C646.578 212.295 645.302 211.071 643.868 211.071C642.437 211.071 638.781 211.655 635.017 211.655C622.971 211.655 618.888 206.051 618.888 198.797V150.66H643.414C643.772 150.658 644.125 150.586 644.454 150.448C644.784 150.309 645.083 150.107 645.334 149.853C645.585 149.599 645.784 149.298 645.919 148.967C646.054 148.636 646.123 148.282 646.121 147.924V121.553C646.121 120.041 644.909 118.825 643.414 118.825" fill="black"/>
</svg>
