<svg width="1076" height="374" viewBox="0 0 1076 374" fill="none" xmlns="http://www.w3.org/2000/svg">
<path fill-rule="evenodd" clip-rule="evenodd" d="M124.278 303.928C126.521 303.928 128.299 302.691 128.299 301.144C128.299 299.366 126.289 298.128 123.969 298.36C121.726 298.36 119.947 299.598 119.947 301.144C119.947 302.923 121.726 304.16 124.278 303.928ZM107.574 301.454C105.254 300.99 103.707 299.211 104.248 297.664C104.79 296.117 107.032 295.344 109.043 295.885C111.363 296.581 112.832 298.36 112.368 299.907C111.904 301.454 109.584 302.227 107.574 301.454ZM134.873 300.139C134.641 298.36 136.188 296.891 138.43 296.349C140.673 296.117 142.761 297.123 142.993 298.592C143.225 300.139 141.679 301.608 139.436 302.15C137.116 302.691 135.105 301.686 134.873 300.139ZM0 188.699C0 81.4342 82.0529 0 189.317 0C296.581 0 383.584 81.4342 383.584 188.699C383.584 274.464 331.15 347.855 253.815 373.53C243.993 375.309 240.436 369.199 240.436 364.173C240.436 362.078 240.461 357.156 240.495 350.564C240.564 337.201 240.668 316.973 240.668 299.52C240.668 281.346 234.636 269.746 227.521 263.637C270.751 258.764 316.302 252.81 316.302 178.181C316.302 156.991 308.723 146.319 296.349 132.63C298.36 127.604 304.934 106.955 294.339 80.1195C278.176 75.0154 240.977 101 240.977 101C225.51 96.6693 208.883 94.4266 192.411 94.4266C175.938 94.4266 159.311 96.6693 143.844 101C143.844 101 106.646 75.0927 90.4825 80.1195C79.8875 106.878 86.461 127.604 88.4718 132.63C76.0981 146.241 70.2206 156.914 70.2206 178.181C70.2206 252.578 113.838 258.842 157.068 263.637C151.5 268.741 146.473 277.325 144.695 289.699C133.636 294.803 105.254 303.387 88.3171 273.536C77.7221 255.13 58.4656 253.583 58.4656 253.583C39.5184 253.351 57.2282 265.493 57.2282 265.493C69.9112 271.293 78.7275 293.797 78.7275 293.797C90.0958 328.444 144.231 316.843 144.231 316.843C144.231 327.366 144.328 342.175 144.397 352.602C144.434 358.267 144.463 362.639 144.463 364.327C144.463 369.354 140.983 375.464 131.084 373.685C53.9801 347.855 0 274.464 0 188.699ZM75.7114 270.751C74.3967 269.282 74.1647 267.503 75.1701 266.73C76.1754 265.725 77.9541 266.266 79.1915 267.503C80.5062 268.973 80.7382 270.751 79.7328 271.525C78.7275 272.53 76.9488 271.989 75.7114 270.751ZM68.5965 263.482C67.0498 262.709 66.2765 261.471 66.8178 260.466C67.3592 259.692 68.5965 259.46 70.1432 259.924C71.69 260.698 72.4633 261.935 71.922 262.941C71.3806 264.023 69.8339 264.255 68.5965 263.482ZM92.8799 292.792C91.1012 291.323 90.6371 289.003 91.8745 287.997C92.8799 286.76 95.1999 286.992 96.9013 288.771C98.448 290.24 98.912 292.56 97.9067 293.565C96.9013 294.803 94.6586 294.571 92.8799 292.792ZM83.0583 281.192C81.8209 279.413 81.8209 277.402 83.0583 276.629C84.2956 275.624 86.3064 276.397 87.3891 278.176C88.6264 279.954 88.6264 281.965 87.3891 282.97C86.3837 283.744 84.2956 282.97 83.0583 281.192ZM498.743 174.503H553.137C553.471 174.503 553.802 174.569 554.11 174.696C554.419 174.824 554.699 175.012 554.935 175.248C555.171 175.484 555.358 175.764 555.486 176.073C555.614 176.382 555.679 176.712 555.679 177.046V259.99C555.679 260.466 555.598 261.506 554.854 261.916C554.854 261.916 536.804 274.632 507.048 274.632C471.11 274.632 428.463 263.565 428.463 189.296C428.463 115.028 465.713 99.5774 502.025 99.5774C533.547 99.5774 546.024 106.559 548.069 108.019C548.817 108.556 549.04 109.347 549.04 110.005L542.972 135.7C542.972 137.103 541.508 138.678 539.925 138.195C539.418 138.038 538.881 137.864 538.306 137.678C533.187 136.018 525.123 133.402 508.604 133.402C487.381 133.402 464.775 139.685 464.775 187.434C464.775 235.173 486.484 240.85 502.025 240.85C515.197 240.85 519.962 239.227 519.962 239.227V206.184H498.743C497.339 206.184 496.201 205.044 496.201 203.64V177.046C496.201 176.372 496.468 175.725 496.945 175.248C497.422 174.771 498.068 174.503 498.743 174.503ZM833.279 107.501C833.404 107.811 833.467 108.142 833.464 108.476L833.463 268.743C833.46 270.156 832.339 271.307 830.937 271.307H800.239C798.835 271.307 797.701 270.156 797.701 268.743L797.783 200.19H750.045V268.743C750.045 270.156 748.918 271.307 747.516 271.307H716.89C715.497 271.307 714.361 270.156 714.361 268.743V108.476C714.358 107.802 714.622 107.154 715.096 106.674C715.571 106.195 716.216 105.923 716.89 105.919H747.516C748.918 105.919 750.045 107.061 750.045 108.476V167.666H797.783L797.777 108.476C797.775 108.142 797.84 107.81 797.966 107.501C798.093 107.191 798.279 106.91 798.515 106.673C798.75 106.435 799.03 106.246 799.338 106.117C799.647 105.988 799.978 105.921 800.312 105.919H830.94C831.273 105.92 831.604 105.988 831.912 106.117C832.22 106.246 832.499 106.435 832.733 106.673C832.968 106.91 833.153 107.192 833.279 107.501ZM591.182 109.568C602.09 109.568 610.932 118.48 610.932 129.507C610.932 140.524 602.09 149.461 591.182 149.461C580.285 149.461 571.436 140.524 571.436 129.507C571.436 118.48 580.285 109.568 591.182 109.568ZM608.742 160.955V234.936V267.193C608.742 269.801 608.002 271.284 604.984 271.284H577.477C574.965 271.284 573.024 270.356 573.024 267.243V161.252C573.024 159.846 574.277 158.404 575.679 158.404H606.208C607.61 158.404 608.742 159.552 608.742 160.955ZM919.47 158.644H949.862V158.642C951.263 158.642 952.397 159.791 952.397 161.206L952.408 268.789C952.408 270.197 951.268 271.348 949.877 271.348L930.253 271.435C929.272 271.435 928.365 270.737 928.018 270.046C927.668 269.355 926.9 263.517 926.9 263.517C926.9 263.517 910.736 274.594 890.687 274.594C866.251 274.594 848.488 266.795 848.488 234.924V161.206C848.488 159.791 849.629 158.642 851.02 158.642H881.866C883.261 158.642 884.393 159.791 884.393 161.206V229.737C884.393 240.466 887.302 245.44 898.26 245.44C909.218 245.44 916.942 239.789 916.942 239.789V161.207C916.942 159.792 918.075 158.644 919.47 158.644ZM1003.25 240.238C1003.25 240.238 1010.4 245.021 1020.94 245.343C1035.69 245.787 1040.45 240.353 1040.45 212.823C1040.45 186.713 1029.9 183.408 1018.96 184.388C1010.3 185.16 1003.25 189.484 1003.25 189.484V240.238ZM1003.93 162.747C1003.93 162.747 1015.67 155.044 1032.93 155.044C1050.2 155.044 1075.77 161.5 1075.77 210.899C1075.77 260.3 1059.76 274.458 1031.85 274.458C1008.08 274.458 995.517 262.558 995.517 262.558C995.517 262.558 994.753 269.084 994.223 269.945C993.685 270.812 992.959 271.308 991.999 271.308H970.689C969.289 271.308 968.155 270.158 968.155 268.743V108.476C968.154 108.142 968.218 107.811 968.344 107.502C968.47 107.192 968.656 106.911 968.891 106.674C969.126 106.436 969.405 106.247 969.713 106.118C970.021 105.988 970.351 105.921 970.685 105.919H1001.4C1002.8 105.919 1003.93 107.061 1003.93 108.476V162.747ZM673.793 158.389H696.767C698.168 158.389 699.303 159.528 699.303 160.943V185.629C699.305 185.964 699.24 186.296 699.114 186.606C698.987 186.915 698.801 187.197 698.566 187.435C698.33 187.673 698.05 187.862 697.742 187.992C697.433 188.121 697.102 188.189 696.767 188.19H673.792V233.252C673.792 240.043 677.617 245.289 688.901 245.289C691.083 245.289 693.225 245.08 694.859 244.92C695.867 244.822 696.681 244.743 697.192 244.743C698.536 244.743 699.731 245.889 699.731 247.304L699.706 268.986C699.706 270.007 699.176 270.948 698.266 271.282C696.762 271.838 687.65 274.284 680.032 274.284C663.363 274.284 638.661 270.824 638.661 235.607V188.192H622.608C621.207 188.192 620.075 187.046 620.075 185.631V165.921C620.075 165.37 620.254 164.834 620.585 164.393C620.916 163.953 621.381 163.632 621.911 163.479C622.97 163.171 638.659 159.385 638.659 159.385V128.02C638.659 126.85 639.315 126.314 640.53 126.314H671.837C673.168 126.314 673.758 126.888 673.758 128.036L673.793 158.389Z" fill="#949494"/>
</svg>
