<svg width="1015" height="300" viewBox="0 0 1015 300" fill="none" xmlns="http://www.w3.org/2000/svg">
<path d="M27.266 300H90.8868V145.492L0 77.3271V272.734C0 287.798 12.2016 300 27.266 300Z" fill="#4285F4"/>
<path d="M309.015 300H372.636C387.7 300 399.902 287.798 399.902 272.734V77.3271L309.015 145.492V300Z" fill="#34A853"/>
<path d="M309.015 27.3395V145.492L399.902 77.3273V40.9725C399.902 7.27625 361.434 -11.969 334.463 8.25329L309.015 27.3395Z" fill="#FBBC04"/>
<path d="M90.8866 145.492V27.3394L199.951 109.137L309.015 27.3394V145.492L199.951 227.29L90.8866 145.492Z" fill="#EA4335"/>
<path d="M0 40.9725V77.3273L90.8868 145.492V27.3395L65.4385 8.25329C38.4678 -11.969 0 7.27625 0 40.9725V40.9725Z" fill="#C5221F"/>
<path fill-rule="evenodd" clip-rule="evenodd" d="M498 143.51C498 159.225 502.049 175.927 511.035 188.591C515.354 194.68 517.227 196.502 522.295 201.579C522.719 202.004 523.002 202.325 523.436 202.725C523.985 203.234 524.246 203.329 524.81 203.867C527.653 206.578 532.645 209.932 535.909 211.98C546.804 218.815 561.361 222.231 574.37 222.231C585.095 222.231 596.674 220.259 604.327 217.198C609.253 215.229 609.016 215.259 613.241 213.076C614.176 212.591 615.269 212.017 616.17 211.432C619.335 209.379 623.603 206.522 626.217 203.865L633.643 195.965C634.004 195.526 634.292 195.154 634.638 194.671C642.592 183.57 647.997 170.133 647.997 155.177C647.997 152.018 648.351 142.119 646.697 140.459C645.336 139.091 640.989 139.845 637.936 139.845H623.301C617.497 139.845 612.195 139.616 606.61 139.616L575.741 139.845V157.008H626.502C630.229 157.008 629.325 160.479 628.806 162.975C626.698 173.106 622.952 181.161 615.93 188.764C607.221 198.194 591.232 204.609 577.571 204.609C566.427 204.609 559.95 203.355 550.752 199.412C545.381 197.11 541.991 194.636 537.652 191.241L533.951 187.851C528.969 182.808 523.977 175.407 521.286 168.717C520.036 165.61 519.527 164.012 518.67 160.579C514.353 143.295 518.156 119.317 529.623 105.817C530.227 105.107 530.68 104.491 531.323 103.857L536.799 98.5816C537.541 97.9853 538.062 97.5338 538.829 96.9519C542.359 94.2728 546.315 91.996 550.366 90.1899C556.76 87.3391 566.284 84.4661 573.687 84.4661C580.162 84.4661 583.991 84.4423 590.353 86.3232C594.055 87.417 597.087 88.6254 600.365 90.263C607.107 93.6321 609.507 95.9709 614.585 100.06C615.36 100.685 615.89 101.025 616.446 101.857C617.538 101.125 623.921 94.2633 625.993 92.1884C626.938 91.244 628.588 89.8036 629.251 88.813C627.856 86.1753 620.169 80.2003 617.061 78.3576C616.027 77.7455 615.215 77.2494 614.205 76.6389C609.194 73.6084 600.05 70.427 594.21 69.1885C575.747 65.2725 558.738 66.3949 541.6 74.3207C533.25 78.1827 526.255 83.3817 519.666 89.8989L516.425 93.5208C512.979 97.9344 510.488 100.784 507.681 106.051L504.553 112.304C503.217 115.058 501.727 119.577 500.875 122.582C499.107 128.812 498.002 136.881 498.002 143.505L498 143.51Z" fill="#5F6267"/>
<path fill-rule="evenodd" clip-rule="evenodd" d="M751.128 133.668C744.941 121.965 734.865 114.444 720.488 114.444C708.706 114.444 700.141 117.988 692.649 125.486L688.279 130.266C687.791 130.932 687.537 131.598 686.647 131.837C686.371 131.423 686.19 131.434 686.19 130.921V117.877H669.041V218.569H687.103V176.461C687.103 165.268 686.581 155.132 691.448 145.338C693.413 141.386 696.179 138.234 699.612 135.659C707.281 129.908 716.855 129.684 725.555 133.174C732.819 136.088 733.846 141.445 735.255 147.723C735.958 150.854 736.494 154.951 736.494 158.611V218.569H754.787V167.079C754.787 152.571 758.098 141.219 769.493 134.427C777.986 129.363 790.758 129.553 798.264 136.382C798.549 136.641 799.607 137.918 799.839 138.239C800.187 138.726 800.825 139.764 801.111 140.398C804.033 146.887 804.406 156.962 804.406 164.562V216.052C804.4 217.175 804.05 218.796 805.092 218.796H822.242C823.373 218.796 822.928 215.723 822.928 213.534V201.177C822.928 200.183 822.929 199.189 822.934 198.197C822.941 196.795 822.728 196.428 822.693 195.235C822.213 179.174 823.123 163.189 822.243 146.483C822.07 143.186 821.125 138.81 820.153 136.218C818.723 132.403 816.171 127.73 813.272 124.798C804.463 115.888 793.947 113.059 781.331 114.465C770.583 115.664 760.139 121.845 753.875 130.237C753.435 130.825 753.074 131.296 752.574 131.91C752.104 132.487 751.641 133.295 751.131 133.67L751.128 133.668Z" fill="#5F6268"/>
<path fill-rule="evenodd" clip-rule="evenodd" d="M880.998 205.731C874.237 205.731 870.405 204.89 865.023 200.894C862.129 198.745 858.362 193.965 858.362 189.025C858.362 184.588 859.013 180.815 862.078 177.413C862.994 176.393 863.047 176.103 864.208 175.198C868.005 172.239 870.628 170.576 875.872 169.25C884.941 166.959 897.201 167.604 905.39 171.706C910.591 174.312 912.236 175.424 910.296 182.419C909.722 184.489 908.796 186.957 907.795 188.612C907.195 189.603 906.761 190.396 906.151 191.315C903.52 195.279 898.913 199.471 894.643 201.766C891.221 203.604 886.112 205.731 880.998 205.731V205.731ZM842.812 133.874C843.486 134.054 844.33 134.659 844.871 135.017L858.819 143.714C860.604 141.048 866.621 136.427 869.492 134.715C871.549 133.488 873.846 132.371 876.221 131.608C884.106 129.076 892.619 130.219 899.201 134.65C904.451 138.184 908.632 142.353 910.316 148.927C911.686 154.278 911.1 154.527 910.725 159.046C910 158.877 903.516 156.317 899.749 155.384C884.535 151.616 870.812 151.901 856.686 158.971L852.02 161.625C835.401 173.528 834.88 198.738 849.618 211.736C850.06 212.126 850.192 212.154 850.64 212.545C852.888 214.506 855.683 216.323 858.359 217.635C861.314 219.083 865.74 220.71 869.532 221.327C877.978 222.703 886.732 222.346 894.414 218.471C897.733 216.797 902.794 213.627 905.104 210.634C905.806 209.725 909.792 204.817 910.496 204.817C911.023 204.817 911.182 204.976 911.182 205.504V218.547H928.56C928.56 213.487 928.789 209.202 928.789 204.13C928.789 190.506 928.965 176.044 928.799 162.47C928.783 161.171 928.554 160.887 928.552 159.512C928.546 155.012 928.64 151.101 928.092 147.158C927.547 143.237 926.629 140.31 925.331 137.106C921.513 127.686 914.131 122.349 905.234 118.315C900.693 116.256 895.266 114.763 890.147 114.192C888.39 113.997 885.818 113.736 883.974 113.736C882.452 113.736 881.991 113.971 880.547 113.966C876.377 113.955 868.389 115.8 864.604 117.232L859.018 119.423C854.46 121.29 848.922 125.527 846.015 129.295C845.286 130.241 843.108 132.78 842.816 133.874H842.812Z" fill="#5F6267"/>
<path fill-rule="evenodd" clip-rule="evenodd" d="M997.393 218.557H1015V70.4941H997.393V218.557Z" fill="#5F6268"/>
<path fill-rule="evenodd" clip-rule="evenodd" d="M953.03 164.069V218.763H970.865V117.385H953.03C953.03 118.528 952.807 118.646 952.791 119.894L952.834 140.695C953.223 144.166 953.03 159.401 953.03 164.07V164.069Z" fill="#5F6167"/>
<path fill-rule="evenodd" clip-rule="evenodd" d="M948.913 81.7508C948.913 86.7289 951.513 91.4001 955.846 93.5783C961.104 96.2223 967.505 95.3098 971.614 91.1982C979.141 83.6651 974.363 68.707 962.403 68.707C954.927 68.707 948.913 74.3624 948.913 81.7508V81.7508Z" fill="#5F6268"/>
</svg>
