<svg xmlns="http://www.w3.org/2000/svg" xmlns:xlink="http://www.w3.org/1999/xlink" width="1170" height="338" fill="none" xmlns:v="https://vecta.io/nano"><use xlink:href="#D" fill="url(#A)"/><use xlink:href="#D" fill="url(#B)"/><path d="M169.023 44.204c-33.896 0-38.15.148-51.463.754-13.287.608-22.357 2.712-30.293 5.798-8.209 3.188-15.172 7.452-22.11 14.392-6.943 6.937-11.207 13.901-14.405 22.107-3.094 7.938-5.2 17.011-5.798 30.293-.593 13.313-.749 17.57-.749 51.466l.754 51.451c.611 13.287 2.715 22.356 5.798 30.292 3.19 8.209 7.455 15.173 14.395 22.11 6.935 6.943 13.898 11.217 22.102 14.405 7.941 3.087 17.013 5.19 30.298 5.799 13.313.606 17.564.754 51.458.754 33.899 0 38.14-.148 51.453-.754 13.288-.609 22.368-2.712 30.309-5.799 8.206-3.188 15.159-7.462 22.094-14.405 6.942-6.937 11.207-13.901 14.405-22.107 3.068-7.939 5.174-17.011 5.798-30.293.598-13.313.754-17.556.754-51.453l-.754-51.463c-.624-13.288-2.73-22.357-5.798-30.293-3.198-8.209-7.463-15.172-14.405-22.11-6.943-6.943-13.886-11.207-22.102-14.392-7.957-3.087-17.032-5.19-30.319-5.798-13.313-.606-17.551-.754-51.458-.754h.036zm-11.196 22.492h11.196l50.434.718c12.169.556 18.774 2.59 23.173 4.298 5.825 2.262 9.977 4.967 14.343 9.335s7.073 8.529 9.34 14.353c1.708 4.394 3.744 10.999 4.298 23.168.598 13.157.728 17.11.728 50.419l-.728 50.418c-.556 12.169-2.59 18.773-4.298 23.168-2.262 5.824-4.972 9.972-9.34 14.337s-8.516 7.073-14.343 9.335c-4.394 1.716-11.004 3.745-23.173 4.301-13.157.598-17.109.728-50.434.728s-37.276-.13-50.434-.728c-12.169-.562-18.773-2.595-23.175-4.303-5.824-2.263-9.985-4.967-14.353-9.335s-7.073-8.519-9.34-14.346c-1.708-4.394-3.744-10.999-4.298-23.168-.598-13.157-.718-17.109-.718-50.439l.718-50.418c.556-12.169 2.59-18.773 4.298-23.173 2.262-5.824 4.972-9.985 9.34-14.353s8.529-7.073 14.353-9.34c4.4-1.716 11.006-3.744 23.175-4.303 11.514-.52 15.976-.676 39.238-.702v.031zm77.819 20.724c-2.962 0-5.858.878-8.321 2.524s-4.383 3.985-5.517 6.722-1.429 5.749-.851 8.654 2.005 5.575 4.1 7.669a14.99 14.99 0 0 0 7.67 4.098c2.906.577 5.918.28 8.654-.855s5.076-3.055 6.721-5.518a14.98 14.98 0 0 0 2.521-8.323c0-8.268-6.708-14.977-14.977-14.977v.005zm-66.623 17.5c-35.397 0-64.095 28.698-64.095 64.095s28.698 64.083 64.095 64.083 64.088-28.686 64.088-64.083-28.694-64.095-64.09-64.095h.002zm0 22.492c22.976 0 41.604 18.625 41.604 41.603s-18.628 41.604-41.604 41.604-41.603-18.628-41.603-41.604 18.625-41.603 41.603-41.603h0z" fill="#fff"/><path d="M440.597 76.756c-15.745 6.585-33.059 25.167-38.523 48.539-6.934 29.588 21.891 42.083 24.247 38.006 2.771-4.835-5.182-6.458-6.806-21.799-2.089-19.84 7.116-42.005 18.732-51.731 2.167-1.778 2.062.731 2.062 5.356l-.465 98.548c0 21.091-.865 27.731-2.461 34.289-1.568 6.669-4.107 11.166-2.195 12.916 2.167 1.933 11.373-2.67 16.71-10.114 6.384-8.917 8.634-19.634 9.05-31.265.471-14.007.443-36.277.471-48.955l-.183-66.263c-.105-5.018-14.071-10.274-20.639-7.527h0zm725.933 110.721c-2.25 0-3.32 2.354-4.19 6.303-2.98 13.774-6.12 16.882-10.17 16.882-4.53 0-8.58-6.818-9.65-20.466-.81-10.717-.68-30.478.36-50.135.21-4.026-.89-8.02-11.72-11.968-4.68-1.673-11.45-4.182-14.82 3.971-9.55 22.979-13.27 41.273-14.16 48.673-.02.387-.49.443-.57-.444-.55-5.937-1.81-16.732-1.96-39.423-.06-4.386-.97-8.181-5.89-11.265-3.16-1.983-12.79-5.539-16.27-1.33-2.98 3.451-6.46 12.706-10.09 23.683l-4.97 15.004.08-33.253c0-3.451-2.36-4.597-3.06-4.808-3.22-.941-9.58-2.481-12.25-2.481-3.32 0-4.1 1.855-4.1 4.547l-.55 53.636v3.084c-1.81 10.092-7.77 23.789-14.23 23.789s-9.52-5.727-9.52-31.864c0-15.242.47-21.877.68-32.91l.37-12.362c-.06-3.373-5.94-5.101-8.67-5.727-2.74-.653-5.12-.864-7-.786-2.62.16-4.473 1.883-4.473 4.292v3.656c-3.375-5.329-8.846-9.045-12.503-10.114-9.782-2.902-20.013-.316-27.727 10.451-6.119 8.58-9.81 18.272-11.246 32.207-1.075 10.197-.731 20.521 1.175 29.249-2.3 9.853-6.539 13.908-11.167 13.908-6.751 0-11.611-10.983-11.062-29.986.393-12.489 2.876-21.246 5.619-33.952 1.181-5.411.211-8.23-2.166-10.977-2.173-2.459-6.828-3.739-13.496-2.199-4.738 1.125-11.56 2.326-17.762 3.246 0 0 .366-1.496.682-4.132 1.596-13.83-13.446-12.705-18.234-8.286-2.877 2.637-4.839 5.749-5.57 11.343-1.175 8.89 6.068 13.071 6.068 13.071-2.377 10.873-8.185 25.09-14.226 35.364-3.22 5.517-5.681 9.571-8.868 13.908l-.029-4.808.366-47.366.394-12.235c-.056-2.459-1.491-3.423-4.528-4.574-2.666-1.042-5.831-1.8-9.101-2.066-4.106-.31-6.617 1.883-6.539 4.469v3.479c-3.397-5.329-8.868-9.045-12.476-10.114-9.809-2.902-20.034-.316-27.749 10.451-6.097 8.58-10.126 20.576-11.279 32.074-1.041 10.773-.858 19.867.605 27.555-1.569 7.681-6.042 15.735-11.113 15.735-6.462 0-10.153-5.727-10.153-31.864 0-15.242.471-21.877.71-32.91l.338-12.362c-.028-3.373-5.908-5.101-8.657-5.727-2.849-.676-5.337-.886-7.221-.786-2.511.21-4.263 2.431-4.263 4.131v3.817c-3.397-5.329-8.867-9.045-12.503-10.114-9.781-2.902-19.929-.26-27.699 10.451-5.071 6.985-9.178 14.744-11.295 31.947-.577 4.968-.865 9.615-.837 13.957-2.018 12.334-10.935 26.557-18.206 26.557-4.29 0-8.369-8.263-8.369-25.904 0-23.472 1.463-56.93 1.724-60.17l11.012-.183c4.578-.028 8.762.077 14.859-.238 3.087-.156 6.041-11.161 2.848-12.545-1.413-.604-11.561-1.152-15.59-1.23-3.397-.077-12.791-.781-12.791-.781l1.025-24.519c.155-1.989-2.355-2.98-3.818-3.584-3.536-1.512-6.701-2.221-10.414-2.98-5.204-1.069-7.532-.022-7.975 4.337-.682 6.618-1.048 26.014-1.048 26.014-3.818 0-16.765-.764-20.561-.764-3.525 0-7.349 15.164-2.455 15.347l21.864.598-.288 44.492v3.24c-3.581 18.582-16.111 28.623-16.111 28.623 2.693-12.312-2.8-21.54-12.736-29.326-3.664-2.903-10.88-8.369-18.966-14.301 0 0 4.683-4.625 8.84-13.88 2.932-6.563 3.065-14.112-4.157-15.763-11.927-2.741-21.736 6.015-24.69 15.37-2.25 7.217-1.07 12.6 3.397 18.166l1.02 1.258c-2.666 5.173-6.379 12.151-9.494 17.562-8.706 15.032-15.274 26.901-20.218 26.901-3.973 0-3.923-12.051-3.923-23.345 0-9.725.731-24.386 1.308-39.545.183-4.996-2.328-7.871-6.534-10.457-2.566-1.567-8.009-4.652-11.173-4.652-4.706 0-18.361.625-31.253 37.872-1.623 4.708-4.816 13.254-4.816 13.254l.288-44.801c0-1.047-.548-2.038-1.829-2.747-2.172-1.175-8.002-3.578-13.129-3.578-2.488 0-3.719 1.152-3.719 3.423l-.415 70.051c0 5.334.127 11.554.654 14.273.52 2.719 1.385 4.941 2.432 6.27 1.048 1.285 2.273 2.276 4.263 2.719 1.856.393 12.081 1.673 12.608-2.221.654-4.68.676-9.72 6.041-28.617 8.369-29.383 19.253-43.705 24.38-48.806.914-.886 1.934-.942 1.879.526l-1.513 36.2c-1.386 36.621 5.254 43.389 14.803 43.389 7.271 0 17.524-7.239 28.536-25.533l18.334-30.661 10.802 9.958c8.712 8.231 11.56 16.073 9.654 23.5-1.441 5.694-6.906 11.548-16.61 5.854-2.827-1.65-4.029-2.929-6.878-4.813-1.518-1.019-3.874-1.306-5.259-.26-3.664 2.747-5.731 6.22-6.934 10.535-1.124 4.209 3.087 6.402 7.455 8.335 3.741 1.701 11.799 3.19 16.948 3.373 20.062.681 36.123-9.67 47.291-36.333 2.017 23.03 10.513 36.073 25.294 36.073 9.91 0 19.825-12.783 24.169-25.356 1.225 5.123 3.082 9.565 5.465 13.359 11.406 18.034 33.53 14.168 44.62-1.152 3.453-4.757 3.979-6.458 3.979-6.458 1.618 14.461 13.285 19.551 19.957 19.551 7.505 0 15.197-3.55 20.606-15.735.654 1.335 1.336 2.592 2.123 3.794 11.378 18.034 33.502 14.168 44.62-1.152.499-.758.97-1.384 1.358-1.988l.344 9.515-10.253 9.382c-17.131 15.713-30.161 27.632-31.125 41.484-1.203 17.696 13.129 24.259 24.008 25.118 11.511.919 21.399-5.434 27.462-14.373 5.337-7.843 8.845-24.702 8.585-41.379l-.422-24.28c6.041-6.952 12.842-15.791 19.071-26.137 6.822-11.243 14.093-26.38 17.807-38.166 0 0 6.357.055 13.107-.366 2.173-.133 2.799.316 2.378 1.883-.471 1.906-8.524 32.988-1.175 53.691 5.049 14.162 16.371 18.737 23.122 18.737 7.869 0 15.407-5.96 19.431-14.793.498.969.997 1.932 1.573 2.824 11.379 18.034 33.425 14.14 44.62-1.152 2.538-3.473 3.948-6.458 3.948-6.458 2.41 14.982 14.08 19.607 20.74 19.607 6.99 0 13.58-2.847 18.94-15.503.21 5.572.55 10.119 1.13 11.554.33.892 2.32 1.988 3.74 2.537 6.38 2.353 12.87 1.229 15.24.731 1.68-.338 2.98-1.645 3.15-5.096.46-9.044.17-24.231 2.92-35.546 4.63-18.926 8.92-26.27 10.96-29.903 1.13-2.044 2.43-2.382 2.46-.238.08 4.364.31 17.175 2.12 34.427 1.28 12.65 3.03 20.15 4.39 22.531 3.82 6.768 8.58 7.084 12.43 7.084 2.46 0 7.58-.681 7.13-4.996-.23-2.088.17-15.081 4.69-33.741 2.98-12.207 7.92-23.212 9.7-27.238.68-1.49.97-.338.97-.106-.39 8.391-1.23 35.863 2.17 50.866 4.66 20.366 18.07 22.637 22.76 22.637 9.96 0 18.15-7.583 20.89-27.549.69-4.813-.31-8.524-3.27-8.524h.01zm-418.211-12.334c-.549 10.556-2.616 19.396-5.908 25.798-6.019 11.631-17.862 15.292-23.072-1.462-3.791-12.102-2.51-28.623-.914-37.54 2.3-13.226 8.135-22.581 17.236-21.723 9.311.92 13.861 12.917 12.658 34.927h0zm91.258.155c-.521 9.958-3.109 19.994-5.935 25.643-5.831 11.709-18.024 15.37-23.073-1.462-3.447-11.531-2.637-26.402-.914-35.762 2.228-12.18 7.587-23.501 17.242-23.501 9.388 0 14.016 10.302 12.68 35.082h0zm2.383 68.063c-.133 18.222-2.981 34.167-9.105 38.82-8.735 6.586-20.479 1.617-18.046-11.659 2.145-11.763 12.32-23.76 27.179-38.426 0 0 .05 3.345-.029 11.265h.001zm157.564-67.958c-.527 10.955-2.96 19.501-5.964 25.538-5.835 11.709-17.917 15.342-23.071-1.462-2.799-9.177-2.932-24.497-.915-37.274 2.039-13.022 7.77-22.847 17.236-21.989 9.361.892 13.73 12.917 12.714 35.187z" fill="url(#C)"/><defs><radialGradient id="A" cx="0" cy="0" r="1" gradientUnits="userSpaceOnUse" gradientTransform="translate(89.8062 364.033) rotate(-90) scale(334.983 311.645)"><stop stop-color="#fd5"/><stop offset=".1" stop-color="#fd5"/><stop offset=".5" stop-color="#ff543e"/><stop offset="1" stop-color="#c837ab"/></radialGradient><radialGradient id="B" cx="0" cy="0" r="1" gradientUnits="userSpaceOnUse" gradientTransform="matrix(29.3983799646785,146.82575678487882,-605.3753226070063,121.21206895133446,-56.6322,24.349)"><stop stop-color="#3771c8"/><stop offset=".128" stop-color="#3771c8"/><stop offset="1" stop-color="#60f" stop-opacity="0"/></radialGradient><linearGradient id="C" x1="372.473" y1="215.962" x2="464.644" y2="121.752" gradientUnits="userSpaceOnUse"><stop stop-color="#ffd521"/><stop offset=".05" stop-color="#ffd521"/><stop offset=".501" stop-color="#f50000"/><stop offset=".95" stop-color="#b900b4"/></linearGradient><path id="D" d="M169.101 0L73.873.406C59.39 1.61 50.378 3.89 40.559 8.778c-7.567 3.757-13.534 8.113-19.424 14.218C10.41 34.131 3.909 47.828 1.556 64.111.412 72.016.079 73.628.012 114.004v54.93l.416 95.142c1.17 14.093 3.38 22.96 8.061 32.659 8.945 18.565 26.028 32.502 46.154 37.703 6.969 1.794 14.665 2.782 24.546 3.25 4.186.182 46.856.312 89.552.312l89.473-.26c11.441-.538 18.085-1.43 25.431-3.328 9.979-2.559 19.279-7.266 27.251-13.792a70.78 70.78 0 0 0 18.902-23.99c4.59-9.464 6.917-18.669 7.97-32.026.229-2.913.325-49.345.325-95.715l-.333-95.636c-1.066-13.573-3.393-22.7-8.131-32.347-3.887-7.897-8.203-13.794-14.47-19.824C303.977 10.401 290.3 3.9 273.999 1.55 266.102.408 264.529.07 224.122 0h-55.021z"/></defs></svg>