<svg width="1039" height="300" viewBox="0 0 1039 300" fill="none" xmlns="http://www.w3.org/2000/svg">
<path d="M150.09 0C87.4492 0 69.1292 0.0646208 65.5681 0.36003C52.7132 1.42858 44.714 3.4526 35.9995 7.79143C29.2835 11.1263 23.9869 14.992 18.7595 20.411C9.2395 30.2933 3.46978 42.4513 1.38114 56.9033C0.365672 63.9193 0.0702624 65.3501 0.0102573 101.187C-0.0128216 113.133 0.0102573 128.854 0.0102573 149.941C0.0102573 212.531 0.0794939 230.833 0.379519 234.387C1.41807 246.895 3.37977 254.765 7.53397 263.374C15.4731 279.852 30.6359 292.222 48.499 296.838C54.6841 298.431 61.5155 299.308 70.2854 299.723C74.0011 299.885 111.874 300 149.769 300C187.665 300 225.56 299.954 229.183 299.769C239.338 299.291 245.235 298.5 251.755 296.815C260.612 294.544 268.866 290.366 275.942 284.574C283.018 278.782 288.743 271.516 292.72 263.282C296.793 254.881 298.859 246.711 299.793 234.855C299.996 232.27 300.082 191.058 300.082 149.902C300.082 108.738 299.989 67.6026 299.786 65.0178C298.84 52.9706 296.775 44.87 292.57 36.3077C289.119 29.2986 285.288 24.0643 279.726 18.7124C269.802 9.23155 257.663 3.46183 243.195 1.3755C236.186 0.362338 234.789 0.062313 198.925 0H150.09Z" fill="#949494"/>
<path d="M150.09 0C87.4492 0 69.1292 0.0646208 65.5681 0.36003C52.7132 1.42858 44.714 3.4526 35.9995 7.79143C29.2835 11.1263 23.9869 14.992 18.7595 20.411C9.2395 30.2933 3.46978 42.4513 1.38114 56.9033C0.365672 63.9193 0.0702624 65.3501 0.0102573 101.187C-0.0128216 113.133 0.0102573 128.854 0.0102573 149.941C0.0102573 212.531 0.0794939 230.833 0.379519 234.387C1.41807 246.895 3.37977 254.765 7.53397 263.374C15.4731 279.852 30.6359 292.222 48.499 296.838C54.6841 298.431 61.5155 299.308 70.2854 299.723C74.0011 299.885 111.874 300 149.769 300C187.665 300 225.56 299.954 229.183 299.769C239.338 299.291 245.235 298.5 251.755 296.815C260.612 294.544 268.866 290.366 275.942 284.574C283.018 278.782 288.743 271.516 292.72 263.282C296.793 254.881 298.859 246.711 299.793 234.855C299.996 232.27 300.082 191.058 300.082 149.902C300.082 108.738 299.989 67.6026 299.786 65.0178C298.84 52.9706 296.775 44.87 292.57 36.3077C289.119 29.2986 285.288 24.0643 279.726 18.7124C269.802 9.23155 257.663 3.46183 243.195 1.3755C236.186 0.362338 234.789 0.062313 198.925 0H150.09Z" fill="#949494"/>
<path d="M150.021 39.2339C119.935 39.2339 116.159 39.3654 104.343 39.9032C92.5496 40.4432 84.4997 42.3103 77.456 45.0498C70.17 47.8792 63.9895 51.6642 57.8321 57.8239C51.67 63.9814 47.8851 70.1619 45.0464 77.4456C42.3 84.4916 40.4306 92.5438 39.8998 104.332C39.3736 116.149 39.2351 119.927 39.2351 150.012C39.2351 180.098 39.369 183.862 39.9044 195.679C40.4468 207.472 42.3138 215.522 45.051 222.566C47.8828 229.852 51.6677 236.032 57.8274 242.19C63.9826 248.352 70.1631 252.146 77.4445 254.975C84.4928 257.715 92.545 259.582 104.336 260.122C116.152 260.66 119.926 260.791 150.009 260.791C180.097 260.791 183.861 260.66 195.678 260.122C207.471 259.582 215.53 257.715 222.578 254.975C229.862 252.146 236.033 248.352 242.188 242.19C248.35 236.032 252.135 229.852 254.974 222.568C257.697 215.522 259.567 207.47 260.121 195.681C260.652 183.865 260.79 180.098 260.79 150.012C260.79 119.927 260.652 116.151 260.121 104.335C259.567 92.5415 257.697 84.4916 254.974 77.4479C252.135 70.1619 248.35 63.9814 242.188 57.8239C236.026 51.6619 229.864 47.8769 222.571 45.0498C215.509 42.3103 207.455 40.4432 195.661 39.9032C183.845 39.3654 180.083 39.2339 149.988 39.2339H150.021ZM140.083 59.1971C143.032 59.1925 146.323 59.1971 150.021 59.1971C179.599 59.1971 183.104 59.3033 194.784 59.8341C205.585 60.328 211.447 62.1327 215.352 63.649C220.522 65.6569 224.208 68.0571 228.083 71.9343C231.96 75.8116 234.36 79.5042 236.373 84.6739C237.889 88.5742 239.696 94.4362 240.187 105.237C240.718 116.915 240.834 120.423 240.834 149.987C240.834 179.551 240.718 183.059 240.187 194.737C239.694 205.538 237.889 211.4 236.373 215.3C234.365 220.47 231.96 224.151 228.083 228.026C224.205 231.903 220.524 234.303 215.352 236.311C211.452 237.835 205.585 239.635 194.784 240.129C183.107 240.659 179.599 240.775 150.021 240.775C120.44 240.775 116.935 240.659 105.257 240.129C94.4559 239.63 88.5939 237.825 84.6866 236.309C79.517 234.301 75.8244 231.901 71.9471 228.024C68.0699 224.146 65.6697 220.463 63.6572 215.291C62.1409 211.391 60.3338 205.529 59.8422 194.728C59.3114 183.05 59.2053 179.542 59.2053 149.959C59.2053 120.377 59.3114 116.887 59.8422 105.209C60.3361 94.4086 62.1409 88.5465 63.6572 84.6416C65.665 79.4719 68.0699 75.7793 71.9471 71.902C75.8244 68.0248 79.517 65.6246 84.6866 63.6121C88.5916 62.0889 94.4559 60.2887 105.257 59.7926C115.476 59.331 119.437 59.1925 140.083 59.1694V59.1971ZM209.153 77.591C206.524 77.591 203.954 78.3707 201.767 79.8316C199.581 81.2926 197.877 83.369 196.871 85.7983C195.865 88.2276 195.602 90.9007 196.116 93.4795C196.629 96.0583 197.896 98.427 199.755 100.286C201.615 102.145 203.984 103.411 206.563 103.923C209.142 104.435 211.815 104.171 214.244 103.165C216.673 102.158 218.749 100.453 220.209 98.2665C221.669 96.0798 222.448 93.5092 222.447 90.8798C222.447 83.5407 216.492 77.5864 209.153 77.5864V77.591ZM150.021 93.1231C118.603 93.1231 93.1312 118.595 93.1312 150.012C93.1312 181.43 118.603 206.89 150.021 206.89C181.438 206.89 206.903 181.43 206.903 150.012C206.903 118.595 181.436 93.1231 150.018 93.1231H150.021ZM150.021 113.086C170.413 113.086 186.947 129.618 186.947 150.012C186.947 170.405 170.413 186.939 150.021 186.939C129.626 186.939 113.094 170.405 113.094 150.012C113.094 129.618 129.626 113.086 150.021 113.086V113.086Z" fill="white"/>
<path d="M391.063 68.1263C377.088 73.9712 361.72 90.4642 356.87 111.209C350.716 137.47 376.301 148.56 378.391 144.942C380.851 140.65 373.792 139.21 372.35 125.593C370.496 107.984 378.667 88.3111 388.977 79.6785C390.9 78.1005 390.807 80.3274 390.807 84.4324C390.807 91.8357 390.394 158.072 390.394 171.901C390.394 190.62 389.626 196.515 388.21 202.335C386.818 208.254 384.565 212.245 386.262 213.799C388.185 215.514 396.356 211.429 401.093 204.822C406.76 196.908 408.757 187.395 409.125 177.072C409.544 164.64 409.519 144.873 409.544 133.621C409.544 123.273 409.706 93.0203 409.382 74.807C409.288 70.3532 396.892 65.6881 391.063 68.1263V68.1263ZM1035.38 166.4C1033.38 166.4 1032.43 168.489 1031.66 171.994C1029.02 184.22 1026.23 186.978 1022.63 186.978C1018.62 186.978 1015.02 180.926 1014.07 168.813C1013.35 159.301 1013.46 141.761 1014.39 124.315C1014.58 120.741 1013.6 117.197 1003.99 113.692C999.838 112.207 993.821 109.98 990.831 117.216C982.355 137.612 979.059 153.85 978.267 160.417C978.249 160.761 977.83 160.811 977.756 160.024C977.274 154.754 976.157 145.173 976.019 125.033C975.97 121.139 975.159 117.772 970.795 115.034C967.987 113.274 959.442 110.118 956.353 113.854C953.707 116.916 950.622 125.131 947.395 134.874C944.793 142.808 942.983 148.191 942.983 148.191C942.983 148.191 943.001 126.797 943.052 118.676C943.052 115.614 940.961 114.596 940.336 114.409C937.479 113.574 931.836 112.207 929.47 112.207C926.524 112.207 925.825 113.854 925.825 116.243C925.825 116.543 925.338 144.382 925.338 163.849V166.586C923.735 175.543 918.447 187.7 912.711 187.7C906.976 187.7 904.26 182.617 904.26 159.419C904.26 145.891 904.678 140.002 904.865 130.209C904.979 124.57 905.209 120.235 905.19 119.237C905.141 116.243 899.916 114.709 897.501 114.154C895.066 113.574 892.951 113.387 891.283 113.456C888.962 113.598 887.314 115.127 887.314 117.265V120.51C884.318 115.781 879.463 112.482 876.216 111.533C867.534 108.958 858.454 111.253 851.606 120.81C846.176 128.425 842.9 137.027 841.625 149.396C840.671 158.446 840.976 167.609 842.668 175.357C840.627 184.102 836.864 187.7 832.756 187.7C826.765 187.7 822.451 177.952 822.938 161.086C823.287 150.001 825.491 142.229 827.926 130.951C828.974 126.148 828.113 123.646 826.003 121.208C824.074 119.025 819.942 117.89 814.025 119.256C809.819 120.254 803.764 121.321 798.259 122.137C798.259 122.137 798.584 120.81 798.864 118.47C800.281 106.195 786.93 107.193 782.68 111.116C780.127 113.456 778.386 116.218 777.737 121.184C776.694 129.074 783.123 132.785 783.123 132.785C781.013 142.435 775.858 155.054 770.496 164.173C767.638 169.069 765.454 172.668 762.625 176.517C762.599 175.101 762.599 173.661 762.599 172.25C762.55 151.947 762.806 135.966 762.924 130.209C763.042 124.57 763.273 120.348 763.273 119.35C763.224 117.167 761.95 116.312 759.255 115.289C756.888 114.365 754.08 113.692 751.177 113.456C747.532 113.18 745.304 115.127 745.373 117.423V120.51C742.358 115.781 737.502 112.482 734.3 111.533C725.593 108.958 716.518 111.253 709.67 120.81C704.259 128.425 700.683 139.072 699.66 149.278C698.735 158.839 698.898 166.911 700.196 173.734C698.804 180.553 694.834 187.7 690.333 187.7C684.598 187.7 681.322 182.617 681.322 159.419C681.322 145.891 681.74 140.002 681.951 130.209C682.064 124.57 682.276 120.235 682.251 119.237C682.227 116.243 677.007 114.709 674.568 114.154C672.039 113.554 669.831 113.367 668.158 113.456C665.93 113.642 664.375 115.614 664.375 117.123V120.51C661.36 115.781 656.505 112.482 653.278 111.533C644.596 108.958 635.589 111.303 628.692 120.81C624.191 127.009 620.546 133.896 618.667 149.165C618.156 153.574 617.9 157.699 617.925 161.553C616.134 172.5 608.219 185.124 601.766 185.124C597.958 185.124 594.337 177.79 594.337 162.133C594.337 141.299 595.636 111.602 595.867 108.727C595.867 108.727 604.038 108.584 605.642 108.564C609.705 108.54 613.419 108.633 618.83 108.353C621.57 108.215 624.191 98.4475 621.358 97.2186C620.104 96.6826 611.097 96.1959 607.521 96.1273C604.505 96.0584 596.167 95.4342 596.167 95.4342C596.167 95.4342 596.915 75.7361 597.078 73.6714C597.215 71.9065 594.987 71.0268 593.688 70.4907C590.55 69.1487 587.741 68.5197 584.445 67.8461C579.826 66.8974 577.76 67.8265 577.367 71.6952C576.762 77.5696 576.437 94.7853 576.437 94.7853C573.048 94.7853 561.557 94.1069 558.187 94.1069C555.059 94.1069 551.665 107.566 556.008 107.729C561.001 107.915 569.659 108.102 575.414 108.259C575.414 108.259 575.158 138.448 575.158 147.749V150.625C571.98 167.117 560.859 176.03 560.859 176.03C563.249 165.102 558.374 156.912 549.554 150.001C546.303 147.424 539.898 142.572 532.721 137.308C532.721 137.308 536.878 133.203 540.567 124.988C543.169 119.163 543.287 112.463 536.878 110.998C526.292 108.564 517.585 116.336 514.964 124.639C512.966 131.045 514.014 135.823 517.979 140.763L518.884 141.879C516.518 146.471 513.222 152.665 510.457 157.468C502.73 170.809 496.901 181.344 492.513 181.344C488.986 181.344 489.03 170.647 489.03 160.624C489.03 151.991 489.679 138.979 490.191 125.524C490.353 121.09 488.125 118.539 484.391 116.243C482.114 114.852 477.283 112.114 474.475 112.114C470.298 112.114 458.178 112.669 446.736 145.728C445.295 149.907 442.461 157.492 442.461 157.492L442.717 117.727C442.717 116.798 442.23 115.919 441.094 115.289C439.165 114.247 433.991 112.114 429.44 112.114C427.232 112.114 426.14 113.136 426.14 115.152L425.771 177.328C425.771 182.062 425.884 187.582 426.351 189.996C426.813 192.41 427.581 194.381 428.511 195.561C429.44 196.701 430.528 197.581 432.294 197.975C433.941 198.323 443.017 199.459 443.484 196.003C444.065 191.849 444.085 187.376 448.846 170.603C456.274 144.524 465.935 131.811 470.485 127.284C471.297 126.498 472.202 126.449 472.153 127.751C471.946 133.478 471.272 147.749 470.81 159.881C469.58 192.385 475.473 198.392 483.949 198.392C490.402 198.392 499.503 191.967 509.277 175.73C515.382 165.589 521.28 155.683 525.549 148.516C528.476 151.249 531.816 154.198 535.137 157.354C542.869 164.66 545.398 171.621 543.705 178.213C542.427 183.266 537.576 188.462 528.963 183.409C526.454 181.944 525.387 180.808 522.859 179.137C521.511 178.232 519.42 177.977 518.19 178.906C514.939 181.344 513.104 184.426 512.036 188.256C511.038 191.992 514.777 193.939 518.653 195.654C521.973 197.164 529.125 198.486 533.695 198.648C551.502 199.253 565.758 190.065 575.67 166.4C577.46 186.84 585.001 198.417 598.121 198.417C606.916 198.417 615.716 187.071 619.572 175.912C620.66 180.459 622.308 184.402 624.423 187.769C634.546 203.775 654.183 200.344 664.026 186.747C667.091 182.524 667.558 181.015 667.558 181.015C668.994 193.85 679.349 198.368 685.271 198.368C691.932 198.368 698.76 195.217 703.561 184.402C704.141 185.587 704.746 186.702 705.445 187.769C715.544 203.775 735.18 200.344 745.048 186.747C745.491 186.073 745.909 185.518 746.254 184.982L746.559 193.427C746.559 193.427 740.916 198.579 737.458 201.755C722.253 215.701 710.689 226.28 709.833 238.575C708.765 254.281 721.486 260.107 731.142 260.868C741.359 261.685 750.135 256.046 755.516 248.112C760.253 241.151 763.367 226.187 763.136 211.385C763.042 205.447 762.9 197.93 762.762 189.834C768.124 183.664 774.159 175.819 779.689 166.636C785.744 156.657 792.198 143.221 795.494 132.761C795.494 132.761 801.136 132.81 807.127 132.436C809.055 132.318 809.611 132.716 809.237 134.107C808.819 135.799 801.672 163.386 808.194 181.762C812.676 194.332 822.725 198.392 828.717 198.392C835.702 198.392 842.392 193.103 845.963 185.262C846.406 186.122 846.849 186.978 847.36 187.769C857.459 203.775 877.027 200.32 886.964 186.747C889.217 183.664 890.471 181.015 890.471 181.015C892.606 194.312 902.96 198.417 908.878 198.417C915.076 198.417 920.925 195.89 925.687 184.658C925.874 189.603 926.174 193.639 926.685 194.912C926.985 195.704 928.751 196.677 930.006 197.164C935.667 199.253 941.428 198.255 943.538 197.812C945.023 197.512 946.184 196.352 946.327 193.29C946.74 185.262 946.485 171.783 948.924 161.74C953.032 144.942 956.839 138.424 958.649 135.199C959.653 133.385 960.809 133.085 960.834 134.987C960.903 138.861 961.114 150.231 962.712 165.545C963.854 176.772 965.408 183.428 966.613 185.542C970.003 191.549 974.228 191.83 977.642 191.83C979.826 191.83 984.376 191.225 983.978 187.395C983.771 185.542 984.12 174.01 988.134 157.448C990.781 146.613 995.168 136.846 996.747 133.272C997.352 131.949 997.609 132.972 997.609 133.178C997.259 140.626 996.516 165.008 999.532 178.326C1003.67 196.401 1015.57 198.417 1019.73 198.417C1028.57 198.417 1035.84 191.687 1038.28 173.965C1038.88 169.693 1038 166.4 1035.38 166.4H1035.38ZM664.189 155.452C663.702 164.822 661.867 172.668 658.945 178.35C653.603 188.674 643.091 191.923 638.467 177.053C635.102 166.311 636.238 151.647 637.655 143.733C639.696 131.994 644.876 123.691 652.954 124.452C661.218 125.269 665.256 135.916 664.189 155.452V155.452ZM745.187 155.59C744.725 164.429 742.427 173.336 739.919 178.35C734.744 188.743 723.922 191.992 719.44 177.053C716.381 166.818 717.099 153.618 718.629 145.311C720.606 134.501 725.363 124.452 733.932 124.452C742.265 124.452 746.372 133.596 745.187 155.59V155.59ZM747.302 216.001C747.184 232.174 744.656 246.327 739.22 250.456C731.468 256.302 721.044 251.892 723.203 240.109C725.107 229.667 734.139 219.02 747.327 206.002C747.327 206.002 747.371 208.971 747.301 216.001H747.302ZM887.151 155.683C886.684 165.407 884.525 172.992 881.858 178.35C876.679 188.743 865.955 191.967 861.381 177.053C858.896 168.907 858.778 155.31 860.569 143.969C862.379 132.411 867.465 123.691 875.867 124.452C884.175 125.244 888.056 135.916 887.151 155.683Z" fill="#949494"/>
</svg>
