<svg width="1170" height="338" viewBox="0 0 1170 338" fill="none" xmlns="http://www.w3.org/2000/svg">
<path d="M169.101 0C98.5261 0 77.8855 0.0728062 73.8734 0.405634C59.3902 1.60954 50.3778 3.88993 40.5594 8.77834C32.9927 12.5357 27.0252 16.891 21.1357 22.9963C10.4098 34.1305 3.90929 47.8284 1.55609 64.111C0.41199 72.0157 0.0791622 73.6278 0.0115565 114.004C-0.0144457 127.463 0.0115565 145.175 0.0115565 168.934C0.0115565 239.452 0.0895631 260.071 0.427592 264.076C1.59769 278.169 3.80788 287.036 8.48827 296.735C17.433 315.3 34.5165 329.237 54.6422 334.438C61.6108 336.232 69.3074 337.22 79.1882 337.688C83.3746 337.87 126.044 338 168.74 338C211.435 338 254.131 337.948 258.213 337.74C269.654 337.202 276.298 336.31 283.644 334.412C293.623 331.853 302.923 327.146 310.895 320.62C318.866 314.095 325.317 305.907 329.797 296.63C334.387 287.166 336.714 277.961 337.767 264.604C337.996 261.691 338.092 215.259 338.092 168.889C338.092 122.512 337.988 76.1656 337.759 73.2534C336.693 59.6803 334.366 50.5535 329.628 40.9067C325.741 33.0098 321.425 27.1125 315.158 21.0826C303.977 10.4009 290.3 3.90033 273.999 1.54973C266.102 0.408235 264.529 0.0702059 224.122 0H169.101Z" fill="#949494"/>
<path d="M169.101 0C98.5261 0 77.8855 0.0728062 73.8734 0.405634C59.3902 1.60954 50.3778 3.88993 40.5594 8.77834C32.9927 12.5357 27.0252 16.891 21.1357 22.9963C10.4098 34.1305 3.90929 47.8284 1.55609 64.111C0.41199 72.0157 0.0791622 73.6278 0.0115565 114.004C-0.0144457 127.463 0.0115565 145.175 0.0115565 168.934C0.0115565 239.452 0.0895631 260.071 0.427592 264.076C1.59769 278.169 3.80788 287.036 8.48827 296.735C17.433 315.3 34.5165 329.237 54.6422 334.438C61.6108 336.232 69.3074 337.22 79.1882 337.688C83.3746 337.87 126.044 338 168.74 338C211.435 338 254.131 337.948 258.213 337.74C269.654 337.202 276.298 336.31 283.644 334.412C293.623 331.853 302.923 327.146 310.895 320.62C318.866 314.095 325.317 305.907 329.797 296.63C334.387 287.166 336.714 277.961 337.767 264.604C337.996 261.691 338.092 215.259 338.092 168.889C338.092 122.512 337.988 76.1656 337.759 73.2534C336.693 59.6803 334.366 50.5535 329.628 40.9067C325.741 33.0098 321.425 27.1125 315.158 21.0826C303.977 10.4009 290.3 3.90033 273.999 1.54973C266.102 0.408235 264.529 0.0702059 224.122 0H169.101Z" fill="#949494"/>
<path d="M169.023 44.2036C135.127 44.2036 130.873 44.3518 117.56 44.9577C104.273 45.5661 95.2031 47.6697 87.2672 50.7562C79.0583 53.944 72.0949 58.2084 65.1575 65.1484C58.2149 72.0858 53.9506 79.0492 50.7523 87.2555C47.658 95.1939 45.5519 104.266 44.9538 117.548C44.361 130.861 44.205 135.118 44.205 169.014C44.205 202.911 44.3558 207.152 44.959 220.465C45.5701 233.752 47.6737 242.821 50.7575 250.757C53.948 258.966 58.2123 265.93 65.1523 272.867C72.0871 279.81 79.0505 284.084 87.2542 287.272C95.1953 290.359 104.267 292.462 117.552 293.071C130.865 293.677 135.116 293.825 169.01 293.825C202.909 293.825 207.15 293.677 220.463 293.071C233.751 292.462 242.831 290.359 250.772 287.272C258.978 284.084 265.931 279.81 272.866 272.867C279.808 265.93 284.073 258.966 287.271 250.76C290.339 242.821 292.445 233.749 293.069 220.467C293.667 207.154 293.823 202.911 293.823 169.014C293.823 135.118 293.667 130.864 293.069 117.551C292.445 104.263 290.339 95.1939 287.271 87.2581C284.073 79.0492 279.808 72.0858 272.866 65.1484C265.923 58.2058 258.981 53.9414 250.764 50.7562C242.807 47.6697 233.732 45.5661 220.445 44.9577C207.132 44.3518 202.894 44.2036 168.987 44.2036H169.023ZM157.827 66.6955C161.15 66.6903 164.858 66.6955 169.023 66.6955C202.348 66.6955 206.297 66.8151 219.457 67.4132C231.626 67.9696 238.231 70.003 242.63 71.7113C248.455 73.9735 252.607 76.6778 256.973 81.0461C261.342 85.4145 264.046 89.5748 266.313 95.3993C268.021 99.7937 270.057 106.398 270.611 118.567C271.209 131.724 271.339 135.677 271.339 168.986C271.339 202.294 271.209 206.247 270.611 219.404C270.055 231.573 268.021 238.177 266.313 242.572C264.051 248.396 261.342 252.544 256.973 256.909C252.605 261.278 248.457 263.982 242.63 266.244C238.236 267.96 231.626 269.989 219.457 270.545C206.3 271.143 202.348 271.273 169.023 271.273C135.696 271.273 131.747 271.143 118.589 270.545C106.42 269.983 99.8159 267.95 95.4137 266.242C89.5892 263.979 85.4288 261.275 81.0605 256.907C76.6921 252.538 73.9879 248.388 71.7205 242.561C70.0121 238.167 67.9762 231.562 67.4223 219.393C66.8243 206.236 66.7047 202.284 66.7047 168.954C66.7047 135.625 66.8243 131.693 67.4223 118.536C67.9788 106.367 70.0121 99.7625 71.7205 95.3629C73.9827 89.5384 76.6921 85.3781 81.0605 81.0097C85.4288 76.6414 89.5892 73.9371 95.4137 71.6697C99.8133 69.9536 106.42 67.9254 118.589 67.3664C130.103 66.8463 134.565 66.6903 157.827 66.6643V66.6955ZM235.646 87.4193C232.684 87.4193 229.788 88.2978 227.325 89.9438C224.862 91.5897 222.942 93.9291 221.808 96.6662C220.675 99.4032 220.379 102.415 220.957 105.32C221.535 108.226 222.962 110.895 225.057 112.989C227.153 115.083 229.822 116.509 232.727 117.087C235.633 117.664 238.645 117.367 241.381 116.232C244.118 115.098 246.457 113.177 248.102 110.714C249.747 108.25 250.624 105.354 250.623 102.391C250.623 94.1226 243.915 87.4141 235.646 87.4141V87.4193ZM169.023 104.919C133.627 104.919 104.928 133.617 104.928 169.014C104.928 204.411 133.627 233.097 169.023 233.097C204.42 233.097 233.111 204.411 233.111 169.014C233.111 133.617 204.418 104.919 169.021 104.919H169.023ZM169.023 127.411C191.999 127.411 210.627 146.036 210.627 169.014C210.627 191.99 191.999 210.618 169.023 210.618C146.045 210.618 127.42 191.99 127.42 169.014C127.42 146.036 146.045 127.411 169.023 127.411V127.411Z" fill="white"/>
<path d="M440.597 76.7556C424.852 83.3408 407.538 101.923 402.074 125.295C395.14 154.883 423.965 167.378 426.321 163.301C429.092 158.466 421.139 156.843 419.515 141.502C417.426 121.662 426.631 99.4971 438.247 89.7711C440.414 87.9932 440.309 90.5022 440.309 95.1271C440.309 103.468 439.844 178.095 439.844 193.675C439.844 214.766 438.979 221.406 437.383 227.964C435.815 234.633 433.276 239.13 435.188 240.88C437.355 242.813 446.561 238.21 451.898 230.766C458.282 221.849 460.532 211.132 460.948 199.501C461.419 185.494 461.391 163.224 461.419 150.546C461.419 138.887 461.602 104.803 461.236 84.2825C461.131 79.2645 447.165 74.0086 440.597 76.7556V76.7556ZM1166.53 187.477C1164.28 187.477 1163.21 189.831 1162.34 193.78C1159.36 207.554 1156.22 210.662 1152.17 210.662C1147.64 210.662 1143.59 203.844 1142.52 190.196C1141.71 179.479 1141.84 159.718 1142.88 140.061C1143.09 136.035 1141.99 132.041 1131.16 128.093C1126.48 126.42 1119.71 123.911 1116.34 132.064C1106.79 155.043 1103.07 173.337 1102.18 180.737C1102.16 181.124 1101.69 181.18 1101.61 180.293C1101.06 174.356 1099.8 163.561 1099.65 140.87C1099.59 136.484 1098.68 132.689 1093.76 129.605C1090.6 127.622 1080.97 124.066 1077.49 128.275C1074.51 131.726 1071.03 140.981 1067.4 151.958C1064.47 160.897 1062.43 166.962 1062.43 166.962C1062.43 166.962 1062.45 142.858 1062.51 133.709C1062.51 130.258 1060.15 129.112 1059.45 128.901C1056.23 127.96 1049.87 126.42 1047.2 126.42C1043.88 126.42 1043.1 128.275 1043.1 130.967C1043.1 131.305 1042.55 162.67 1042.55 184.603V187.687C1040.74 197.779 1034.78 211.476 1028.32 211.476C1021.86 211.476 1018.8 205.749 1018.8 179.612C1018.8 164.37 1019.27 157.735 1019.48 146.702C1019.61 140.349 1019.87 135.464 1019.85 134.34C1019.79 130.967 1013.91 129.239 1011.18 128.613C1008.44 127.96 1006.06 127.749 1004.18 127.827C1001.56 127.987 999.707 129.71 999.707 132.119V135.775C996.332 130.446 990.861 126.73 987.204 125.661C977.422 122.759 967.191 125.345 959.477 136.112C953.358 144.692 949.667 154.384 948.231 168.319C947.156 178.516 947.5 188.84 949.406 197.568C947.106 207.421 942.867 211.476 938.239 211.476C931.488 211.476 926.628 200.493 927.177 181.49C927.57 169.001 930.053 160.244 932.796 147.538C933.977 142.127 933.007 139.308 930.63 136.561C928.457 134.102 923.802 132.822 917.134 134.362C912.396 135.487 905.574 136.688 899.372 137.608C899.372 137.608 899.738 136.112 900.054 133.476C901.65 119.646 886.608 120.771 881.82 125.19C878.943 127.827 876.981 130.939 876.25 136.533C875.075 145.423 882.318 149.604 882.318 149.604C879.941 160.477 874.133 174.694 868.092 184.968C864.872 190.485 862.411 194.539 859.224 198.876C859.195 197.28 859.195 195.658 859.195 194.068C859.14 171.194 859.428 153.188 859.561 146.702C859.694 140.349 859.955 135.592 859.955 134.467C859.899 132.008 858.464 131.044 855.427 129.893C852.761 128.851 849.596 128.093 846.326 127.827C842.22 127.517 839.709 129.71 839.787 132.296V135.775C836.39 130.446 830.919 126.73 827.311 125.661C817.502 122.759 807.277 125.345 799.562 136.112C793.465 144.692 789.436 156.688 788.283 168.186C787.242 178.959 787.425 188.053 788.888 195.741C787.319 203.422 782.846 211.476 777.775 211.476C771.313 211.476 767.622 205.749 767.622 179.612C767.622 164.37 768.093 157.735 768.332 146.702C768.459 140.349 768.697 135.464 768.67 134.34C768.642 130.967 762.762 129.239 760.013 128.613C757.164 127.937 754.676 127.727 752.792 127.827C750.281 128.037 748.529 130.258 748.529 131.958V135.775C745.132 130.446 739.662 126.73 736.026 125.661C726.245 122.759 716.097 125.401 708.327 136.112C703.256 143.097 699.149 150.856 697.032 168.059C696.455 173.027 696.167 177.674 696.195 182.016C694.177 194.35 685.26 208.573 677.989 208.573C673.699 208.573 669.62 200.31 669.62 182.669C669.62 159.197 671.083 125.739 671.344 122.499C671.344 122.499 680.55 122.338 682.356 122.316C686.934 122.288 691.118 122.393 697.215 122.078C700.302 121.922 703.256 110.917 700.063 109.533C698.65 108.929 688.502 108.381 684.473 108.303C681.076 108.226 671.682 107.522 671.682 107.522C671.682 107.522 672.524 85.3293 672.707 83.0031C672.862 81.0146 670.352 80.0235 668.889 79.4195C665.353 77.9075 662.188 77.1988 658.475 76.4399C653.271 75.3711 650.943 76.4179 650.5 80.7766C649.818 87.395 649.452 106.791 649.452 106.791C645.634 106.791 632.687 106.027 628.891 106.027C625.366 106.027 621.542 121.191 626.436 121.374C632.061 121.585 641.815 121.795 648.3 121.972C648.3 121.972 648.012 155.985 648.012 166.464V169.704C644.431 188.286 631.901 198.327 631.901 198.327C634.594 186.015 629.101 176.787 619.165 169.001C615.501 166.098 608.285 160.632 600.199 154.7C600.199 154.7 604.882 150.075 609.039 140.82C611.971 134.257 612.104 126.708 604.882 125.057C592.955 122.316 583.146 131.072 580.192 140.427C577.942 147.644 579.122 153.027 583.589 158.593L584.609 159.851C581.943 165.024 578.23 172.002 575.115 177.413C566.409 192.445 559.841 204.314 554.897 204.314C550.924 204.314 550.974 192.263 550.974 180.969C550.974 171.244 551.705 156.583 552.282 141.424C552.465 136.428 549.954 133.553 545.748 130.967C543.182 129.4 537.739 126.315 534.575 126.315C529.869 126.315 516.214 126.94 503.322 164.187C501.699 168.895 498.506 177.441 498.506 177.441L498.794 132.64C498.794 131.593 498.246 130.602 496.965 129.893C494.793 128.718 488.963 126.315 483.836 126.315C481.348 126.315 480.117 127.467 480.117 129.738L479.702 199.789C479.702 205.123 479.829 211.343 480.356 214.062C480.876 216.781 481.741 219.003 482.788 220.332C483.836 221.617 485.061 222.608 487.051 223.051C488.907 223.444 499.132 224.724 499.659 220.83C500.313 216.15 500.335 211.11 505.7 192.213C514.069 162.83 524.953 148.508 530.08 143.407C530.994 142.521 532.014 142.465 531.959 143.933C531.726 150.385 530.967 166.464 530.446 180.133C529.06 216.754 535.7 223.522 545.249 223.522C552.52 223.522 562.773 216.283 573.785 197.989C580.663 186.563 587.308 175.403 592.119 167.328C595.416 170.407 599.18 173.73 602.921 177.286C611.633 185.517 614.481 193.359 612.575 200.786C611.134 206.48 605.669 212.334 595.965 206.64C593.138 204.99 591.936 203.711 589.087 201.827C587.569 200.808 585.213 200.521 583.828 201.567C580.164 204.314 578.097 207.787 576.894 212.102C575.77 216.311 579.981 218.504 584.349 220.437C588.09 222.138 596.148 223.627 601.297 223.81C621.359 224.491 637.42 214.14 648.588 187.477C650.605 210.507 659.101 223.55 673.882 223.55C683.792 223.55 693.707 210.767 698.051 198.194C699.276 203.317 701.133 207.759 703.516 211.553C714.922 229.587 737.046 225.721 748.136 210.401C751.589 205.644 752.115 203.943 752.115 203.943C753.733 218.404 765.4 223.494 772.072 223.494C779.577 223.494 787.269 219.944 792.678 207.759C793.332 209.094 794.014 210.351 794.801 211.553C806.179 229.587 828.303 225.721 839.421 210.401C839.92 209.643 840.391 209.017 840.779 208.413L841.123 217.928C841.123 217.928 834.766 223.733 830.87 227.31C813.739 243.023 800.709 254.942 799.745 268.794C798.542 286.49 812.874 293.053 823.753 293.912C835.264 294.831 845.152 288.478 851.215 279.539C856.552 271.696 860.06 254.837 859.8 238.16C859.694 231.47 859.534 223.002 859.378 213.88C865.419 206.928 872.22 198.089 878.449 187.743C885.271 176.5 892.542 161.363 896.256 149.577C896.256 149.577 902.613 149.632 909.363 149.211C911.536 149.078 912.162 149.527 911.741 151.094C911.27 153 903.217 184.082 910.566 204.785C915.615 218.947 926.937 223.522 933.688 223.522C941.557 223.522 949.095 217.562 953.119 208.729C953.617 209.698 954.116 210.661 954.692 211.553C966.071 229.587 988.117 225.693 999.312 210.401C1001.85 206.928 1003.26 203.943 1003.26 203.943C1005.67 218.925 1017.34 223.55 1024 223.55C1030.99 223.55 1037.58 220.703 1042.94 208.047C1043.15 213.619 1043.49 218.166 1044.07 219.601C1044.4 220.493 1046.39 221.589 1047.81 222.138C1054.19 224.491 1060.68 223.367 1063.05 222.869C1064.73 222.531 1066.03 221.224 1066.2 217.773C1066.66 208.729 1066.37 193.542 1069.12 182.227C1073.75 163.301 1078.04 155.957 1080.08 152.324C1081.21 150.28 1082.51 149.942 1082.54 152.086C1082.62 156.45 1082.85 169.261 1084.66 186.513C1085.94 199.163 1087.69 206.663 1089.05 209.044C1092.87 215.812 1097.63 216.128 1101.48 216.128C1103.94 216.128 1109.06 215.447 1108.61 211.132C1108.38 209.044 1108.78 196.051 1113.3 177.391C1116.28 165.184 1121.22 154.179 1123 150.153C1123.68 148.663 1123.97 149.815 1123.97 150.047C1123.58 158.438 1122.74 185.91 1126.14 200.913C1130.8 221.279 1144.21 223.55 1148.9 223.55C1158.86 223.55 1167.05 215.967 1169.79 196.001C1170.48 191.188 1169.48 187.477 1166.52 187.477H1166.53ZM748.319 175.143C747.77 185.699 745.703 194.539 742.411 200.941C736.392 212.572 724.549 216.233 719.339 199.479C715.548 187.377 716.829 170.856 718.425 161.939C720.725 148.713 726.56 139.358 735.661 140.216C744.972 141.136 749.522 153.133 748.319 175.143V175.143ZM839.577 175.298C839.056 185.256 836.468 195.292 833.642 200.941C827.811 212.65 815.618 216.311 810.569 199.479C807.122 187.948 807.932 173.077 809.655 163.717C811.883 151.537 817.242 140.216 826.897 140.216C836.285 140.216 840.913 150.518 839.577 175.298V175.298ZM841.96 243.361C841.827 261.583 838.979 277.528 832.855 282.181C824.12 288.767 812.376 283.798 814.809 270.522C816.954 258.759 827.129 246.762 841.988 232.096C841.988 232.096 842.038 235.441 841.959 243.361H841.96ZM999.524 175.403C998.997 186.358 996.564 194.904 993.56 200.941C987.725 212.65 975.643 216.283 970.489 199.479C967.69 190.302 967.557 174.982 969.574 162.205C971.613 149.183 977.344 139.358 986.81 140.216C996.171 141.108 1000.54 153.133 999.524 175.403Z" fill="#949494"/>
</svg>
