<svg width="924" height="226" viewBox="0 0 924 226" fill="none" xmlns="http://www.w3.org/2000/svg">
<path fill-rule="evenodd" clip-rule="evenodd" d="M464.896 116.848C465.896 119.343 466.379 122.016 466.315 124.703H422.567C423.023 118.922 425.733 113.551 430.112 109.749C434.491 105.947 440.189 104.018 445.977 104.378C448.664 104.313 451.337 104.794 453.833 105.792C456.329 106.791 458.597 108.285 460.498 110.185C462.4 112.086 463.896 114.352 464.896 116.848ZM474.116 187.692C481.951 184.021 488.872 178.653 494.376 171.978L471.174 154.969C468.633 158.941 465.139 162.215 461.01 164.492C456.881 166.769 452.248 167.977 447.533 168.006C441.566 168.137 435.754 166.107 431.166 162.29C426.578 158.473 423.524 153.127 422.567 147.236H499.456V136.85C499.456 102.591 480.039 80.5065 449.075 80.5065C415.945 80.5065 389.426 102.608 389.426 136.85C389.426 171.091 415.949 193.203 449.075 193.203C457.728 193.245 466.281 191.363 474.116 187.692ZM542.003 136.732C542.003 120.618 551.941 109.558 568.504 109.558C585.089 109.558 595.03 120.59 595.03 136.732C595.03 152.875 585.071 163.917 568.504 163.917C551.938 163.917 542.003 152.847 542.003 136.732ZM595.03 190.432H625.527L625.524 33.0489H592.366V94.544H591.931C584.419 84.147 571.614 80.3961 557.904 80.3961C527.403 80.3961 508.849 107.791 508.849 137.626C508.849 170.111 529.815 193.082 561.644 193.082C568.057 193.006 574.365 191.451 580.077 188.537C585.789 185.624 590.752 181.43 594.578 176.284H595.03V190.432ZM816.038 190.494H849.164L849.178 131.97C849.178 103.24 842.988 81.1552 809.412 81.1552C803.113 80.9214 796.867 82.4006 791.342 85.4352C785.817 88.4699 781.218 92.9464 778.035 98.3881H777.59V83.8088H745.788V190.491H778.915V137.716C778.915 123.799 781.555 110.321 798.808 110.321C815.817 110.321 816.038 126.246 816.038 138.616V190.494ZM697.729 65.9882C700.891 68.1 704.608 69.2268 708.41 69.2261C710.935 69.2257 713.434 68.728 715.766 67.7615C718.099 66.7949 720.218 65.3786 722.002 63.5931C723.787 61.8077 725.203 59.6882 726.168 57.3557C727.134 55.0232 727.631 52.5233 727.63 49.9988C727.63 46.1966 726.502 42.4801 724.389 39.3191C722.276 36.1581 719.273 33.6947 715.76 32.2403C712.247 30.7859 708.382 30.4059 704.653 31.1484C700.924 31.8908 697.499 33.7223 694.811 36.4113C692.123 39.1003 690.292 42.526 689.551 46.2552C688.81 49.9844 689.192 53.8496 690.647 57.3621C692.103 60.8745 694.567 63.8764 697.729 65.9882ZM691.812 190.494H724.973V83.8088H691.812V190.494ZM675.166 0.0152264H865.68V0.00142358C870.012 -0.0557188 874.19 1.60944 877.296 4.63105C880.402 7.65267 882.181 11.7836 882.243 16.1162V207.434C882.183 211.769 880.405 215.902 877.299 218.927C874.194 221.952 870.014 223.62 865.68 223.566H675.166C670.84 223.612 666.672 221.939 663.579 218.914C660.485 215.889 658.719 211.76 658.668 207.434V16.13C658.721 11.806 660.488 7.67973 663.582 4.65804C666.675 1.63635 670.842 -0.0335713 675.166 0.0152264ZM896.974 199.202C899.804 196.331 903.655 194.698 907.685 194.659H907.978C912.009 194.698 915.86 196.331 918.689 199.202C921.519 202.073 923.096 205.947 923.077 209.977C923.057 214.008 921.443 217.867 918.586 220.71C915.729 223.553 911.862 225.149 907.832 225.149C903.801 225.149 899.935 223.553 897.078 220.71C894.221 217.867 892.606 214.008 892.587 209.977C892.567 205.947 894.145 202.073 896.974 199.202ZM900.222 221.275C902.444 222.707 905.041 223.448 907.685 223.404L907.689 223.397H908.034C911.502 223.322 914.798 221.872 917.197 219.367C919.596 216.863 920.903 213.507 920.829 210.039V209.815C920.785 207.171 919.958 204.6 918.453 202.427C916.947 200.253 914.831 198.575 912.372 197.604C909.913 196.633 907.221 196.413 904.637 196.972C902.052 197.531 899.692 198.843 897.854 200.744C896.016 202.644 894.782 205.047 894.31 207.648C893.837 210.25 894.147 212.933 895.199 215.358C896.251 217.784 897.999 219.843 900.222 221.275ZM911.756 210.545C911.234 210.765 910.671 210.876 910.104 210.871L909.783 210.916L914.576 218.162H912.078L907.623 211.161L907.557 211.074H904.686V218.162H902.35V201.902H908.562C912.406 201.902 914.279 203.386 914.279 206.492C914.312 207.058 914.228 207.625 914.032 208.158C913.837 208.69 913.534 209.177 913.142 209.588C912.751 209.998 912.279 210.324 911.756 210.545ZM904.693 209.242H907.388C909.876 209.242 911.923 209.028 911.923 206.357C911.923 204.035 909.9 203.745 908.127 203.745H904.693V209.242ZM34.4829 33.0833H0V190.512H98.3211V158.689H34.4829V33.0833ZM146.693 83.7708H113.566V190.453H146.693V83.7708ZM140.805 33.9737C137.645 31.8617 133.93 30.7341 130.13 30.7334C127.606 30.7329 125.107 31.2297 122.775 32.1952C120.443 33.1608 118.324 34.5762 116.539 36.3607C114.754 38.1452 113.338 40.2638 112.372 42.5956C111.406 44.9273 110.909 47.4265 110.909 49.9504C110.909 53.751 112.036 57.4663 114.148 60.6264C116.259 63.7866 119.26 66.2497 122.771 67.7043C126.283 69.1589 130.146 69.5396 133.874 68.7984C137.602 68.0572 141.026 66.2273 143.714 63.5401C146.401 60.8529 148.232 57.4291 148.974 53.7016C149.715 49.9741 149.335 46.1103 147.881 42.5988C146.427 39.0873 143.965 36.0857 140.805 33.9737ZM318.394 33.0592H285.267L285.274 190.491H318.4V137.764H318.835L354.001 190.498H395.638L353.073 133.113L396.552 83.7225H355.937L318.394 127.143V33.0592ZM196.873 83.7812H165.061L165.085 190.432H198.212V137.678C198.212 123.765 200.869 110.283 218.088 110.283C235.114 110.283 235.342 126.197 235.342 138.578V190.446H268.469V131.943C268.469 103.229 262.285 81.1276 228.692 81.1276C222.393 80.89 216.148 82.3676 210.624 85.4028C205.099 88.4379 200.503 92.9165 197.325 98.3604H196.873V83.7812Z" fill="#949494"/>
</svg>
