<svg xmlns="http://www.w3.org/2000/svg" width="924" height="226" fill="none" xmlns:v="https://vecta.io/nano"><path fill-rule="evenodd" d="M464.896 116.848c1 2.495 1.483 5.168 1.419 7.855h-43.748c.456-5.781 3.166-11.152 7.545-14.954s10.077-5.731 15.865-5.371a19.87 19.87 0 0 1 7.856 1.414c2.496.999 4.764 2.493 6.665 4.393s3.398 4.167 4.398 6.663zm9.22 70.844c7.835-3.671 14.756-9.039 20.26-15.714l-23.202-17.009c-2.541 3.972-6.035 7.246-10.164 9.523a28.27 28.27 0 0 1-13.477 3.514 24.74 24.74 0 0 1-16.367-5.716c-4.588-3.817-7.642-9.163-8.599-15.054h76.889V136.85c0-34.259-19.417-56.343-50.381-56.343-33.13 0-59.649 22.102-59.649 56.343s26.523 56.353 59.649 56.353a58.35 58.35 0 0 0 25.041-5.511zm67.887-50.96c0-16.114 9.938-27.174 26.501-27.174 16.585 0 26.526 11.032 26.526 27.174s-9.959 27.185-26.526 27.185-26.501-11.07-26.501-27.185zm53.027 53.7h30.497l-.003-157.383h-33.158v61.495h-.435c-7.512-10.397-20.317-14.148-34.027-14.148-30.501 0-49.055 27.395-49.055 57.23 0 32.485 20.966 55.456 52.795 55.456 6.413-.076 12.721-1.631 18.433-4.545a41.65 41.65 0 0 0 14.501-12.253h.452v14.148zm221.008.062h33.126l.014-58.524c0-28.73-6.19-50.815-39.766-50.815-6.299-.234-12.545 1.245-18.07 4.28a34.86 34.86 0 0 0-13.307 12.953h-.445V83.809h-31.802v106.682h33.127v-52.775c0-13.917 2.64-27.395 19.893-27.395 17.009 0 17.23 15.925 17.23 28.295v51.878zM697.729 65.988c3.162 2.112 6.879 3.239 10.681 3.238a19.22 19.22 0 0 0 7.356-1.465c2.333-.967 4.452-2.383 6.236-4.168a19.21 19.21 0 0 0 4.166-6.237c.966-2.332 1.463-4.832 1.462-7.357 0-3.802-1.128-7.519-3.241-10.68s-5.116-5.624-8.629-7.079a19.22 19.22 0 0 0-11.107-1.092c-3.729.742-7.154 2.574-9.842 5.263s-4.519 6.115-5.26 9.844a19.23 19.23 0 0 0 1.096 11.107c1.456 3.512 3.92 6.514 7.082 8.626zm-5.917 124.506h33.161V83.809h-33.161v106.685zM675.166.015H865.68V.001a16.35 16.35 0 0 1 11.616 4.63 16.35 16.35 0 0 1 4.947 11.485v191.318a16.36 16.36 0 0 1-16.563 16.132H675.166c-4.326.046-8.494-1.627-11.587-4.652s-4.86-7.154-4.911-11.48V16.13c.053-4.324 1.82-8.45 4.914-11.472s7.26-4.692 11.584-4.643zm221.808 199.187c2.83-2.871 6.681-4.504 10.711-4.543h.293c4.031.039 7.882 1.672 10.711 4.543s4.407 6.745 4.388 10.775-1.634 7.89-4.491 10.733-6.724 4.439-10.754 4.439-7.897-1.596-10.754-4.439-4.472-6.702-4.491-10.733 1.558-7.904 4.387-10.775zm3.248 22.073c2.222 1.432 4.819 2.173 7.463 2.129l.004-.007h.345a13.08 13.08 0 0 0 12.795-13.358v-.224c-.044-2.644-.871-5.215-2.376-7.388a13.37 13.37 0 0 0-6.081-4.823c-2.459-.971-5.151-1.191-7.735-.632a13.36 13.36 0 0 0-6.783 3.772c-1.838 1.9-3.072 4.303-3.544 6.904s-.163 5.285.889 7.71a13.36 13.36 0 0 0 5.023 5.917zm11.534-10.73a4.16 4.16 0 0 1-1.652.326l-.321.045 4.793 7.246h-2.498l-4.455-7.001-.066-.087h-2.871v7.088h-2.336v-16.26h6.212c3.844 0 5.717 1.484 5.717 4.59a4.13 4.13 0 0 1-.247 1.666c-.195.532-.498 1.019-.89 1.43s-.863.736-1.386.957zm-7.063-1.303h2.695c2.488 0 4.535-.214 4.535-2.885 0-2.322-2.023-2.612-3.796-2.612h-3.434v5.497zM34.483 33.083H0v157.429h98.321v-31.823H34.483V33.083zm112.21 50.687h-33.127v106.682h33.127V83.771zm-5.888-49.797a19.22 19.22 0 0 0-10.675-3.24c-2.524 0-5.023.496-7.355 1.462a19.22 19.22 0 0 0-6.236 4.166c-1.785 1.785-3.201 3.903-4.167 6.235s-1.463 4.831-1.463 7.355c0 3.801 1.127 7.516 3.239 10.676s5.112 5.623 8.623 7.078a19.22 19.22 0 0 0 20.943-4.164c2.687-2.687 4.518-6.111 5.26-9.839s.361-7.591-1.093-11.103-3.916-6.513-7.076-8.625zm177.589-.915h-33.127l.007 157.432H318.4v-52.727h.435l35.166 52.734h41.637l-42.565-57.385 43.479-49.39h-40.615l-37.543 43.421V33.059zM196.873 83.781h-31.812l.024 106.651h33.127v-52.754c0-13.913 2.657-27.395 19.876-27.395 17.026 0 17.254 15.914 17.254 28.295v51.868h33.127v-58.503c0-28.714-6.184-50.815-39.777-50.815-6.299-.238-12.544 1.24-18.068 4.275a34.8 34.8 0 0 0-13.299 12.958h-.452V83.781z" fill="#0a66c2"/></svg>