<svg width="1230" height="300" viewBox="0 0 1230 300" fill="none" xmlns="http://www.w3.org/2000/svg">
<path fill-rule="evenodd" clip-rule="evenodd" d="M619.45 155.694C620.783 159.019 621.426 162.58 621.342 166.161H563.049C563.657 158.457 567.267 151.301 573.102 146.235C578.937 141.169 586.529 138.599 594.242 139.079C597.823 138.992 601.384 139.633 604.71 140.963C608.036 142.293 611.057 144.285 613.591 146.817C616.125 149.349 618.118 152.369 619.45 155.694ZM631.736 250.09C642.176 245.199 651.397 238.047 658.732 229.152L627.815 206.489C624.43 211.782 619.774 216.143 614.273 219.177C608.771 222.211 602.598 223.821 596.315 223.86C588.365 224.034 580.62 221.329 574.507 216.243C568.394 211.158 564.325 204.034 563.049 196.185H665.5V182.345C665.5 136.697 639.627 107.271 598.37 107.271C554.226 107.271 518.891 136.72 518.891 182.345C518.891 227.97 554.231 257.434 598.37 257.434C609.899 257.49 621.296 254.982 631.736 250.09ZM722.192 182.189C722.192 160.717 735.434 145.981 757.504 145.981C779.601 145.981 792.848 160.68 792.848 182.189C792.848 203.698 779.578 218.411 757.504 218.411C735.429 218.411 722.192 203.661 722.192 182.189ZM792.848 253.742H833.484L833.479 44.036H789.298V125.975H788.719C778.709 112.122 761.646 107.124 743.379 107.124C702.738 107.124 678.015 143.626 678.015 183.38C678.015 226.665 705.952 257.273 748.363 257.273C756.907 257.172 765.312 255.099 772.924 251.217C780.535 247.334 787.147 241.747 792.245 234.89H792.848V253.742ZM1087.33 253.824H1131.47L1131.49 175.844C1131.49 137.562 1123.24 108.135 1078.5 108.135C1070.11 107.824 1061.79 109.795 1054.42 113.838C1047.06 117.882 1040.93 123.847 1036.69 131.097H1036.1V111.671H993.725V253.82H1037.87V183.499C1037.87 164.956 1041.38 146.997 1064.37 146.997C1087.04 146.997 1087.33 168.216 1087.33 184.7V253.824ZM929.689 87.926C933.902 90.7399 938.855 92.2413 943.921 92.2404C947.285 92.2398 950.615 91.5766 953.723 90.2888C956.831 89.001 959.654 87.1137 962.032 84.7347C964.41 82.3557 966.296 79.5316 967.583 76.4236C968.87 73.3156 969.532 69.9847 969.531 66.6209C969.53 61.5547 968.027 56.6026 965.212 52.3908C962.396 48.1789 958.395 44.8965 953.714 42.9586C949.034 41.0207 943.883 40.5144 938.915 41.5036C933.946 42.4929 929.382 44.9333 925.801 48.5162C922.219 52.0992 919.78 56.6638 918.793 61.6327C917.805 66.6017 918.313 71.7519 920.253 76.4321C922.193 81.1123 925.476 85.1122 929.689 87.926ZM921.805 253.824H965.991V111.671H921.805V253.824ZM899.625 0.0202884H1153.47V0.00189685C1159.25 -0.0742426 1164.82 2.14449 1168.95 6.17065C1173.09 10.1968 1175.46 15.701 1175.54 21.4741V276.395C1175.46 282.171 1173.1 287.679 1168.96 291.71C1164.82 295.74 1159.25 297.963 1153.47 297.891H899.625C893.86 297.952 888.307 295.723 884.185 291.692C880.063 287.662 877.71 282.16 877.642 276.395V21.4925C877.713 15.7309 880.067 10.2329 884.189 6.20661C888.311 2.18036 893.863 -0.0447321 899.625 0.0202884ZM1195.17 265.427C1198.94 261.602 1204.07 259.426 1209.44 259.374H1209.84C1215.21 259.426 1220.34 261.602 1224.11 265.427C1227.88 269.252 1229.98 274.414 1229.95 279.784C1229.93 285.155 1227.78 290.297 1223.97 294.085C1220.16 297.873 1215.01 300 1209.64 300C1204.27 300 1199.12 297.873 1195.31 294.085C1191.5 290.297 1189.35 285.155 1189.33 279.784C1189.3 274.414 1191.4 269.252 1195.17 265.427ZM1199.5 294.838C1202.46 296.746 1205.92 297.733 1209.44 297.675L1209.45 297.665H1209.91C1214.53 297.565 1218.92 295.634 1222.12 292.296C1225.32 288.959 1227.06 284.488 1226.96 279.867V279.568C1226.9 276.046 1225.8 272.62 1223.79 269.723C1221.79 266.827 1218.97 264.591 1215.69 263.297C1212.41 262.003 1208.83 261.71 1205.38 262.455C1201.94 263.2 1198.79 264.949 1196.35 267.481C1193.9 270.013 1192.25 273.215 1191.62 276.681C1190.99 280.147 1191.41 283.722 1192.81 286.954C1194.21 290.186 1196.54 292.93 1199.5 294.838ZM1214.87 280.54C1214.17 280.835 1213.42 280.982 1212.67 280.975L1212.24 281.035L1218.63 290.69H1215.3L1209.36 281.361L1209.28 281.246H1205.45V290.69H1202.34V269.025H1210.61C1215.74 269.025 1218.23 271.002 1218.23 275.14C1218.28 275.895 1218.16 276.65 1217.9 277.36C1217.64 278.07 1217.24 278.718 1216.72 279.265C1216.19 279.812 1215.57 280.246 1214.87 280.54ZM1205.46 278.805H1209.05C1212.36 278.805 1215.09 278.52 1215.09 274.961C1215.09 271.866 1212.4 271.48 1210.03 271.48H1205.46V278.805ZM45.9468 44.0819H0V253.847H131.008V211.445H45.9468V44.0819ZM195.461 111.62H151.321V253.769H195.461V111.62ZM187.616 45.2683C183.406 42.4542 178.455 40.9516 173.391 40.9507C170.028 40.9501 166.698 41.612 163.591 42.8985C160.484 44.1851 157.661 46.0711 155.282 48.4488C152.904 50.8266 151.018 53.6496 149.731 56.7565C148.444 59.8634 147.781 63.1934 147.781 66.5564C147.781 71.6206 149.283 76.571 152.096 80.7817C154.909 84.9924 158.908 88.2744 163.587 90.2126C168.265 92.1507 173.414 92.6581 178.38 91.6704C183.347 90.6828 187.91 88.2446 191.491 84.664C195.072 81.0835 197.511 76.5214 198.5 71.5547C199.488 66.5879 198.982 61.4396 197.045 56.7607C195.107 52.0818 191.826 48.0824 187.616 45.2683ZM424.244 44.0497H380.104L380.113 253.82H424.253V183.564H424.832L471.689 253.829H527.167L470.452 177.366L528.386 111.556H474.269L424.244 169.411V44.0497ZM262.324 111.634H219.936L219.968 253.742H264.108V183.449C264.108 164.91 267.648 146.946 290.592 146.946C313.278 146.946 313.581 168.152 313.581 184.649V253.76H357.721V175.807C357.721 137.548 349.482 108.098 304.721 108.098C296.328 107.782 288.007 109.751 280.646 113.795C273.285 117.839 267.16 123.807 262.926 131.06H262.324V111.634Z" fill="#949494"/>
</svg>
