<svg xmlns="http://www.w3.org/2000/svg" width="1180" height="338" fill="none" xmlns:v="https://vecta.io/nano"><path d="M169 338c93.336 0 169-75.664 169-169S262.336 0 169 0 0 75.664 0 169s75.664 169 169 169z" fill="url(#A)"/><path d="M70.335 167.535l113.807-46.891c11.234-4.884 49.332-20.514 49.332-20.514s17.584-6.838 16.118 9.769c-.488 6.838-4.395 30.771-8.303 56.659l-12.211 76.685s-.977 11.234-9.28 13.188-21.98-6.839-24.422-8.792c-1.954-1.466-36.633-23.445-49.333-34.191-3.419-2.931-7.326-8.792.489-15.63 17.584-16.119 38.587-36.145 51.286-48.844 5.861-5.861 11.722-19.538-12.699-2.931l-68.87 46.402s-7.815 4.884-22.469.488-31.749-10.257-31.749-10.257-11.722-7.326 8.304-15.141h0z" fill="#fff"/><path d="M1061.13 141.119v-10.346c0-1.127.35-2.759-.68-2.759h-22.27c-.52 0-.68.16-.68.69v96.327c0 .53.16.69.68.69h24.31c.99 0 .7-1.232.69-2.295l-.01-46.903c0-10.326.04-21.931 9.36-28.006 6.38-4.161 20.26-5.389 22.31 7.903 1.37 8.783.81 45.555.81 58.036v8.97c-.02 1.063-.3 2.295.68 2.295h24.31c.99 0 .7-1.232.69-2.295l-.01-46.904c0-7.437.36-14.982 3.48-21.306 5.65-11.455 23.39-13.163 27.1-1.6 1.43 4.442 1.68 12.218 1.68 18.079v54.026h25.44V159.74c0-5.221-.66-10.274-1.77-14.306-.58-2.1-1.43-3.864-2.45-5.566l-2.42-3.527c-6.15-7.099-13.54-10.396-25.39-10.396-7.63 0-14.55 2.789-20.38 7.192-.61.457-.93.747-1.53 1.214-2.98 2.344-6.76 6.862-6.94 6.997-9.34-17.869-33.48-19.61-48.32-8.443-2.48 1.869-5.16 4.337-7.28 6.659-.59.651-.69 1.063-1.41 1.554v.001zm-289.844 35.637c0-8.548.391-15.723 5.038-22.719.49-.737.826-1 1.321-1.651 6.523-8.571 22.607-9.478 30.636 1.41 5.268 7.144 5.482 15.011 5.482 24.339 0 7.171-2.374 14.114-5.447 18.167-1.155 1.525-2.834 3.183-4.351 4.333-.661.501-1.057.76-1.773 1.193-4.041 2.446-6.836 2.745-11.598 2.745-6.52 0-12.133-4.674-14.722-8.78-2.898-4.596-4.586-11.572-4.586-19.037h0zm25.001 88.28h-7.894c-5.141-.182-10.177-.729-14.514-1.705-8.866-1.994-16.692-5.888-21.491-13.653-3.918-6.339-4.044-10.266-4.044-17.747l21.934 2.63 3.632.462c1.193.177 2.545.356 3.736.356 0 1.668.786 3.735 1.356 4.835 2.096 4.046 7.957 5.051 12.727 5.051 8.399 0 16.597-.873 20.144-8.579 2.237-4.86 1.435-18.969 1.435-26.365-.557.377-.834.899-1.305 1.438-3.238 3.703-2.645 3.384-6.47 6.555-.995.825-1.854 1.42-2.898 2.125-2.054 1.388-4.542 2.556-7.07 3.42-5.232 1.786-7.843 1.635-13.149 1.635-8.546 0-19.418-5.105-24.498-11.529-1.553-1.964-1.711-1.769-3.67-4.562-3.074-4.381-5.419-9.403-6.993-15.223-2.424-8.962-2.708-20.498-1.398-30.057 1.886-13.757 7.424-24.054 18.159-31.739l3.405-2.071c11.23-5.908 25.048-5.96 36.111.472 3.48 2.024 6.421 4.883 9.042 7.861l2.552 2.935v-13.564h23.169c.523 0 .681.16.681.69v88.741c0 6.905-.545 15.175-1.952 20.784-1.221 4.868-3.828 11.454-7.417 15.023-1.154 1.148-1.474 1.702-2.895 2.817-5.651 4.434-12.684 7.072-19.951 8.085-3.239.451-6.804.752-10.474.879h0zm174.209-55.637c-5.047 0-7.751-.16-11.642-4.08-5.083-5.123-5.297-13.033.506-17.536 2.425-1.882 5.795-2.845 9.273-3.719 3.338-.839 7.043-1.733 10.513-2.463l7.606-1.958c.894-.257 1.901-.482 2.597-.82 0 11.796 1.099 21.734-9.466 27.663-2.402 1.348-5.792 2.913-9.387 2.913h0zm-38.388-55.635c.882.074 1.963.335 2.894.519l14.431 2.637 2.91.503c.842.169 2.06.46 2.934.479.835-1.597 1.227-3.268 2.224-4.875 2.054-3.313 4.1-5.276 7.964-6.423 5.515-1.637 16.454-1.011 20.08 2.274 3.309 2.999 3.804 7.015 3.804 13.162l-7.27 2.298c-2.609.692-5 1.303-7.852 1.938-10.908 2.432-20.744 3.494-30.687 8.485-6.469 3.247-11.277 9.352-13.072 16.427-.598 2.356-1.16 5.948-.901 8.58.364 3.708-.028 4.457 1.316 8.572 6.689 20.486 32.682 23.367 48.169 15.467 3.039-1.551 8.361-4.913 10.81-7.45.546-.565.766-1.003 1.531-1.21l2.186 7.444c1.308 3.969.079 3.131 6.671 3.131h19.54c-.07-.758-.87-2.345-1.22-3.14-1.39-3.161-2.55-6.657-3.27-10.018-3.32-15.515 1.52-51.865-2.83-68.18-2.37-8.9-11.38-14.617-19.894-16.646-14.073-3.355-39.673-2.872-49.513 6.998-3.149 3.158-5.283 5.454-7.322 9.603-1.578 3.212-2.766 5.657-3.634 9.426l.001-.001zm-265.309 13.105c0-6.091 2.228-11.573 5.167-14.772 1.88-2.046 2.687-3.004 5.581-4.466 5.123-2.588 11.375-2.432 16.359.079 1.717.864 3.137 2.013 4.499 3.264 3.247 2.981 5.197 8.131 5.836 12.714.135.974.236 1.292.264 2.262.036 1.203.207 1.594.228 2.528h-37.934v-1.609h0zm19.08 60.923c6.455 0 11.643-.502 17.178-2.386 10.846-3.689 18.039-10.276 23.027-20.374.62-1.255 2.375-4.702 2.499-6.207l-25.441-4.369c-.16 1.952-2.228 6.174-3.405 7.819-1.046 1.463-2.303 2.771-3.813 3.728-5.113 3.239-12.386 3.149-17.769.409-7.926-4.034-11.81-12.148-11.81-22.071h63.601c.023-1.046.286-1.608.238-2.993-.043-1.206-.249-1.567-.243-2.979a77.68 77.68 0 0 0-1.992-17.526c-1.643-7.01-4.253-13.212-7.931-18.181-8.715-11.776-21.073-16.715-36.41-16.715-4.964 0-10.765.99-15.025 2.726-1.407.573-2.798 1.097-4.136 1.79l-3.719 2.214c-6.082 4.457-10.562 8.773-14.224 15.721l-1.937 4.017c-2.624 6.549-3.739 12.24-4.333 19.524-.074.911-.003 2.049-.004 2.985-.002 1.371-.295 1.767-.245 2.972.043 1.05.249 1.414.243 2.762-.056 12.104 4.57 26.202 12.994 34.897 8.2 8.465 20.442 12.237 32.657 12.237h0zm-173.768-60.24c0-21.122 20.451-27.469 31.638-16.618 2.001 1.941 4.072 5.453 4.887 8.387.717 2.578 1.408 6.421 1.408 9.151H512.11v-.92h.001zm-26.577 6.667c0 13.948.333 17.693 5.32 30.02.358.884.642 1.27 1.028 1.948l1.075 1.901c2.338 3.973 2.687 3.852 5.003 6.661 1.395 1.692 1.211 1.323 2.847 2.866 7.291 6.876 19.857 10.17 30.384 10.17 6.592 0 11.5-.517 17.212-2.351 2.08-.668 4.156-1.56 6.111-2.551 1.987-1.006 3.617-2.153 5.299-3.373l4.596-4.083c.428-.493.452-.648.911-1.148l2.898-3.734c1.847-2.632 5.46-9.09 5.677-11.727l-25.441-4.368c-.134 1.632-1.428 4.264-2.043 5.519-3.738 7.639-10.99 9.479-18.915 7.877-3.789-.766-8.253-3.631-10.393-6.495-3.722-4.981-5.447-10.297-5.447-17.016h63.829c0-18.054-2.829-33.117-11.424-43.384l-3.052-3.348c-.645-.627-1.042-.82-1.707-1.491-3.876-3.907-11.663-7.412-17.023-8.749-7.044-1.757-16.368-1.993-23.492-.182-6.302 1.602-10.287 3.603-15.374 7.429-11.849 8.912-17.879 24.862-17.879 39.609h0zM384 113.99h39.297v111.041c0 .529.158.689.681.689h25.668c.523 0 .681-.16.681-.689V113.99h39.297v-22.3c0-.53-.158-.69-.682-.69H384v22.989h0zm212.155 111.73h25.441V91h-25.441v134.72zm290.749-84.14l.001-10.575c.004-1.153.369-2.989-.682-2.989h-22.488c-.523 0-.681.16-.681.69v96.327c0 .53.158.69.681.69h24.759v-26.209l.227-9.425.359-14.121c.613-4.122.035-7.518 1.553-12.912.778-2.765 1.492-4.615 2.705-6.917 3.662-6.954 11.636-8.482 18.944-5.529 1.867.754 4.859 2.58 5.287 2.695.361-.761.626-1.798.975-2.691 1.552-3.969 3.333-10.037 4.931-14.091.615-1.562 1.36-4.306 2.044-5.748-2.354-.636-6.55-4.828-17.49-4.828-2.954 0-5.469.734-7.532 1.574-3.374 1.373-5.366 3.448-7.749 5.951-1.168 1.228-3.786 4.974-4.845 6.59l-.711 1.12c-.323.482-.062.135-.288.398h0z" fill-rule="evenodd" fill="#4d4d4d"/><defs><linearGradient id="A" x1="225.346" y1="56.346" x2="140.846" y2="253.5" gradientUnits="userSpaceOnUse"><stop stop-color="#37aee2"/><stop offset="1" stop-color="#1e96c8"/></linearGradient></defs></svg>