<svg width="1180" height="338" viewBox="0 0 1180 338" fill="none" xmlns="http://www.w3.org/2000/svg">
<path d="M169 338C262.336 338 338 262.336 338 169C338 75.6639 262.336 0 169 0C75.6639 0 0 75.6639 0 169C0 262.336 75.6639 338 169 338Z" fill="#949494"/>
<path d="M70.3353 167.535L184.142 120.644C195.376 115.76 233.474 100.13 233.474 100.13C233.474 100.13 251.058 93.2919 249.593 109.899C249.104 116.737 245.197 140.67 241.289 166.558L229.078 243.243C229.078 243.243 228.101 254.477 219.798 256.431C211.494 258.384 197.818 249.592 195.376 247.639C193.422 246.173 158.743 224.194 146.043 213.448C142.624 210.517 138.717 204.656 146.532 197.818C164.116 181.699 185.119 161.673 197.818 148.974C203.679 143.113 209.541 129.436 185.119 146.043L116.249 192.445C116.249 192.445 108.434 197.329 93.7804 192.933C79.1272 188.538 62.0318 182.676 62.0318 182.676C62.0318 182.676 50.3093 175.35 70.3353 167.535V167.535Z" fill="white"/>
<path fill-rule="evenodd" clip-rule="evenodd" d="M1061.13 141.119L1061.13 130.773C1061.13 129.646 1061.48 128.014 1060.45 128.014H1038.18C1037.66 128.014 1037.5 128.174 1037.5 128.704V225.031C1037.5 225.561 1037.66 225.721 1038.18 225.721H1062.49C1063.48 225.721 1063.19 224.489 1063.18 223.426C1062.97 208.258 1063.17 191.734 1063.17 176.523C1063.17 166.197 1063.21 154.592 1072.53 148.517C1078.91 144.356 1092.79 143.128 1094.84 156.42C1096.21 165.203 1095.65 201.975 1095.65 214.456L1095.65 223.426C1095.63 224.489 1095.35 225.721 1096.33 225.721H1120.64C1121.63 225.721 1121.34 224.489 1121.33 223.426C1121.12 208.257 1121.32 191.734 1121.32 176.522C1121.32 169.085 1121.68 161.54 1124.8 155.216C1130.45 143.761 1148.19 142.053 1151.9 153.616C1153.33 158.058 1153.58 165.834 1153.58 171.695V225.721H1179.02V159.74C1179.02 154.519 1178.36 149.466 1177.25 145.434C1176.67 143.334 1175.82 141.57 1174.8 139.868L1172.38 136.341C1166.23 129.242 1158.84 125.945 1146.99 125.945C1139.36 125.945 1132.44 128.734 1126.61 133.137C1126 133.594 1125.68 133.884 1125.08 134.351C1122.1 136.695 1118.32 141.213 1118.14 141.348C1108.8 123.479 1084.66 121.738 1069.82 132.905C1067.34 134.774 1064.66 137.242 1062.54 139.564C1061.95 140.215 1061.85 140.627 1061.13 141.118V141.119Z" fill="#949494"/>
<path fill-rule="evenodd" clip-rule="evenodd" d="M771.286 176.756C771.286 168.208 771.677 161.033 776.324 154.037C776.814 153.3 777.151 153.037 777.646 152.386C784.168 143.815 800.252 142.908 808.281 153.796C813.549 160.94 813.763 168.807 813.763 178.135C813.763 185.306 811.389 192.249 808.317 196.302C807.161 197.827 805.482 199.485 803.965 200.635C803.304 201.136 802.908 201.395 802.192 201.828C798.151 204.274 795.356 204.573 790.594 204.573C784.074 204.573 778.461 199.899 775.872 195.793C772.974 191.197 771.286 184.221 771.286 176.756V176.756ZM796.287 265.036H788.393C783.253 264.854 778.216 264.307 773.879 263.331C765.013 261.337 757.187 257.443 752.388 249.678C748.47 243.339 748.344 239.412 748.344 231.931L770.278 234.561C771.602 234.747 772.618 234.832 773.91 235.023C775.103 235.2 776.455 235.379 777.646 235.379C777.646 237.047 778.433 239.114 779.002 240.214C781.098 244.26 786.959 245.265 791.729 245.265C800.129 245.265 808.326 244.392 811.873 236.686C814.11 231.826 813.308 217.717 813.308 210.321C812.751 210.698 812.475 211.22 812.004 211.759C808.765 215.462 809.359 215.143 805.533 218.314C804.539 219.139 803.679 219.734 802.635 220.439C800.582 221.827 798.093 222.995 795.565 223.859C790.333 225.645 787.722 225.494 782.416 225.494C773.87 225.494 762.999 220.389 757.918 213.965C756.365 212.001 756.207 212.196 754.248 209.403C751.174 205.022 748.829 200 747.255 194.18C744.831 185.218 744.547 173.682 745.857 164.123C747.743 150.366 753.281 140.069 764.016 132.384L767.422 130.313C778.651 124.405 792.47 124.353 803.532 130.785C807.012 132.809 809.953 135.668 812.574 138.646L815.126 141.581V128.017H838.295C838.818 128.017 838.976 128.177 838.976 128.707V217.448C838.976 224.353 838.431 232.623 837.024 238.232C835.803 243.1 833.196 249.686 829.607 253.255C828.453 254.403 828.133 254.957 826.712 256.072C821.061 260.506 814.028 263.144 806.761 264.157C803.522 264.608 799.957 264.909 796.287 265.036V265.036Z" fill="#949494"/>
<path fill-rule="evenodd" clip-rule="evenodd" d="M970.496 209.399C965.449 209.399 962.745 209.239 958.854 205.319C953.771 200.196 953.557 192.286 959.36 187.783C961.785 185.901 965.155 184.938 968.633 184.064C971.971 183.225 975.676 182.331 979.146 181.601L986.752 179.643C987.646 179.386 988.653 179.161 989.349 178.823C989.349 190.619 990.448 200.557 979.883 206.486C977.481 207.834 974.091 209.399 970.496 209.399V209.399ZM932.108 153.764C932.99 153.838 934.071 154.099 935.002 154.283L949.433 156.92C950.51 157.108 951.401 157.232 952.343 157.423C953.185 157.592 954.403 157.883 955.277 157.902C956.112 156.305 956.504 154.634 957.501 153.027C959.555 149.714 961.601 147.751 965.465 146.604C970.98 144.967 981.919 145.593 985.545 148.878C988.854 151.877 989.349 155.893 989.349 162.04L982.079 164.338C979.47 165.03 977.079 165.641 974.227 166.276C963.319 168.708 953.483 169.77 943.54 174.761C937.071 178.008 932.263 184.113 930.468 191.188C929.87 193.544 929.308 197.136 929.567 199.768C929.931 203.476 929.539 204.225 930.883 208.34C937.572 228.826 963.565 231.707 979.052 223.807C982.091 222.256 987.413 218.894 989.862 216.357C990.408 215.792 990.628 215.354 991.393 215.147L993.579 222.591C994.887 226.56 993.658 225.722 1000.25 225.722C1006.76 225.722 1013.27 225.722 1019.79 225.722C1019.72 224.964 1018.92 223.377 1018.57 222.582C1017.18 219.421 1016.02 215.925 1015.3 212.564C1011.98 197.049 1016.82 160.699 1012.47 144.384C1010.1 135.484 1001.09 129.767 992.576 127.738C978.503 124.383 952.903 124.866 943.063 134.736C939.914 137.894 937.78 140.19 935.741 144.339C934.163 147.551 932.975 149.996 932.107 153.765L932.108 153.764Z" fill="#949494"/>
<path fill-rule="evenodd" clip-rule="evenodd" d="M666.799 166.869C666.799 160.778 669.027 155.296 671.966 152.097C673.846 150.051 674.652 149.093 677.547 147.631C682.67 145.043 688.922 145.199 693.906 147.71C695.623 148.574 697.043 149.723 698.405 150.974C701.652 153.955 703.602 159.105 704.241 163.688C704.376 164.662 704.477 164.98 704.505 165.95C704.541 167.153 704.712 167.544 704.733 168.478H666.799V166.869H666.799ZM685.879 227.792C692.334 227.792 697.522 227.29 703.057 225.406C713.903 221.717 721.096 215.13 726.084 205.032C726.704 203.777 728.459 200.33 728.583 198.825L703.142 194.456C702.982 196.408 700.914 200.63 699.737 202.275C698.691 203.738 697.434 205.046 695.924 206.003C690.811 209.242 683.538 209.152 678.155 206.412C670.229 202.378 666.345 194.264 666.345 184.341H729.946C729.969 183.295 730.232 182.733 730.184 181.348C730.141 180.142 729.935 179.781 729.941 178.369C729.964 172.522 729.229 166.303 727.949 160.843C726.306 153.833 723.696 147.631 720.018 142.662C711.303 130.886 698.945 125.947 683.608 125.947C678.644 125.947 672.843 126.937 668.583 128.673C667.176 129.246 665.785 129.77 664.447 130.463L660.728 132.677C654.645 137.134 650.166 141.45 646.504 148.398L644.567 152.415C641.943 158.964 640.828 164.655 640.234 171.939C640.16 172.85 640.231 173.988 640.23 174.924C640.228 176.295 639.935 176.691 639.985 177.896C640.028 178.946 640.234 179.31 640.227 180.658C640.172 192.762 644.798 206.86 653.222 215.555C661.422 224.02 673.664 227.792 685.879 227.792L685.879 227.792Z" fill="#949494"/>
<path fill-rule="evenodd" clip-rule="evenodd" d="M512.111 167.552C512.111 146.43 532.562 140.083 543.749 150.934C545.75 152.875 547.821 156.387 548.636 159.321C549.353 161.899 550.044 165.742 550.044 168.472H512.11V167.552H512.111ZM485.534 174.219C485.534 188.167 485.867 191.912 490.854 204.239C491.212 205.123 491.496 205.509 491.883 206.187C492.269 206.864 492.537 207.375 492.957 208.088C495.295 212.061 495.644 211.94 497.96 214.749C499.355 216.441 499.171 216.072 500.807 217.615C508.098 224.491 520.665 227.785 531.191 227.785C537.783 227.785 542.691 227.268 548.403 225.434C550.483 224.766 552.559 223.874 554.514 222.883C556.501 221.877 558.131 220.73 559.813 219.51L564.41 215.427C564.837 214.934 564.861 214.779 565.32 214.279L568.219 210.545C570.065 207.913 573.678 201.455 573.895 198.818L548.454 194.45C548.32 196.082 547.026 198.714 546.411 199.969C542.673 207.608 535.421 209.448 527.496 207.846C523.707 207.08 519.243 204.215 517.103 201.351C513.381 196.37 511.656 191.054 511.656 184.335H575.485C575.485 166.281 572.656 151.218 564.061 140.951L561.009 137.603C560.364 136.976 559.967 136.783 559.302 136.112C555.426 132.205 547.639 128.7 542.279 127.363C535.235 125.606 525.911 125.37 518.788 127.181C512.485 128.783 508.5 130.784 503.413 134.61C491.564 143.522 485.535 159.472 485.535 174.219H485.534Z" fill="#949494"/>
<path fill-rule="evenodd" clip-rule="evenodd" d="M384 113.99H423.297V225.031C423.297 225.56 423.455 225.72 423.978 225.72H449.646C450.169 225.72 450.327 225.56 450.327 225.031V113.99H489.624V91.6902C489.624 91.1605 489.466 91.0005 488.942 91.0005H384V113.99H384Z" fill="#949494"/>
<path fill-rule="evenodd" clip-rule="evenodd" d="M596.155 225.72H621.596V91H596.155V225.72Z" fill="#949494"/>
<path fill-rule="evenodd" clip-rule="evenodd" d="M886.904 141.58L886.905 131.005C886.909 129.852 887.274 128.016 886.223 128.016H863.735C863.212 128.016 863.054 128.176 863.054 128.706V225.033C863.054 225.563 863.212 225.723 863.735 225.723H888.494V199.514C888.494 196.105 888.721 193.517 888.721 190.089L889.08 175.968C889.693 171.846 889.115 168.45 890.633 163.056C891.411 160.291 892.125 158.441 893.338 156.139C897 149.185 904.974 147.657 912.282 150.61C914.149 151.364 917.141 153.19 917.569 153.305C917.93 152.544 918.195 151.507 918.544 150.614C920.096 146.645 921.877 140.577 923.475 136.523C924.09 134.961 924.835 132.217 925.519 130.775C923.165 130.139 918.969 125.947 908.029 125.947C905.075 125.947 902.56 126.681 900.497 127.521C897.123 128.894 895.131 130.969 892.748 133.472C891.58 134.7 888.962 138.446 887.903 140.062L887.192 141.182C886.869 141.664 887.13 141.317 886.904 141.58H886.904Z" fill="#949494"/>
</svg>
