<svg width="1219" height="300" viewBox="0 0 1219 300" fill="none" xmlns="http://www.w3.org/2000/svg">
<path d="M150 300C232.843 300 300 232.843 300 150C300 67.1573 232.843 0 150 0C67.1573 0 0 67.1573 0 150C0 232.843 67.1573 300 150 300Z" fill="url(#paint0_linear)"/>
<path d="M62.4278 148.699L163.439 107.081C173.41 102.745 207.225 88.8726 207.225 88.8726C207.225 88.8726 222.832 82.8033 221.532 97.5432C221.098 103.613 217.63 124.855 214.162 147.832L203.324 215.896C203.324 215.896 202.457 225.867 195.087 227.601C187.717 229.335 175.578 221.532 173.41 219.798C171.676 218.497 140.896 198.988 129.624 189.451C126.59 186.85 123.121 181.647 130.058 175.578C145.665 161.271 164.306 143.497 175.578 132.225C180.78 127.023 185.983 114.884 164.306 129.624L103.179 170.809C103.179 170.809 96.2428 175.144 83.237 171.243C70.2312 167.341 55.0578 162.139 55.0578 162.139C55.0578 162.139 44.6532 155.636 62.4278 148.699Z" fill="white"/>
<path fill-rule="evenodd" clip-rule="evenodd" d="M1089.04 108.77L1089.04 97.3685C1089.05 96.1268 1089.43 94.3292 1088.29 94.3292H1063.75C1063.17 94.3292 1063 94.5055 1063 95.0892V201.24C1063 201.824 1063.17 202 1063.75 202H1090.54C1091.63 202 1091.32 200.643 1091.3 199.471C1091.08 182.756 1091.3 164.547 1091.3 147.784C1091.3 136.405 1091.34 123.617 1101.61 116.923C1108.65 112.337 1123.94 110.984 1126.21 125.632C1127.71 135.31 1127.1 175.833 1127.1 189.586L1127.1 199.471C1127.08 200.642 1126.76 202 1127.85 202H1154.65C1155.74 202 1155.42 200.642 1155.4 199.471C1155.18 182.755 1155.4 164.546 1155.4 147.784C1155.4 139.588 1155.8 131.274 1159.23 124.305C1165.46 111.681 1185.02 109.799 1189.11 122.541C1190.68 127.437 1190.96 136.006 1190.96 142.464V202H1219V129.29C1219 123.536 1218.28 117.969 1217.05 113.525C1216.42 111.211 1215.47 109.267 1214.35 107.392L1211.68 103.505C1204.91 95.6818 1196.76 92.0487 1183.69 92.0487C1175.29 92.0487 1167.65 95.1225 1161.23 99.974C1160.56 100.478 1160.2 100.797 1159.55 101.312C1156.26 103.895 1152.09 108.874 1151.89 109.023C1141.59 89.3316 1114.98 87.4123 1098.63 99.7179C1095.89 101.778 1092.93 104.498 1090.6 107.056C1089.95 107.774 1089.84 108.228 1089.04 108.769V108.77Z" fill="#4D4D4D"/>
<path fill-rule="evenodd" clip-rule="evenodd" d="M770.744 147.909C770.744 138.509 771.172 130.617 776.27 122.923C776.808 122.113 777.177 121.823 777.72 121.108C784.875 111.681 802.52 110.683 811.328 122.658C817.106 130.515 817.341 139.167 817.341 149.426C817.341 157.313 814.736 164.948 811.366 169.407C810.099 171.083 808.257 172.907 806.593 174.171C805.868 174.723 805.433 175.007 804.647 175.484C800.214 178.174 797.148 178.503 791.924 178.503C784.772 178.503 778.615 173.362 775.775 168.847C772.596 163.792 770.744 156.119 770.744 147.909V147.909ZM798.17 245H789.51C783.871 244.8 778.346 244.198 773.589 243.125C763.862 240.931 755.277 236.649 750.013 228.109C745.715 221.137 745.576 216.819 745.576 208.591L769.638 211.483C771.09 211.688 772.205 211.781 773.622 211.991C774.931 212.186 776.414 212.384 777.721 212.384C777.721 214.217 778.583 216.49 779.209 217.701C781.507 222.151 787.937 223.256 793.17 223.256C802.384 223.256 811.377 222.296 815.268 213.82C817.722 208.475 816.842 192.958 816.842 184.824C816.231 185.239 815.928 185.813 815.411 186.406C811.859 190.479 812.509 190.128 808.313 193.615C807.222 194.522 806.279 195.176 805.134 195.952C802.881 197.478 800.151 198.764 797.378 199.713C791.639 201.678 788.774 201.511 782.954 201.511C773.579 201.511 761.652 195.897 756.079 188.832C754.376 186.672 754.202 186.886 752.053 183.815C748.68 178.997 746.108 173.474 744.382 167.073C741.723 157.216 741.411 144.529 742.848 134.016C744.917 118.886 750.993 107.561 762.768 99.1088L766.504 96.8317C778.823 90.3335 793.982 90.2763 806.118 97.3507C809.936 99.5762 813.162 102.721 816.037 105.996L818.836 109.224V94.3067H844.252C844.827 94.3067 845 94.4827 845 95.0653V192.662C845 200.256 844.402 209.352 842.859 215.52C841.519 220.875 838.659 228.118 834.722 232.043C833.457 233.305 833.105 233.915 831.546 235.141C825.347 240.018 817.632 242.919 809.66 244.033C806.107 244.529 802.196 244.86 798.17 245V245Z" fill="#4D4D4D"/>
<path fill-rule="evenodd" clip-rule="evenodd" d="M989.951 183.728C984.417 183.728 981.452 183.553 977.186 179.248C971.612 173.623 971.378 164.937 977.74 159.993C980.4 157.926 984.095 156.868 987.908 155.909C991.569 154.987 995.631 154.006 999.437 153.204L1007.78 151.054C1008.76 150.772 1009.86 150.525 1010.62 150.154C1010.62 163.106 1011.83 174.019 1000.24 180.529C997.611 182.01 993.894 183.729 989.951 183.729V183.728ZM947.857 122.637C948.824 122.719 950.01 123.004 951.031 123.207L966.855 126.102C968.036 126.309 969.013 126.445 970.046 126.654C970.969 126.841 972.305 127.159 973.263 127.181C974.179 125.427 974.609 123.593 975.702 121.827C977.954 118.189 980.198 116.034 984.435 114.774C990.482 112.977 1002.48 113.665 1006.45 117.272C1010.08 120.565 1010.62 124.974 1010.62 131.725L1002.65 134.248C999.792 135.008 997.17 135.678 994.042 136.376C982.081 139.047 971.296 140.213 960.393 145.693C953.3 149.259 948.027 155.962 946.059 163.731C945.404 166.318 944.787 170.262 945.071 173.153C945.47 177.224 945.041 178.047 946.514 182.565C953.848 205.06 982.352 208.223 999.333 199.549C1002.67 197.846 1008.5 194.154 1011.19 191.368C1011.79 190.748 1012.03 190.267 1012.87 190.04L1015.26 198.213C1016.7 202.572 1015.35 201.652 1022.58 201.652C1029.72 201.652 1036.86 201.652 1044 201.652C1043.93 200.819 1043.05 199.077 1042.67 198.204C1041.14 194.732 1039.87 190.894 1039.08 187.203C1035.44 170.167 1040.75 130.252 1035.98 112.337C1033.38 102.564 1023.5 96.2867 1014.16 94.0582C998.732 90.3741 970.66 90.9047 959.87 101.743C956.417 105.211 954.076 107.732 951.842 112.287C950.111 115.814 948.808 118.5 947.857 122.638L947.857 122.637Z" fill="#4D4D4D"/>
<path fill-rule="evenodd" clip-rule="evenodd" d="M655.433 137.002C655.433 130.304 657.878 124.276 661.103 120.758C663.166 118.507 664.052 117.453 667.228 115.846C672.851 113 679.711 113.172 685.182 115.932C687.065 116.883 688.624 118.147 690.118 119.522C693.681 122.8 695.822 128.464 696.523 133.504C696.672 134.575 696.782 134.925 696.813 135.991C696.852 137.314 697.04 137.744 697.063 138.772H655.433V137.002H655.433ZM676.372 204C683.456 204 689.149 203.448 695.224 201.377C707.126 197.319 715.02 190.076 720.495 178.97C721.175 177.59 723.101 173.799 723.237 172.144L695.317 167.34C695.141 169.486 692.872 174.13 691.581 175.939C690.432 177.547 689.053 178.986 687.396 180.038C681.784 183.601 673.802 183.501 667.896 180.489C659.197 176.052 654.934 167.128 654.934 156.217H724.733C724.758 155.066 725.047 154.448 724.993 152.925C724.947 151.598 724.721 151.202 724.727 149.649C724.753 143.219 723.946 136.379 722.541 130.376C720.738 122.666 717.874 115.845 713.838 110.381C704.273 97.4309 690.712 92 673.879 92C668.432 92 662.066 93.0882 657.391 94.9972C655.847 95.6278 654.321 96.2042 652.851 96.9664L648.77 99.4009C642.095 104.303 637.179 109.048 633.161 116.689L631.035 121.107C628.155 128.309 626.931 134.568 626.28 142.578C626.198 143.58 626.277 144.831 626.275 145.86C626.273 147.368 625.952 147.804 626.006 149.129C626.054 150.284 626.279 150.683 626.272 152.166C626.211 165.477 631.288 180.981 640.533 190.543C649.532 199.852 662.966 204 676.372 204L676.372 204Z" fill="#4D4D4D"/>
<path fill-rule="evenodd" clip-rule="evenodd" d="M485.25 137.768C485.25 114.543 507.759 107.563 520.071 119.495C522.274 121.629 524.553 125.491 525.45 128.718C526.239 131.552 527 135.777 527 138.779H485.25V137.768H485.25ZM456 145.099C456 160.436 456.366 164.554 461.855 178.109C462.249 179.081 462.562 179.505 462.987 180.251C463.412 180.996 463.707 181.557 464.169 182.341C466.743 186.71 467.127 186.577 469.676 189.666C471.212 191.526 471.009 191.12 472.81 192.817C480.834 200.378 494.665 204 506.25 204C513.505 204 518.907 203.431 525.193 201.415C527.483 200.68 529.768 199.699 531.92 198.61C534.106 197.504 535.901 196.243 537.751 194.901L542.811 190.411C543.282 189.869 543.308 189.698 543.813 189.149L547.003 185.043C549.036 182.149 553.012 175.048 553.25 172.148L525.25 167.345C525.102 169.139 523.678 172.034 523.002 173.414C518.888 181.813 510.906 183.837 502.183 182.075C498.013 181.233 493.1 178.082 490.745 174.934C486.648 169.456 484.75 163.611 484.75 156.222H555C555 136.371 551.887 119.807 542.427 108.517L539.068 104.837C538.358 104.147 537.921 103.935 537.189 103.197C532.923 98.9007 524.353 95.0469 518.453 93.5766C510.701 91.6447 500.438 91.3846 492.599 93.3761C485.663 95.138 481.277 97.3387 475.678 101.546C462.637 111.345 456 128.884 456 145.099H456Z" fill="#4D4D4D"/>
<path fill-rule="evenodd" clip-rule="evenodd" d="M345 79.256H388.157V201.242C388.157 201.824 388.331 202 388.905 202H417.095C417.669 202 417.843 201.824 417.843 201.242V79.256H461V54.7577C461 54.1758 460.826 54 460.252 54H345V79.256H345Z" fill="#4D4D4D"/>
<path fill-rule="evenodd" clip-rule="evenodd" d="M578 202H606V54H578V202Z" fill="#4D4D4D"/>
<path fill-rule="evenodd" clip-rule="evenodd" d="M897.964 109.235L897.964 97.5758C897.968 96.3044 898.366 94.2811 897.222 94.2811H872.742C872.172 94.2811 872 94.4575 872 95.0415V201.24C872 201.824 872.172 202 872.742 202H899.695V173.106C899.695 169.347 899.942 166.494 899.942 162.714L900.332 147.146C901 142.602 900.37 138.859 902.023 132.912C902.87 129.863 903.647 127.824 904.967 125.285C908.954 117.619 917.634 115.935 925.59 119.19C927.622 120.022 930.88 122.034 931.345 122.161C931.738 121.323 932.027 120.179 932.407 119.194C934.096 114.819 936.035 108.129 937.774 103.659C938.444 101.938 939.256 98.9123 940 97.3226C937.437 96.6213 932.869 92 920.96 92C917.745 92 915.007 92.8087 912.761 93.7345C909.087 95.2489 906.919 97.5361 904.326 100.296C903.053 101.649 900.204 105.779 899.05 107.561L898.277 108.796C897.925 109.327 898.209 108.945 897.963 109.235H897.964Z" fill="#4D4D4D"/>
<defs>
<linearGradient id="paint0_linear" x1="200.012" y1="50.0116" x2="125.012" y2="225" gradientUnits="userSpaceOnUse">
<stop stop-color="#37AEE2"/>
<stop offset="1" stop-color="#1E96C8"/>
</linearGradient>
</defs>
</svg>
