<svg width="1212" height="300" viewBox="0 0 1212 300" fill="none" xmlns="http://www.w3.org/2000/svg">
<path fill-rule="evenodd" clip-rule="evenodd" d="M365.505 35.5336L365.538 35.5187L365.524 35.5046L365.505 35.5336ZM365.505 35.5336C352.06 41.5489 337.624 45.6159 322.474 47.4525C337.944 38.078 349.844 23.2314 355.444 5.52859C340.954 14.2244 324.91 20.5166 307.816 23.9242C294.139 9.19076 274.651 0 253.077 0C211.665 0 178.093 33.9068 178.093 75.7317C178.093 81.6562 178.751 87.4535 180.039 92.9962C117.711 89.8289 62.4537 59.6833 25.4659 13.8568C19.0119 25.0413 15.3019 38.0497 15.3019 51.9348C15.3019 78.2062 28.5459 101.395 48.6638 114.969C36.3718 114.573 24.8079 111.166 14.6999 105.496C14.6859 105.807 14.6859 106.118 14.6859 106.443V106.443C14.6859 143.135 40.5298 173.747 74.8296 180.704C68.5437 182.443 61.9217 183.362 55.0757 183.362C50.2458 183.362 45.5558 182.896 40.9778 182.005C50.5117 212.094 78.2036 233.996 111.033 234.604C85.3576 254.923 53.0317 267.026 17.8919 267.026C11.8439 267.026 5.86597 266.673 0 265.966C33.1798 287.458 72.6036 300 114.953 300C252.895 300 328.326 184.578 328.326 84.4983C328.326 81.2179 328.242 77.9517 328.102 74.6996C342.737 64.0309 355.456 50.7075 365.505 35.5336ZM984.698 153.798C990.172 136.661 1003.88 128.969 1003.88 128.969C1003.88 128.969 1011.91 123.384 1029.39 120.16C1040.11 118.181 1056.55 117.912 1072.62 125.873C1088.67 133.833 1098.59 144.904 1101.5 160.09C1104.41 175.262 1101.96 180.296 1093.83 184.566C1088.42 187.408 1065.17 186.913 1065.17 186.913L1021.83 187.168C1021.83 187.168 1022.89 189.854 1025.34 192.258C1032.16 198.946 1047.64 203.725 1066.6 194.747C1075.78 190.392 1083.33 188.893 1088.68 191.014C1094.02 193.135 1097.75 199.285 1096.42 205.733C1095.09 212.166 1088.77 218.473 1081.77 223.012C1074.79 227.55 1061.03 230.802 1046.87 231.806C1032.72 232.81 1019.11 229.784 1005.7 220.622C992.286 211.46 986.448 200.318 983.9 191.692C981.352 183.067 979.294 170.681 984.698 153.798ZM1022.88 160.968C1022.83 161.056 1022.78 161.143 1022.74 161.231C1022.69 161.316 1022.65 161.402 1022.61 161.49L1022.62 161.504C1028.48 161.617 1034.37 161.66 1040.25 161.632L1063.69 161.801L1063.53 161.49H1063.69C1063.18 160.698 1062.66 159.935 1062.13 159.214C1061.32 158.083 1060.42 157.036 1059.44 156.103C1052.72 149.358 1044.04 147.775 1036.25 150.49C1030.77 151.96 1025.9 155.354 1022.97 160.783C1022.94 160.846 1022.91 160.907 1022.88 160.968ZM411.389 70.6273C421.413 67.6722 433.383 74.9965 434.923 85.5305C435.505 92.432 435.603 99.4313 435.7 106.358V106.36L435.7 106.379C435.72 107.776 435.74 109.169 435.763 110.558C443.022 110.607 450.298 110.535 457.579 110.464C471.108 110.33 484.653 110.197 498.133 110.84C505.931 112.099 513.169 118.433 514.149 126.592C517.215 136.857 509.277 148.947 498.973 150.629C485.084 151.742 471.141 151.578 457.176 151.412H457.176H457.176H457.175H457.175H457.175C449.856 151.326 442.53 151.239 435.203 151.336C435.296 153.96 435.312 156.585 435.327 159.203C435.358 164.445 435.389 169.665 436.043 174.822C437.429 182.274 443.701 189.174 451.359 190.008C459.575 190.726 467.787 190.707 475.98 190.689C483.759 190.671 491.521 190.654 499.253 191.266C513.043 193.373 519.861 212.504 510.537 222.911C505.672 231.654 495.029 231.644 486.394 231.635H486.388H486.383C486.126 231.635 485.87 231.635 485.617 231.635C481.407 231.561 477.16 231.659 472.903 231.758C460.822 232.037 448.659 232.318 437.023 228.68C413.209 221.37 395.261 197.601 395.387 172.432C394.796 154.018 394.908 135.532 395.019 117.082V117.08V117.078V117.076V117.074V117.072C395.063 109.741 395.107 102.416 395.107 95.103C393.441 84.4135 400.399 72.3241 411.403 70.6273H411.389ZM810.247 82.3545C805.655 69.841 787.287 66.0515 778.229 75.8927H778.215C771.374 81.1687 771.229 90.1238 771.096 98.413C771.058 100.743 771.021 103.02 770.837 105.148C770.85 108.185 770.851 111.238 770.852 114.302C770.859 143.869 770.867 174.512 781.967 202.159C792.271 227.186 821.923 234.497 846.156 231.541C856.32 232.376 867.03 225.772 868.976 215.224C870.796 207.914 867.45 200.745 862.858 195.118C856.205 190.868 848.457 190.866 840.68 190.863C834.302 190.861 827.905 190.859 822.077 188.515C815.909 185.702 814.702 178.452 813.662 172.209C813.458 170.984 813.26 169.797 813.033 168.691C816.62 168.649 820.209 168.644 823.8 168.64H823.8C832.178 168.63 840.564 168.62 848.943 168.125C858.966 169.525 868.85 160.957 869.13 150.974C871.076 140.723 863.138 130.867 853.675 128.619C843.272 127.374 832.861 127.43 822.455 127.486H822.454H822.454H822.453H822.452C818.799 127.505 815.145 127.525 811.493 127.488C811.413 122.968 811.457 118.435 811.501 113.9V113.899V113.897V113.896V113.895C811.603 103.34 811.706 92.778 810.247 82.3545ZM889.539 71.744C895.069 69.5524 901.299 69.0858 906.479 72.0834C910.945 74.8972 915.537 78.828 916.377 84.3142C917.485 94.737 917.419 105.152 917.354 115.511V115.521C917.329 119.423 917.304 123.316 917.343 127.2C920.995 127.236 924.649 127.217 928.303 127.197H928.303H928.304H928.305C938.711 127.141 949.122 127.085 959.524 128.331C968.722 130.296 976.1 139.572 975.12 149.413C974.014 157.571 969.128 166.423 960.084 167.554C949.847 168.402 939.618 168.296 929.385 168.19C925.974 168.155 922.562 168.12 919.149 168.12C919.333 169.355 919.462 170.678 919.594 172.036C920.155 177.795 920.778 184.197 925.967 187.378C931.991 190.568 939.05 190.558 946.038 190.548C955.678 190.534 965.181 190.521 971.634 198.916C979.712 210.157 973.3 226.756 960.644 230.277C937.67 234.208 910.105 231.818 893.963 212.702C882.919 198.088 880.559 179.322 878.337 161.65C878.207 160.616 878.078 159.586 877.947 158.561C877.746 155.34 877.529 152.119 877.311 148.898C876.159 131.871 875.008 114.844 876.421 97.8175C876.029 86.9017 878.843 76.0001 889.553 71.744H889.539ZM558.401 129.912C554.509 122.192 545.045 115.575 536.127 118.813L536.141 118.785C526.397 120.043 521.231 131.143 521.931 140.15C521.887 141.905 521.838 143.664 521.788 145.427C521.358 160.621 520.922 176.051 524.297 190.925C531.381 217.352 559.661 235.493 586.387 230.714C595.721 229.728 603.683 224.8 611.571 219.919C612.734 219.199 613.895 218.481 615.058 217.776C625.908 225.666 638.732 232.269 652.648 231.421C680.634 231.831 705.974 207.369 708.06 179.387C708.886 164.201 709.026 149.015 707.5 133.971C706.8 127.226 701.508 122.023 695.516 119.492C686.626 114.995 675.328 121.174 671.716 129.898C668.838 139.063 669.073 148.672 669.308 158.273C669.448 163.988 669.587 169.701 669.07 175.315C671.296 186.428 659.046 194.997 649.022 192.89C642.204 192.466 637.192 186.839 635.106 180.659C633.731 173.616 634.12 166.105 634.511 158.583C635.149 146.28 635.789 133.944 628.708 123.564C623.822 120.34 617.83 116.692 611.712 118.375C603.495 120.071 596.663 127.523 595.697 135.95C595.46 142.076 595.498 148.201 595.537 154.318V154.322V154.323C595.59 162.662 595.643 170.982 594.997 179.26C593.891 186.16 588.179 192.353 581.081 192.904C570.371 195.308 560.347 185.75 559.507 175.329C559.162 169.102 559.242 162.877 559.321 156.661V156.658C559.435 147.717 559.549 138.795 558.401 129.912ZM1157.22 119.794C1169.05 118.536 1181.02 118.394 1192.86 118.96C1204.69 119.384 1214.72 133.156 1209.85 144.397C1206.93 149.614 1202.89 155.511 1196.48 156.076C1190.12 156.62 1183.77 156.733 1177.41 156.847C1172.35 156.937 1167.29 157.028 1162.23 157.335C1154.85 157.9 1148.58 163.797 1147.48 171.262C1146.84 179.304 1146.89 187.398 1146.94 195.512C1146.98 201.435 1147.02 207.368 1146.79 213.299C1146.22 224.979 1132.86 235.244 1121.72 230.323C1116.56 227.368 1110.73 223.155 1110.03 216.834C1108.63 200.658 1108.63 184.497 1109.89 168.321C1111.83 143.845 1133 122.056 1157.22 119.808V119.794ZM759.025 142.245C757.779 131.979 747.055 123.538 736.751 125.517V125.532C728.953 126.521 721.029 132.135 720.049 140.576C718.789 163.906 719.209 187.251 719.769 210.595C718.103 222.826 730.773 234.067 742.603 230.971C751.787 229.698 759.025 221.115 759.585 211.981C760.271 188.792 760.691 165.448 759.025 142.245ZM758.465 96.6867C763.491 82.7592 749.575 66.7249 735.365 70.5284H735.351C719.755 72.508 713.357 96.1211 726.027 105.552C735.645 115.676 755.413 110.741 758.465 96.6867Z" fill="#949494"/>
</svg>
