<svg width="1054" height="261" viewBox="0 0 1054 261" fill="none" xmlns="http://www.w3.org/2000/svg">
<path fill-rule="evenodd" clip-rule="evenodd" d="M317.989 30.9142L318.018 30.9013L318.006 30.889L317.989 30.9142ZM317.989 30.9142C306.293 36.1475 293.733 39.6858 280.553 41.2837C294.012 33.1278 304.365 20.2113 309.236 4.80987C296.63 12.3753 282.672 17.8494 267.8 20.8141C255.901 7.99596 238.946 0 220.177 0C184.148 0 154.941 29.4989 154.941 65.8866C154.941 71.0409 155.513 76.0845 156.634 80.9067C102.409 78.1512 54.3347 51.9245 22.1553 12.0554C16.5404 21.7859 13.3127 33.1032 13.3127 45.1833C13.3127 68.0394 24.8349 88.2137 42.3375 100.023C31.6435 99.6787 21.5829 96.7141 12.7889 91.7812C12.7768 92.0518 12.7768 92.3223 12.7768 92.6052V92.6054C12.7768 124.528 35.2609 151.16 65.1018 157.213C59.633 158.726 53.8719 159.525 47.9159 159.525C43.7138 159.525 39.6335 159.119 35.6507 158.344C43.9452 184.522 68.0371 203.577 96.5991 204.106C74.2611 221.783 46.1376 232.313 15.566 232.313C10.3042 232.313 5.10339 232.005 0 231.39C28.8665 250.089 63.1652 261 100.009 261C220.018 261 285.644 160.583 285.644 73.5135C285.644 70.6596 285.571 67.8179 285.449 64.9886C298.181 55.7069 309.247 44.1155 317.989 30.9142ZM856.687 133.804C861.449 118.895 873.373 112.203 873.373 112.203C873.373 112.203 880.365 107.344 895.565 104.539C904.895 102.817 919.194 102.583 933.177 109.509C947.147 116.435 955.771 126.067 958.304 139.279C960.838 152.478 958.706 156.857 951.63 160.572C946.928 163.045 926.697 162.614 926.697 162.614L888.988 162.836C888.988 162.836 889.914 165.173 892.045 167.264C897.977 173.083 911.448 177.241 927.94 169.429C935.93 165.641 942.495 164.337 947.147 166.182C951.8 168.027 955.04 173.378 953.883 178.988C952.726 184.585 947.233 190.071 941.143 194.02C935.065 197.969 923.092 200.798 910.778 201.672C898.464 202.545 886.625 199.912 874.957 191.941C863.289 183.97 858.209 174.276 855.993 166.772C853.776 159.268 851.986 148.492 856.687 133.804ZM889.987 139.881C889.877 140.091 889.768 140.287 889.67 140.496L889.682 140.509C894.774 140.607 899.901 140.644 905.017 140.619L925.406 140.767L925.272 140.496H925.406C924.968 139.808 924.517 139.143 924.054 138.516C923.348 137.532 922.568 136.622 921.716 135.81C915.869 129.942 908.318 128.564 901.534 130.926C896.771 132.205 892.533 135.158 889.987 139.881ZM357.909 61.4457C366.629 58.8747 377.043 65.2468 378.383 74.4114C378.89 80.4164 378.975 86.5064 379.059 92.533C379.076 93.7533 379.093 94.9711 379.114 96.185C385.429 96.2281 391.76 96.1657 398.094 96.1033C409.864 95.9873 421.648 95.8712 433.376 96.431C440.16 97.5259 446.457 103.037 447.309 110.135C449.977 119.066 443.071 129.583 434.106 131.047C422.023 132.016 409.893 131.872 397.743 131.729C391.375 131.653 385.002 131.578 378.627 131.662C378.708 133.945 378.721 136.227 378.735 138.505V138.507V138.508V138.508V138.508V138.509V138.509C378.762 143.068 378.789 147.609 379.357 152.095C380.563 158.578 386.02 164.581 392.682 165.307C399.83 165.932 406.975 165.915 414.103 165.899C420.87 165.884 427.623 165.868 434.35 166.402C446.347 168.235 452.279 184.878 444.167 193.932C439.934 201.539 430.676 201.53 423.163 201.523H423.158C422.933 201.523 422.709 201.522 422.487 201.522C418.825 201.458 415.132 201.544 411.429 201.629H411.428H411.428H411.427H411.426H411.426C400.916 201.872 390.333 202.117 380.21 198.951C359.492 192.591 343.877 171.913 343.987 150.016C343.473 133.996 343.57 117.913 343.666 101.861L343.667 101.846C343.705 95.4704 343.743 89.0995 343.743 82.7395C342.294 73.4396 348.347 62.9219 357.921 61.4457H357.909ZM704.915 71.6483C700.92 60.7615 684.94 57.4647 677.059 66.0265H677.047C671.095 70.6167 670.97 78.4076 670.853 85.6193V85.6219C670.821 87.6477 670.789 89.6277 670.628 91.4782C670.64 94.1205 670.64 96.7767 670.641 99.4429V99.4434C670.648 125.167 670.655 151.825 680.311 175.879C689.276 197.652 715.073 204.012 736.156 201.441C744.999 202.167 754.317 196.422 756.01 187.245C757.593 180.885 754.682 174.648 750.687 169.752C744.898 166.055 738.158 166.053 731.392 166.051C725.843 166.049 720.278 166.047 715.207 164.008C709.841 161.56 708.791 155.253 707.886 149.822C707.708 148.756 707.536 147.724 707.339 146.761C710.459 146.724 713.582 146.72 716.706 146.717C723.995 146.708 731.291 146.699 738.58 146.269C747.301 147.487 755.9 140.032 756.144 131.347C757.837 122.429 750.931 113.855 742.697 111.899C733.647 110.815 724.59 110.864 715.536 110.912C712.356 110.929 709.177 110.947 705.999 110.915C705.929 106.98 705.968 103.035 706.006 99.0882C706.095 89.9054 706.184 80.7167 704.915 71.6483ZM773.899 62.4172C778.71 60.5105 784.13 60.1045 788.636 62.7124C792.522 65.1604 796.517 68.5802 797.248 73.3532C798.212 82.4213 798.155 91.4828 798.098 100.496C798.076 103.893 798.055 107.283 798.088 110.663C801.266 110.695 804.445 110.678 807.625 110.661C816.679 110.613 825.736 110.564 834.786 111.648C842.788 113.357 849.207 121.427 848.355 129.989C847.392 137.087 843.142 144.788 835.273 145.772C826.367 146.51 817.468 146.418 808.565 146.325C805.597 146.295 802.629 146.264 799.659 146.264C799.82 147.338 799.931 148.487 800.046 149.667L800.046 149.668L800.047 149.67L800.047 149.671C800.535 154.681 801.077 160.251 805.591 163.018C810.832 165.794 816.974 165.785 823.053 165.777C831.44 165.765 839.708 165.753 845.322 173.056C852.35 182.836 846.771 197.278 835.761 200.341C815.773 203.761 791.791 201.682 777.748 185.05C768.139 172.336 766.086 156.01 764.153 140.635L764.149 140.605L764.144 140.565L764.138 140.511C764.03 139.653 763.922 138.799 763.814 137.948C763.639 135.146 763.45 132.343 763.26 129.541C762.259 114.728 761.257 99.9144 762.486 85.1011C762.145 75.6043 764.593 66.1199 773.911 62.4172H773.899ZM485.809 113.024C482.423 106.307 474.189 100.55 466.431 103.367L466.443 103.342C457.966 104.437 453.471 114.094 454.08 121.93C454.042 123.457 453.999 124.988 453.956 126.521V126.522C453.582 139.74 453.203 153.164 456.139 166.104C462.302 189.096 486.905 204.879 510.157 200.721C518.277 199.863 525.205 195.576 532.067 191.329C533.079 190.703 534.089 190.078 535.101 189.465C544.541 196.329 555.697 202.074 567.804 201.336C592.152 201.693 614.198 180.411 616.012 156.066C616.731 142.855 616.853 129.643 615.525 116.554C614.916 110.686 610.312 106.159 605.099 103.957C597.365 100.046 587.536 105.421 584.393 113.011C581.889 120.985 582.094 129.345 582.298 137.697C582.42 142.67 582.541 147.639 582.091 152.524C584.028 162.193 573.37 169.647 564.65 167.814C558.718 167.445 554.358 162.549 552.543 157.174C551.346 151.045 551.685 144.512 552.025 137.967C552.58 127.263 553.137 116.531 546.977 107.5C542.726 104.696 537.513 101.522 532.19 102.986C525.04 104.462 519.097 110.945 518.256 118.276C518.05 123.607 518.084 128.937 518.117 134.258V134.259V134.259C518.163 141.514 518.209 148.753 517.647 155.956C516.685 161.959 511.716 167.347 505.54 167.827C496.223 169.918 487.502 161.602 486.771 152.536C486.471 147.117 486.54 141.701 486.609 136.292C486.709 128.514 486.807 120.751 485.809 113.024ZM1006.78 104.221C1017.07 103.126 1027.49 103.003 1037.79 103.495C1048.08 103.864 1056.8 115.846 1052.57 125.625C1050.03 130.165 1046.51 135.294 1040.93 135.786C1035.41 136.259 1029.88 136.358 1024.35 136.457C1019.95 136.535 1015.55 136.614 1011.14 136.881C1004.72 137.373 999.267 142.503 998.305 148.998C997.748 155.995 997.794 163.037 997.841 170.095V170.099C997.874 175.251 997.908 180.412 997.708 185.57C997.208 195.731 985.589 204.662 975.893 200.381C971.411 197.81 966.332 194.145 965.723 188.646C964.505 174.573 964.505 160.512 965.601 146.439C967.294 125.146 985.711 106.189 1006.78 104.233V104.221ZM660.352 123.753C659.268 114.822 649.938 107.478 640.974 109.2V109.212C634.189 110.073 627.295 114.957 626.443 122.301C625.347 142.598 625.712 162.908 626.199 183.218C624.75 193.859 635.773 203.638 646.065 200.944C654.055 199.837 660.352 192.37 660.839 184.423C661.436 164.249 661.801 143.939 660.352 123.753ZM659.865 84.1174C664.237 72.0004 652.13 58.0506 639.768 61.3597H639.755C626.187 63.0819 620.621 83.6253 631.644 91.8304C640.011 100.638 657.209 96.345 659.865 84.1174Z" fill="#949494"/>
</svg>
