<svg xmlns="http://www.w3.org/2000/svg" width="1054" height="261" fill="none" xmlns:v="https://vecta.io/nano"><path fill-rule="evenodd" d="M317.989 30.914l.029-.013-.012-.012-.017.025zm0 0c-11.696 5.233-24.256 8.772-37.436 10.37 13.459-8.156 23.812-21.072 28.683-36.474-12.606 7.565-26.564 13.04-41.436 16.004C255.901 7.996 238.946 0 220.177 0c-36.029 0-65.236 29.499-65.236 65.887 0 5.154.572 10.198 1.693 15.02-54.225-2.755-102.299-28.982-134.479-68.851-5.615 9.731-8.843 21.048-8.843 33.128 0 22.856 11.522 43.03 29.025 54.84-10.694-.344-20.755-3.309-29.549-8.242-.012.271-.012.541-.012.824h0c0 31.923 22.484 58.555 52.325 64.608-5.469 1.513-11.23 2.312-17.186 2.312a64.01 64.01 0 0 1-12.265-1.181c8.295 26.178 32.386 45.233 60.948 45.762-22.338 17.677-50.462 28.207-81.033 28.207-5.262 0-10.463-.308-15.566-.923C28.867 250.089 63.165 261 100.009 261c120.009 0 185.635-100.417 185.635-187.486 0-2.854-.073-5.696-.195-8.525 12.732-9.282 23.798-20.873 32.54-34.074zm538.698 102.89c4.762-14.909 16.686-21.601 16.686-21.601s6.992-4.859 22.192-7.664c9.33-1.722 23.629-1.956 37.612 4.97 13.97 6.926 22.594 16.558 25.127 29.77 2.534 13.199.402 17.578-6.674 21.293-4.702 2.473-24.933 2.042-24.933 2.042l-37.709.222s.926 2.337 3.057 4.428c5.932 5.819 19.403 9.977 35.895 2.165 7.99-3.788 14.555-5.092 19.207-3.247s7.893 7.196 6.736 12.806c-1.157 5.597-6.65 11.083-12.74 15.032-6.078 3.949-18.051 6.778-30.365 7.652s-24.153-1.76-35.821-9.731-16.748-17.665-18.964-25.169-4.007-18.28.694-32.968zm33.3 6.077c-.11.21-.219.406-.317.615l.012.013 15.335.11 20.389.148-.134-.271h.134c-.438-.688-.889-1.353-1.352-1.98-.706-.984-1.486-1.894-2.338-2.706-5.847-5.868-13.398-7.246-20.182-4.884-4.763 1.279-9.001 4.232-11.547 8.955zM357.909 61.446c8.72-2.571 19.134 3.801 20.474 12.966.507 6.005.592 12.095.676 18.122l.055 3.652 18.98-.082c11.77-.116 23.554-.232 35.282.328 6.784 1.095 13.081 6.606 13.933 13.704 2.668 8.931-4.238 19.448-13.203 20.912-12.083.969-24.213.825-36.363.682l-19.116-.067c.081 2.283.094 4.565.108 6.843v.002.001h0 0v.001h0c.027 4.559.054 9.1.622 13.586 1.206 6.483 6.663 12.486 13.325 13.212 7.148.625 14.293.608 21.421.592 6.767-.015 13.52-.031 20.247.503 11.997 1.833 17.929 18.476 9.817 27.53-4.233 7.607-13.491 7.598-21.004 7.591h-.005c-.225 0-.449-.001-.671-.001-3.662-.064-7.355.022-11.058.107h-.001 0-.001-.001 0c-10.51.243-21.093.488-31.216-2.678-20.718-6.36-36.333-27.038-36.223-48.935-.514-16.02-.417-32.103-.321-48.155l.001-.015.076-19.106c-1.449-9.3 4.604-19.818 14.178-21.294h-.012zm347.006 10.203c-3.995-10.887-19.975-14.184-27.856-5.622h-.012c-5.952 4.59-6.077 12.381-6.194 19.593v.003c-.032 2.026-.064 4.006-.225 5.856l.013 7.965h0c.007 25.724.014 52.382 9.67 76.436 8.965 21.773 34.762 28.133 55.845 25.562 8.843.726 18.161-5.019 19.854-14.196 1.583-6.36-1.328-12.597-5.323-17.493-5.789-3.697-12.529-3.699-19.295-3.701-5.549-.002-11.114-.004-16.185-2.043-5.366-2.448-6.416-8.755-7.321-14.186l-.547-3.061 9.367-.044c7.289-.009 14.585-.018 21.874-.448 8.721 1.218 17.32-6.237 17.564-14.922 1.693-8.918-5.213-17.492-13.447-19.448-9.05-1.084-18.107-1.035-27.161-.987l-9.537.003c-.07-3.935-.031-7.88.007-11.827.089-9.183.178-18.371-1.091-27.44zm68.984-9.231c4.811-1.907 10.231-2.313 14.737.295 3.886 2.448 7.881 5.868 8.612 10.641.964 9.068.907 18.13.85 27.143l-.01 10.167 9.537-.002c9.054-.048 18.111-.097 27.161.987 8.002 1.709 14.421 9.779 13.569 18.341-.963 7.098-5.213 14.799-13.082 15.783-8.906.738-17.805.646-26.708.553l-8.906-.061c.161 1.074.272 2.223.387 3.403v.001l.001.002v.001c.488 5.01 1.03 10.58 5.544 13.347 5.241 2.776 11.383 2.767 17.462 2.759 8.387-.012 16.655-.024 22.269 7.279 7.028 9.78 1.449 24.222-9.561 27.285-19.988 3.42-43.97 1.341-58.013-15.291-9.609-12.714-11.662-29.04-13.595-44.415l-.004-.03-.005-.04-.006-.054-.324-2.563-.554-8.407c-1.001-14.813-2.003-29.627-.774-44.44-.341-9.497 2.107-18.981 11.425-22.684h-.012zm-288.09 50.607c-3.386-6.717-11.62-12.474-19.378-9.657l.012-.025c-8.477 1.095-12.972 10.752-12.363 18.588l-.124 4.591v.001c-.374 13.218-.753 26.642 2.183 39.582 6.163 22.992 30.766 38.775 54.018 34.617 8.12-.858 15.048-5.145 21.91-9.392l3.034-1.864c9.44 6.864 20.596 12.609 32.703 11.871 24.348.357 46.394-20.925 48.208-45.27.719-13.211.841-26.423-.487-39.512-.609-5.868-5.213-10.395-10.426-12.597-7.734-3.911-17.563 1.464-20.706 9.054-2.504 7.974-2.299 16.334-2.095 24.686.122 4.973.243 9.942-.207 14.827 1.937 9.669-8.721 17.123-17.441 15.29-5.932-.369-10.292-5.265-12.107-10.64-1.197-6.129-.858-12.662-.518-19.207.555-10.704 1.112-21.436-5.048-30.467-4.251-2.804-9.464-5.978-14.787-4.514-7.15 1.476-13.093 7.959-13.934 15.29-.206 5.331-.172 10.661-.139 15.982v.001h0c.046 7.255.092 14.494-.47 21.697-.962 6.003-5.931 11.391-12.107 11.871-9.317 2.091-18.038-6.225-18.769-15.291-.3-5.419-.231-10.835-.162-16.244.1-7.778.198-15.541-.8-23.268zm520.971-8.803c10.29-1.095 20.71-1.218 31.01-.726 10.29.369 19.01 12.351 14.78 22.13-2.54 4.54-6.06 9.669-11.64 10.161-5.52.473-11.05.572-16.58.671l-13.21.424c-6.42.492-11.873 5.622-12.835 12.117-.557 6.997-.511 14.039-.464 21.097v.004l-.133 15.471c-.5 10.161-12.119 19.092-21.815 14.811-4.482-2.571-9.561-6.236-10.17-11.735-1.218-14.073-1.218-28.134-.122-42.207 1.693-21.293 20.11-40.25 41.179-42.206v-.012zm-346.428 19.532c-1.084-8.931-10.414-16.275-19.378-14.553v.012c-6.785.861-13.679 5.745-14.531 13.089-1.096 20.297-.731 40.607-.244 60.917-1.449 10.641 9.574 20.42 19.866 17.726 7.99-1.107 14.287-8.574 14.774-16.521.597-20.174.962-40.484-.487-60.67zm-.487-39.636C664.237 72 652.13 58.051 639.768 61.36h-.013c-13.568 1.722-19.134 22.266-8.111 30.471 8.367 8.808 25.565 4.515 28.221-7.713z" fill="#1d9bf0"/></svg>