<svg xmlns="http://www.w3.org/2000/svg" width="1123" height="261" fill="none" xmlns:v="https://vecta.io/nano"><path d="M1096.99 159c-.7 3.518-1.9 6.589-3.6 9.227-1.69 2.634-3.98 4.833-6.69 6.418-2.74 1.643-6.17 2.468-10.27 2.468-3.99 0-7.39-.825-10.2-2.468-2.81-1.631-5.06-3.779-6.77-6.418-1.69-2.638-2.92-5.709-3.69-9.227-.76-3.521-1.14-7.113-1.14-10.715 0-3.764.36-7.396 1.06-10.904.7-3.518 1.91-6.622 3.6-9.332 1.7-2.688 3.93-4.884 6.68-6.581s6.18-2.559 10.28-2.559c3.98 0 7.35.86 10.1 2.559 2.76 1.697 5.01 3.917 6.77 6.675s3.02 5.896 3.78 9.407c.77 3.526 1.15 7.126 1.15 10.735a54.75 54.75 0 0 1-1.06 10.715zm23.55-28.572c-1.65-5.913-4.16-11.103-7.56-15.558s-7.67-8.031-12.82-10.722c-5.17-2.702-11.32-4.042-18.47-4.042-5.61 0-10.77 1.108-15.46 3.335-4.68 2.23-8.55 5.805-11.6 10.727h-.34V102.56h-23.73v122.726h24.95v-43.074h.35c3.05 4.458 6.95 7.822 11.69 10.101 4.74 2.286 9.93 3.435 15.56 3.435 6.67 0 12.5-1.298 17.49-3.871 4.97-2.574 9.14-6.038 12.47-10.376 3.35-4.339 5.82-9.315 7.47-14.94s2.46-11.489 2.46-17.582c0-6.447-.81-12.626-2.46-18.551zm-123.012 28.571c-.709 3.518-1.914 6.589-3.607 9.227-1.699 2.639-3.928 4.787-6.688 6.418-2.745 1.643-6.178 2.468-10.275 2.468-3.988 0-7.373-.825-10.184-2.468-2.818-1.631-5.07-3.779-6.771-6.418s-2.927-5.709-3.692-9.227-1.142-7.113-1.136-10.715c0-3.764.342-7.396 1.044-10.904.712-3.518 1.905-6.622 3.61-9.332 1.687-2.688 3.921-4.884 6.682-6.581 2.748-1.699 6.166-2.559 10.274-2.559 3.978 0 7.359.86 10.104 2.559 2.737 1.677 5.052 3.96 6.766 6.675 1.754 2.757 3.013 5.896 3.778 9.407a50.37 50.37 0 0 1 1.136 10.735 54.83 54.83 0 0 1-1.041 10.715zm15.982-44.13c-3.39-4.452-7.67-8.031-12.83-10.722-5.156-2.702-11.301-4.042-18.443-4.042-5.632 0-10.783 1.108-15.464 3.335-4.7 2.23-8.554 5.805-11.598 10.727h-.358v-11.608h-23.732v122.727h24.971v-43.074h.338c3.043 4.458 6.949 7.822 11.698 10.101 4.733 2.286 9.922 3.435 15.546 3.435 6.683 0 12.507-1.298 17.482-3.871s9.14-6.038 12.48-10.376 5.82-9.315 7.48-14.94c1.62-5.629 2.45-11.489 2.45-17.582 0-6.447-.83-12.627-2.45-18.552-1.66-5.913-4.17-11.103-7.57-15.558zm-164.133 30.066l16.344-46.067h.348l15.819 46.067h-32.511zm2.632-77.009l-47.445 125.531h27.767l9.836-27.955h46.928l9.481 27.955h28.653l-46.918-125.53-28.302-.001zm-49.558 85.712a22.62 22.62 0 0 0-6.501-7.214c-2.694-1.927-5.777-3.485-9.226-4.662a108.31 108.31 0 0 0-10.638-2.978l-10.36-2.29c-3.398-.708-6.422-1.497-9.059-2.372-2.633-.881-4.763-2.016-6.406-3.434-1.646-1.403-2.458-3.217-2.458-5.447 0-1.876.457-3.369 1.4-4.485.932-1.102 2.106-1.976 3.429-2.552 1.351-.581 2.834-.96 4.479-1.142a43.57 43.57 0 0 1 4.568-.255c4.455 0 8.322.847 11.609 2.546 3.27 1.699 5.092 4.953 5.438 9.755h23.725c-.47-5.622-1.901-10.279-4.306-13.982-2.398-3.686-5.42-6.648-9.049-8.872s-7.758-3.807-12.394-4.747c-4.627-.939-9.397-1.402-14.311-1.402a78.72 78.72 0 0 0-14.41 1.309c-4.695.884-8.912 2.414-12.656 4.577-3.754 2.168-6.766 5.123-9.056 8.878-2.288 3.749-3.429 8.561-3.429 14.416 0 3.985.827 7.362 2.469 10.113 1.625 2.758 3.804 5.034 6.488 6.853 2.703 1.817 5.781 3.288 9.235 4.393a120.57 120.57 0 0 0 10.626 2.909c8.914 1.878 15.858 3.746 20.832 5.628 4.979 1.872 7.469 4.684 7.469 8.439 0 2.226-.522 4.062-1.579 5.53-1.038 1.453-2.389 2.655-3.953 3.518-1.591.883-3.349 1.531-5.274 1.932-1.934.414-3.784.621-5.539.621-2.461 0-4.832-.297-7.11-.88-2.292-.588-4.312-1.497-6.068-2.729s-3.198-2.807-4.309-4.747c-1.105-1.935-1.674-4.24-1.674-6.944h-23.722c.24 6.095 1.613 11.168 4.139 15.21 2.507 4.043 5.727 7.293 9.659 9.759 3.923 2.457 8.409 4.22 13.452 5.278a75.31 75.31 0 0 0 15.45 1.581 78.06 78.06 0 0 0 15.21-1.491c4.978-.999 9.402-2.73 13.268-5.196 3.875-2.456 6.996-5.708 9.405-9.755 2.395-4.049 3.594-9.059 3.594-15.038 0-4.225-.818-7.76-2.457-10.631zM699.298 75.313h-24.959v27.247h-15.108v16.7h15.108v53.628c0 4.578.77 8.265 2.287 11.076 1.525 2.809 3.603 4.991 6.237 6.51 2.636 1.525 5.685 2.546 9.142 3.074 3.446.523 7.123.79 10.981.79 2.47 0 4.981-.063 7.563-.169 2.572-.121 4.913-.349 7.027-.711v-19.342c-1.221.249-2.455.426-3.697.529a43.93 43.93 0 0 1-4.039.181c-4.215 0-7.03-.71-8.439-2.114-1.398-1.403-2.103-4.218-2.103-8.442v-45.01h18.278v-16.7h-18.277l-.001-27.247zm-71.526 82.976c0 1.419-.143 3.293-.44 5.634-.291 2.35-1.083 4.656-2.371 6.943s-3.288 4.256-5.975 5.889c-2.693 1.647-6.501 2.466-11.427 2.466-1.986 0-3.923-.175-5.797-.533-1.877-.346-3.514-.967-4.92-1.843s-2.52-2.081-3.341-3.606c-.815-1.522-1.23-3.392-1.23-5.618 0-2.343.415-4.29 1.23-5.805.792-1.486 1.905-2.778 3.257-3.782 1.34-.995 2.924-1.785 4.741-2.377 1.814-.584 3.664-1.053 5.537-1.405 1.987-.343 3.984-.646 5.97-.879a77.52 77.52 0 0 0 5.713-.876 40.01 40.01 0 0 0 5.101-1.324c1.581-.528 2.895-1.251 3.952-2.194v9.31zm24.953 14.95v-47.29c0-5.518-1.225-9.938-3.693-13.274-2.455-3.343-5.62-5.948-9.482-7.824-3.872-1.874-8.151-3.137-12.836-3.78-4.599-.638-9.236-.96-13.88-.965-5.034 0-10.048.494-15.02 1.493-4.992.995-9.463 2.668-13.449 5.008-3.951 2.309-7.317 5.498-9.837 9.318-2.586 3.868-4.049 8.733-4.399 14.595h24.952c.469-4.926 2.117-8.445 4.929-10.553s6.672-3.159 11.598-3.159c2.222 0 4.298.147 6.236.437 1.93.296 3.631.874 5.097 1.758 1.466.878 2.637 2.106 3.512 3.693.879 1.581 1.319 3.725 1.319 6.413.116 2.586-.648 4.538-2.281 5.889-1.646 1.355-3.869 2.383-6.682 3.077-2.812.71-6.034 1.239-9.668 1.579-3.634.359-7.322.837-11.066 1.415-3.76.589-7.484 1.381-11.157 2.374-3.69.99-6.981 2.493-9.847 4.477-2.873 2.002-5.214 4.665-7.036 8.007-1.812 3.342-2.719 7.595-2.719 12.746 0 4.687.79 8.73 2.372 12.125 1.581 3.409 3.776 6.211 6.592 8.441s6.092 3.872 9.841 4.93c3.743 1.051 7.788 1.581 12.128 1.581 5.596.001 11.16-.827 16.512-2.458 5.392-1.653 10.084-4.514 14.068-8.623.116 1.524.32 3.024.61 4.485a35.73 35.73 0 0 0 1.146 4.304h25.308c-1.17-1.864-1.996-4.68-2.46-8.437-.475-3.748-.708-7.668-.708-11.782zm-102.808-62.856c-2.457-3.225-5.827-5.74-10.097-7.562-4.282-1.808-9.76-2.715-16.435-2.715-4.687 0-9.489 1.197-14.415 3.604-4.918 2.397-8.962 6.239-12.123 11.517h-.528v-47.3h-24.955v125.531h24.955v-47.645c0-9.258 1.522-15.905 4.571-19.956 3.042-4.039 7.963-6.063 14.762-6.063 5.973 0 10.133 1.844 12.477 5.541 2.343 3.689 3.514 9.288 3.514 16.787v51.337H556.6V137.55c0-5.622-.503-10.747-1.495-15.386-.997-4.622-2.725-8.554-5.188-11.781zm-131.802 44.048h-.348l-21.439-86.503h-25.835l-21.794 85.446h-.35L328.49 67.927h-27.587l33.213 125.531h27.945l20.908-85.447h.352l21.265 85.447h27.416l33.743-125.531h-27.063l-20.567 86.504zm-228.763 1.975c-3.23-1.617-19.116-9.435-22.077-10.512s-5.116-1.619-7.27 1.615-8.345 10.515-10.231 12.67-3.768 2.429-7 .812-13.642-5.031-25.984-16.04c-9.604-8.568-16.089-19.153-17.973-22.389s-.202-4.98 1.416-6.593c1.454-1.447 3.231-3.776 4.847-5.66 1.615-1.89 2.154-3.236 3.231-5.394s.537-4.045-.269-5.661-7.27-17.524-9.963-23.993c-2.622-6.3-5.286-5.449-7.269-5.546-1.882-.097-4.039-.117-6.192-.117s-5.654.812-8.616 4.044-11.309 11.054-11.309 26.959 11.579 31.272 13.194 33.431c1.615 2.154 22.782 34.797 55.194 48.794 7.71 3.329 13.729 5.317 18.42 6.807 7.74 2.458 14.784 2.111 20.35 1.28 6.209-.928 19.118-7.818 21.81-15.367s2.692-14.016 1.884-15.367-2.961-2.155-6.193-3.773zm-58.953 80.508h-.044c-19.285-.006-38.202-5.192-54.703-14.985l-3.925-2.327-40.678 10.671 10.858-39.666-2.556-4.067c-10.759-17.116-16.44-36.898-16.432-57.207.024-59.27 48.239-107.488 107.524-107.488 28.706.01 55.692 11.207 75.984 31.525s31.461 47.326 31.451 76.049c-.025 59.272-48.239 107.495-107.478 107.495zM130.397 0C59.122 0 1.115 58.015 1.085 129.321c-.009 22.796 5.946 45.047 17.26 64.656L0 261l68.551-17.983c18.887 10.302 40.152 15.73 61.796 15.738h.052c71.268 0 129.282-58.019 129.31-129.33.014-34.553-13.424-67.049-37.839-91.494S164.989.017 130.397 0z" fill="#25d366"/></svg>