<svg width="1291" height="300" viewBox="0 0 1291 300" fill="none" xmlns="http://www.w3.org/2000/svg">
<path d="M1260.9 182.758C1260.1 186.802 1258.72 190.333 1256.77 193.364C1254.82 196.392 1252.19 198.919 1249.09 200.741C1245.93 202.63 1241.99 203.578 1237.27 203.578C1232.69 203.578 1228.79 202.63 1225.56 200.741C1222.32 198.867 1219.73 196.398 1217.77 193.364C1215.83 190.333 1214.41 186.802 1213.53 182.758C1212.66 178.712 1212.22 174.583 1212.22 170.443C1212.22 166.117 1212.63 161.942 1213.44 157.909C1214.24 153.866 1215.63 150.298 1217.58 147.183C1219.53 144.093 1222.09 141.569 1225.26 139.619C1228.41 137.666 1232.35 136.677 1237.07 136.677C1241.65 136.677 1245.52 137.666 1248.68 139.619C1251.85 141.569 1254.44 144.12 1256.46 147.29C1258.49 150.46 1259.94 154.068 1260.81 158.103C1261.69 162.157 1262.13 166.294 1262.12 170.443C1262.12 174.607 1261.71 178.722 1260.9 182.758ZM1287.97 149.918C1286.09 143.121 1283.19 137.155 1279.28 132.034C1275.38 126.917 1270.47 122.803 1264.55 119.71C1258.61 116.605 1251.54 115.064 1243.33 115.064C1236.87 115.064 1230.94 116.337 1225.56 118.898C1220.17 121.461 1215.72 125.571 1212.22 131.228H1211.83V117.885H1184.55V258.949H1213.23V209.439H1213.64C1217.14 214.563 1221.62 218.43 1227.07 221.05C1232.52 223.677 1238.49 224.998 1244.95 224.998C1252.62 224.998 1259.32 223.505 1265.05 220.548C1270.77 217.589 1275.56 213.608 1279.39 208.622C1283.24 203.635 1286.09 197.915 1287.97 191.449C1289.87 184.979 1290.8 178.243 1290.8 171.24C1290.8 163.83 1289.87 156.728 1287.97 149.918ZM1146.58 182.757C1145.77 186.801 1144.38 190.332 1142.44 193.363C1140.48 196.397 1137.92 198.866 1134.75 200.74C1131.6 202.629 1127.65 203.577 1122.94 203.577C1118.36 203.577 1114.47 202.629 1111.23 200.74C1108 198.866 1105.41 196.397 1103.45 193.363C1101.5 190.332 1100.09 186.801 1099.21 182.757C1098.33 178.711 1097.9 174.582 1097.9 170.442C1097.9 166.115 1098.3 161.94 1099.1 157.908C1099.92 153.865 1101.29 150.297 1103.25 147.182C1105.19 144.092 1107.76 141.567 1110.93 139.618C1114.09 137.664 1118.02 136.675 1122.74 136.675C1127.31 136.675 1131.2 137.664 1134.35 139.618C1137.5 141.544 1140.16 144.169 1142.13 147.289C1144.15 150.458 1145.59 154.067 1146.47 158.102C1147.35 162.156 1147.79 166.294 1147.78 170.442C1147.79 174.576 1147.39 178.701 1146.58 182.757ZM1164.96 132.033C1161.06 126.916 1156.14 122.802 1150.21 119.709C1144.28 116.604 1137.22 115.063 1129.01 115.063C1122.53 115.063 1116.61 116.336 1111.23 118.897C1105.83 121.46 1101.4 125.569 1097.9 131.227H1097.49V117.884H1070.21V258.949H1098.92V209.439H1099.3C1102.8 214.563 1107.29 218.43 1112.75 221.05C1118.19 223.677 1124.15 224.998 1130.62 224.998C1138.3 224.998 1144.99 223.505 1150.72 220.548C1156.44 217.589 1161.22 213.608 1165.06 208.622C1168.9 203.635 1171.75 197.915 1173.65 191.449C1175.52 184.979 1176.48 178.243 1176.48 171.24C1176.48 163.83 1175.52 156.727 1173.65 149.916C1171.75 143.12 1168.86 137.154 1164.96 132.033ZM976.296 166.592L995.082 113.641H995.482L1013.66 166.592H976.296ZM979.321 78.0754L924.787 222.365H956.702L968.008 190.232H1021.95L1032.85 222.365H1065.78L1011.85 78.0765L979.321 78.0754ZM922.357 176.595C920.496 173.322 917.946 170.493 914.885 168.303C911.788 166.088 908.245 164.298 904.28 162.945C900.265 161.597 896.184 160.454 892.053 159.522C888.095 158.593 884.125 157.715 880.144 156.889C876.239 156.076 872.763 155.169 869.732 154.164C866.705 153.151 864.257 151.846 862.368 150.216C860.476 148.603 859.544 146.518 859.544 143.955C859.544 141.799 860.069 140.083 861.153 138.8C862.224 137.533 863.573 136.529 865.095 135.867C866.647 135.199 868.351 134.763 870.242 134.554C871.986 134.365 873.739 134.267 875.494 134.261C880.614 134.261 885.058 135.235 888.836 137.187C892.595 139.14 894.69 142.88 895.087 148.4H922.357C921.818 141.938 920.172 136.585 917.408 132.329C914.652 128.092 911.178 124.688 907.007 122.132C902.84 119.571 898.09 117.756 892.761 116.675C887.442 115.596 881.96 115.063 876.312 115.063C870.647 115.063 865.122 115.569 859.748 116.568C854.351 117.584 849.504 119.343 845.201 121.829C840.887 124.321 837.425 127.717 834.792 132.033C832.162 136.342 830.85 141.873 830.85 148.603C830.85 153.184 831.802 157.065 833.689 160.228C835.556 163.398 838.061 166.014 841.146 168.105C844.253 170.193 847.791 171.884 851.761 173.154C855.779 174.454 859.855 175.57 863.975 176.498C874.22 178.656 882.202 180.804 887.92 182.967C893.643 185.119 896.505 188.35 896.505 192.666C896.505 195.226 895.904 197.336 894.689 199.023C893.496 200.693 891.943 202.075 890.146 203.067C888.317 204.082 886.297 204.827 884.084 205.288C881.861 205.763 879.735 206.001 877.717 206.001C874.889 206.001 872.163 205.66 869.544 204.989C866.911 204.314 864.589 203.269 862.571 201.853C860.552 200.442 858.894 198.626 857.617 196.397C856.347 194.172 855.694 191.523 855.694 188.414H828.426C828.702 195.421 830.28 201.251 833.183 205.897C836.065 210.545 839.767 214.28 844.287 217.115C848.795 219.939 853.952 221.965 859.748 223.181C865.59 224.397 871.541 225.006 877.507 224.999C883.377 225.001 889.232 224.427 894.99 223.285C900.712 222.137 905.796 220.148 910.24 217.313C914.695 214.49 918.281 210.752 921.05 206.1C923.803 201.446 925.182 195.688 925.182 188.815C925.182 183.958 924.241 179.895 922.357 176.595ZM803.791 86.5667H775.102V117.885H757.737V137.081H775.102V198.722C775.102 203.984 775.987 208.222 777.731 211.453C779.484 214.682 781.872 217.19 784.899 218.936C787.93 220.688 791.434 221.863 795.408 222.469C799.369 223.071 803.595 223.377 808.029 223.377C810.868 223.377 813.755 223.304 816.723 223.182C819.679 223.043 822.37 222.782 824.799 222.366V200.134C823.396 200.42 821.978 200.623 820.551 200.741C819.007 200.882 817.458 200.952 815.908 200.95C811.064 200.95 807.827 200.134 806.209 198.519C804.601 196.907 803.791 193.671 803.791 188.816V137.081H824.799V117.885H803.792L803.791 86.5667ZM721.577 181.942C721.577 183.572 721.412 185.726 721.071 188.417C720.737 191.118 719.826 193.769 718.346 196.398C716.864 199.025 714.567 201.29 711.478 203.167C708.383 205.059 704.006 206.001 698.343 206.001C696.061 206.001 693.835 205.8 691.681 205.388C689.522 204.991 687.642 204.277 686.025 203.27C684.412 202.26 683.129 200.878 682.185 199.125C681.248 197.375 680.772 195.227 680.772 192.667C680.772 189.975 681.248 187.737 682.185 185.995C683.096 184.287 684.374 182.802 685.928 181.648C687.469 180.505 689.29 179.597 691.378 178.916C693.464 178.244 695.589 177.705 697.743 177.302C700.026 176.907 702.321 176.559 704.605 176.291C706.806 176.037 708.996 175.701 711.171 175.284C713.157 174.906 715.116 174.397 717.035 173.762C718.852 173.155 720.362 172.324 721.577 171.24V181.942ZM750.259 199.125V144.769C750.259 138.427 748.851 133.346 746.014 129.512C743.192 125.669 739.554 122.675 735.115 120.518C730.664 118.364 725.746 116.912 720.361 116.174C715.075 115.44 709.744 115.07 704.407 115.064C698.621 115.064 692.857 115.632 687.143 116.78C681.405 117.924 676.265 119.848 671.683 122.537C667.142 125.191 663.274 128.856 660.377 133.247C657.405 137.693 655.723 143.285 655.321 150.023H684.001C684.54 144.361 686.434 140.317 689.667 137.894C692.897 135.467 697.335 134.262 702.998 134.262C705.552 134.262 707.938 134.431 710.166 134.764C712.384 135.105 714.339 135.769 716.024 136.785C717.71 137.794 719.055 139.206 720.061 141.03C721.071 142.847 721.577 145.311 721.577 148.401C721.71 151.374 720.832 153.617 718.955 155.17C717.063 156.728 714.508 157.909 711.275 158.707C708.042 159.523 704.339 160.131 700.162 160.522C695.985 160.934 691.746 161.484 687.442 162.148C683.121 162.825 678.84 163.736 674.618 164.877C670.377 166.015 666.595 167.742 663.3 170.023C659.998 172.324 657.306 175.385 655.212 179.227C653.13 183.068 652.088 187.956 652.088 193.877C652.088 199.264 652.995 203.911 654.814 207.814C656.631 211.732 659.154 214.953 662.391 217.516C665.625 220.076 669.393 221.966 673.702 223.182C678.005 224.39 682.654 225 687.643 225C694.074 225.002 700.47 224.05 706.622 222.175C712.82 220.275 718.213 216.986 722.792 212.264C722.925 214.015 723.16 215.739 723.493 217.419C723.83 219.095 724.272 220.756 724.81 222.366H753.9C752.555 220.223 751.605 216.986 751.073 212.668C750.526 208.36 750.259 203.854 750.259 199.125ZM632.088 126.877C629.265 123.17 625.391 120.279 620.483 118.185C615.561 116.107 609.264 115.064 601.593 115.064C596.205 115.064 590.686 116.44 585.023 119.207C579.37 121.962 574.722 126.378 571.089 132.445H570.482V78.0765H541.798V222.366H570.482V167.601C570.482 156.96 572.231 149.319 575.735 144.663C579.232 140.021 584.889 137.694 592.704 137.694C599.568 137.694 604.35 139.814 607.045 144.064C609.738 148.303 611.084 154.74 611.084 163.358V222.367H639.77V158.104C639.77 151.642 639.192 145.75 638.052 140.418C636.906 135.106 634.919 130.587 632.088 126.877ZM480.592 177.507H480.192L455.55 78.0777H425.854L400.803 176.292H400.401L377.575 78.0765H345.866L384.041 222.366H416.162L440.194 124.15H440.599L465.041 222.366H496.554L535.339 78.0765H504.232L480.592 177.507ZM217.646 179.776C213.934 177.918 195.673 168.932 192.27 167.694C188.865 166.454 186.39 165.833 183.914 169.551C181.438 173.271 174.321 181.637 172.154 184.114C169.989 186.596 167.823 186.906 164.108 185.047C160.395 183.186 148.428 179.264 134.242 166.61C123.202 156.762 115.748 144.595 113.583 140.875C111.416 137.161 113.35 135.151 115.211 133.297C116.881 131.634 118.925 128.958 120.782 126.792C122.637 124.62 123.257 123.072 124.495 120.592C125.734 118.115 125.113 115.942 124.186 114.085C123.257 112.225 115.829 93.9425 112.734 86.5069C109.72 79.2654 106.659 80.2431 104.378 80.1325C102.215 80.0207 99.7354 79.9981 97.261 79.9981C94.7855 79.9981 90.7623 80.9318 87.3577 84.6462C83.9542 88.3652 74.3591 97.3521 74.3591 115.633C74.3591 133.915 87.6681 151.578 89.5251 154.06C91.3809 156.536 115.712 194.056 152.967 210.145C161.828 213.971 168.747 216.256 174.14 217.969C183.036 220.794 191.132 220.396 197.53 219.441C204.667 218.374 219.504 210.454 222.599 201.777C225.693 193.101 225.693 185.667 224.765 184.114C223.837 182.566 221.361 181.637 217.646 179.776ZM149.884 272.314H149.833C127.666 272.308 105.923 266.348 86.9558 255.09L82.445 252.416L35.6883 264.681L48.1688 219.089L45.2304 214.413C32.864 194.74 26.3336 172.002 26.3427 148.659C26.3697 80.5321 81.7902 25.1091 149.933 25.1091C182.929 25.1204 213.947 37.9911 237.271 61.3446C260.596 84.6982 273.434 115.743 273.422 148.757C273.393 216.886 217.975 272.314 149.884 272.314ZM149.882 0C67.9563 0 1.28124 66.6837 1.24737 148.645C1.23721 174.847 8.08138 200.423 21.0868 222.962L0 300L78.7943 279.33C100.503 291.171 124.946 297.41 149.824 297.419H149.884C231.801 297.419 298.484 230.731 298.517 148.765C298.532 109.049 283.086 71.6965 255.023 43.5989C226.962 15.5002 189.642 0.0191931 149.882 0Z" fill="#949494"/>
</svg>
