<svg width="1123" height="261" viewBox="0 0 1123 261" fill="none" xmlns="http://www.w3.org/2000/svg">
<path d="M1096.99 159C1096.29 162.518 1095.09 165.589 1093.39 168.227C1091.7 170.861 1089.41 173.06 1086.7 174.645C1083.96 176.288 1080.53 177.113 1076.43 177.113C1072.44 177.113 1069.04 176.288 1066.23 174.645C1063.42 173.014 1061.17 170.866 1059.46 168.227C1057.77 165.589 1056.54 162.518 1055.77 159C1055.01 155.479 1054.63 151.887 1054.63 148.285C1054.63 144.521 1054.99 140.889 1055.69 137.381C1056.39 133.863 1057.6 130.759 1059.29 128.049C1060.99 125.361 1063.22 123.165 1065.97 121.468C1068.72 119.769 1072.15 118.909 1076.25 118.909C1080.23 118.909 1083.6 119.769 1086.35 121.468C1089.11 123.165 1091.36 125.385 1093.12 128.143C1094.88 130.9 1096.14 134.039 1096.9 137.55C1097.67 141.076 1098.05 144.676 1098.05 148.285C1098.05 151.908 1097.69 155.488 1096.99 159ZM1120.54 130.428C1118.89 124.515 1116.38 119.325 1112.98 114.87C1109.58 110.418 1105.31 106.839 1100.16 104.148C1094.99 101.446 1088.84 100.106 1081.69 100.106C1076.08 100.106 1070.92 101.214 1066.23 103.441C1061.55 105.671 1057.68 109.246 1054.63 114.168H1054.29V102.56H1030.56V225.286H1055.51V182.212H1055.86C1058.91 186.67 1062.81 190.034 1067.55 192.313C1072.29 194.599 1077.48 195.748 1083.11 195.748C1089.78 195.748 1095.61 194.45 1100.6 191.877C1105.57 189.303 1109.74 185.839 1113.07 181.501C1116.42 177.162 1118.89 172.186 1120.54 166.561C1122.19 160.932 1123 155.072 1123 148.979C1123 142.532 1122.19 136.353 1120.54 130.428ZM997.528 158.999C996.819 162.517 995.614 165.588 993.921 168.226C992.222 170.865 989.993 173.013 987.233 174.644C984.488 176.287 981.055 177.112 976.958 177.112C972.97 177.112 969.585 176.287 966.774 174.644C963.956 173.013 961.704 170.865 960.003 168.226C958.304 165.588 957.076 162.517 956.311 158.999C955.55 155.478 955.169 151.886 955.175 148.284C955.175 144.52 955.517 140.888 956.219 137.38C956.931 133.862 958.124 130.758 959.829 128.048C961.516 125.36 963.75 123.164 966.511 121.467C969.259 119.768 972.677 118.908 976.785 118.908C980.763 118.908 984.144 119.768 986.889 121.467C989.626 123.144 991.941 125.427 993.655 128.142C995.409 130.899 996.668 134.038 997.433 137.549C998.195 141.076 998.576 144.675 998.569 148.284C998.574 151.881 998.226 155.47 997.528 158.999ZM1013.51 114.869C1010.12 110.417 1005.84 106.838 1000.68 104.147C995.524 101.445 989.379 100.105 982.237 100.105C976.605 100.105 971.454 101.213 966.773 103.44C962.073 105.67 958.219 109.245 955.175 114.167H954.817V102.559H931.085V225.286H956.056V182.212H956.394C959.437 186.67 963.343 190.034 968.092 192.313C972.825 194.599 978.014 195.748 983.638 195.748C990.321 195.748 996.145 194.45 1001.12 191.877C1006.1 189.303 1010.26 185.839 1013.6 181.501C1016.94 177.162 1019.42 172.186 1021.08 166.561C1022.7 160.932 1023.53 155.072 1023.53 148.979C1023.53 142.532 1022.7 136.352 1021.08 130.427C1019.42 124.514 1016.91 119.324 1013.51 114.869ZM849.377 144.935L865.721 98.868H866.069L881.888 144.935H849.377ZM852.009 67.9256L804.564 193.457H832.331L842.167 165.502H889.095L898.576 193.457H927.229L880.311 67.9266L852.009 67.9256ZM802.451 153.638C800.832 150.791 798.613 148.329 795.95 146.424C793.256 144.497 790.173 142.939 786.724 141.762C783.231 140.589 779.68 139.595 776.086 138.784C772.642 137.976 769.189 137.212 765.726 136.494C762.328 135.786 759.304 134.997 756.667 134.122C754.034 133.241 751.904 132.106 750.261 130.688C748.615 129.285 747.803 127.471 747.803 125.241C747.803 123.365 748.26 121.872 749.203 120.756C750.135 119.654 751.309 118.78 752.632 118.204C753.983 117.623 755.466 117.244 757.111 117.062C758.628 116.897 760.153 116.812 761.679 116.807C766.134 116.807 770.001 117.654 773.288 119.353C776.558 121.052 778.38 124.306 778.726 129.108H802.451C801.981 123.486 800.55 118.829 798.145 115.126C795.747 111.44 792.725 108.478 789.096 106.254C785.471 104.027 781.338 102.447 776.702 101.507C772.075 100.568 767.305 100.105 762.391 100.105C757.463 100.105 752.656 100.545 747.981 101.414C743.286 102.298 739.069 103.828 735.325 105.991C731.571 108.159 728.559 111.114 726.269 114.869C723.981 118.618 722.84 123.43 722.84 129.285C722.84 133.27 723.667 136.647 725.309 139.398C726.934 142.156 729.113 144.432 731.797 146.251C734.5 148.068 737.578 149.539 741.032 150.644C744.528 151.775 748.074 152.746 751.658 153.553C760.572 155.431 767.516 157.299 772.49 159.181C777.469 161.053 779.959 163.865 779.959 167.62C779.959 169.846 779.437 171.682 778.38 173.15C777.342 174.603 775.991 175.805 774.427 176.668C772.836 177.551 771.078 178.199 769.153 178.6C767.219 179.014 765.369 179.221 763.614 179.221C761.153 179.221 758.782 178.924 756.504 178.341C754.212 177.753 752.192 176.844 750.436 175.612C748.68 174.384 747.238 172.805 746.127 170.865C745.022 168.93 744.453 166.625 744.453 163.921H720.731C720.971 170.016 722.344 175.089 724.87 179.131C727.377 183.174 730.597 186.424 734.529 188.89C738.452 191.347 742.938 193.11 747.981 194.168C753.063 195.226 758.241 195.756 763.431 195.749C768.538 195.751 773.632 195.251 778.641 194.258C783.619 193.259 788.043 191.528 791.909 189.062C795.784 186.606 798.905 183.354 801.314 179.307C803.709 175.258 804.908 170.248 804.908 164.269C804.908 160.044 804.09 156.509 802.451 153.638ZM699.298 75.313H674.339V102.56H659.231V119.26H674.339V172.888C674.339 177.466 675.109 181.153 676.626 183.964C678.151 186.773 680.229 188.955 682.863 190.474C685.499 191.999 688.548 193.02 692.005 193.548C695.451 194.071 699.128 194.338 702.986 194.338C705.456 194.338 707.967 194.275 710.549 194.169C713.121 194.048 715.462 193.82 717.576 193.458V174.116C716.355 174.365 715.121 174.542 713.879 174.645C712.536 174.767 711.188 174.828 709.84 174.826C705.625 174.826 702.81 174.116 701.401 172.712C700.003 171.309 699.298 168.494 699.298 164.27V119.26H717.576V102.56H699.299L699.298 75.313ZM627.772 158.289C627.772 159.708 627.629 161.582 627.332 163.923C627.041 166.273 626.249 168.579 624.961 170.866C623.672 173.152 621.673 175.122 618.986 176.755C616.293 178.402 612.485 179.221 607.559 179.221C605.573 179.221 603.636 179.046 601.762 178.688C599.885 178.342 598.248 177.721 596.842 176.845C595.439 175.966 594.322 174.764 593.501 173.239C592.686 171.717 592.271 169.847 592.271 167.621C592.271 165.278 592.686 163.331 593.501 161.816C594.293 160.33 595.406 159.038 596.758 158.034C598.098 157.039 599.682 156.249 601.499 155.657C603.313 155.073 605.163 154.604 607.036 154.252C609.023 153.909 611.02 153.606 613.006 153.373C614.921 153.152 616.826 152.86 618.719 152.497C620.447 152.168 622.151 151.726 623.82 151.173C625.401 150.645 626.715 149.922 627.772 148.979V158.289ZM652.725 173.239V125.949C652.725 120.431 651.5 116.011 649.032 112.675C646.577 109.332 643.412 106.727 639.55 104.851C635.678 102.977 631.399 101.714 626.714 101.071C622.115 100.433 617.478 100.111 612.834 100.106C607.8 100.106 602.786 100.6 597.814 101.599C592.822 102.594 588.351 104.267 584.365 106.607C580.414 108.916 577.048 112.105 574.528 115.925C571.942 119.793 570.479 124.658 570.129 130.52H595.081C595.55 125.594 597.198 122.075 600.01 119.967C602.82 117.857 606.682 116.808 611.608 116.808C613.83 116.808 615.906 116.955 617.844 117.245C619.774 117.541 621.475 118.119 622.941 119.003C624.407 119.881 625.578 121.109 626.453 122.696C627.332 124.277 627.772 126.421 627.772 129.109C627.888 131.695 627.124 133.647 625.491 134.998C623.845 136.353 621.622 137.381 618.809 138.075C615.997 138.785 612.775 139.314 609.141 139.654C605.507 140.013 601.819 140.491 598.075 141.069C594.315 141.658 590.591 142.45 586.918 143.443C583.228 144.433 579.937 145.936 577.071 147.92C574.198 149.922 571.857 152.585 570.035 155.927C568.223 159.269 567.316 163.522 567.316 168.673C567.316 173.36 568.106 177.403 569.688 180.798C571.269 184.207 573.464 187.009 576.28 189.239C579.094 191.466 582.372 193.111 586.121 194.169C589.864 195.22 593.909 195.75 598.249 195.75C603.845 195.751 609.409 194.923 614.761 193.292C620.153 191.639 624.845 188.778 628.829 184.669C628.945 186.193 629.149 187.693 629.439 189.154C629.732 190.613 630.116 192.058 630.585 193.458H655.893C654.723 191.594 653.897 188.778 653.433 185.021C652.958 181.273 652.725 177.353 652.725 173.239ZM549.917 110.383C547.46 107.158 544.09 104.643 539.82 102.821C535.538 101.013 530.06 100.106 523.385 100.106C518.698 100.106 513.896 101.303 508.97 103.71C504.052 106.107 500.008 109.949 496.847 115.227H496.319V67.9266H471.364V193.458H496.319V145.813C496.319 136.555 497.841 129.908 500.89 125.857C503.932 121.818 508.853 119.794 515.652 119.794C521.625 119.794 525.785 121.638 528.129 125.335C530.472 129.024 531.643 134.623 531.643 142.122V193.459H556.6V137.55C556.6 131.928 556.097 126.803 555.105 122.164C554.108 117.542 552.38 113.61 549.917 110.383ZM418.115 154.431H417.767L396.328 67.9276H370.493L348.699 153.374H348.349L328.49 67.9266H300.903L334.116 193.458H362.061L382.969 108.011H383.321L404.586 193.458H432.002L465.745 67.9266H438.682L418.115 154.431ZM189.352 156.406C186.122 154.789 170.236 146.971 167.275 145.894C164.313 144.815 162.159 144.275 160.005 147.509C157.851 150.746 151.66 158.024 149.774 160.179C147.89 162.338 146.006 162.608 142.774 160.991C139.544 159.372 129.132 155.96 116.79 144.951C107.186 136.383 100.701 125.798 98.8171 122.562C96.9315 119.33 98.6148 117.582 100.233 115.969C101.687 114.522 103.464 112.193 105.08 110.309C106.695 108.419 107.234 107.073 108.311 104.915C109.388 102.76 108.848 100.87 108.042 99.2541C107.234 97.6353 100.772 81.73 98.0786 75.261C95.4564 68.9609 92.793 69.8115 90.8092 69.7152C88.9275 69.618 86.7698 69.5984 84.6171 69.5984C82.4633 69.5984 78.9632 70.4107 76.0012 73.6422C73.0402 76.8777 64.6924 84.6963 64.6924 100.601C64.6924 116.506 76.2713 131.873 77.8868 134.032C79.5014 136.186 100.669 168.829 133.081 182.826C140.791 186.155 146.81 188.143 151.501 189.633C159.241 192.091 166.285 191.744 171.851 190.913C178.06 189.985 190.969 183.095 193.661 175.546C196.353 167.998 196.353 161.53 195.545 160.179C194.738 158.833 192.584 158.024 189.352 156.406ZM130.399 236.914H130.355C111.07 236.908 92.1527 231.722 75.6516 221.929L71.7271 219.602L31.0488 230.273L41.9069 190.607L39.3505 186.54C28.5917 169.424 22.9102 149.642 22.9181 129.333C22.9417 70.063 71.1575 21.845 130.442 21.845C159.148 21.8548 186.134 33.0523 206.426 53.3698C226.719 73.6874 237.887 100.696 237.877 129.419C237.852 188.691 189.638 236.914 130.399 236.914ZM130.397 0C59.122 0 1.11467 58.0148 1.08521 129.321C1.07637 152.117 7.0308 174.368 18.3455 193.977L0 261L68.551 243.017C87.4376 253.319 108.703 258.747 130.347 258.755H130.399C201.667 258.755 259.681 200.736 259.709 129.425C259.723 94.8723 246.285 62.376 221.87 37.931C197.457 13.4851 164.989 0.016698 130.397 0Z" fill="#949494"/>
</svg>
