<?xml version="1.0" encoding="UTF-8"?>
<!DOCTYPE svg PUBLIC "-//W3C//DTD SVG 1.1//EN" "http://www.w3.org/Graphics/SVG/1.1/DTD/svg11.dtd">
<!-- Creator: CorelDRAW 2021 (64-Bit) -->
<svg xmlns="http://www.w3.org/2000/svg" xml:space="preserve" width="1.05555in" height="0.819441in" version="1.1" style="shape-rendering:geometricPrecision; text-rendering:geometricPrecision; image-rendering:optimizeQuality; fill-rule:evenodd; clip-rule:evenodd"
viewBox="0 0 1055.55 819.44"
 xmlns:xlink="http://www.w3.org/1999/xlink"
 xmlns:xodm="http://www.corel.com/coreldraw/odm/2003">
 <defs>
  <style type="text/css">
   <![CDATA[
    .fil0 {fill:black}
   ]]>
  </style>
 </defs>
 <g id="Layer_x0020_1">
  <metadata id="CorelCorpID_0Corel-Layer"/>
  <path class="fil0" d="M-24808.44 3356.92l0.04 -540.64c0.35,-58.88 18.68,-144.12 -36.08,-144.12l-1177.3 0c-27.68,0 -36.04,8.36 -36.04,36.04l0 5033.56c0,27.68 8.36,36.04 36.04,36.04l1285.42 0c52.33,0 37.01,-64.37 36.26,-119.92 -10.69,-792.63 -0.22,-1656.08 -0.22,-2450.93 0,-539.58 1.94,-1146 494.75,-1463.41 337.65,-217.48 1071.46,-281.62 1180.4,412.95 71.98,458.93 42.75,2380.48 42.75,3032.65l-0.22 468.73c-0.75,55.54 -16.07,119.92 36.26,119.92l1285.42 0c52.33,0 37,-64.37 36.26,-119.92 -10.69,-792.63 -0.22,-1656.08 -0.22,-2450.93 0,-388.67 19.19,-782.91 184.06,-1113.38 298.63,-598.59 1237.03,-687.83 1433.4,-83.61 75.45,232.15 88.43,638.47 88.43,944.71l0 2823.12 1345.48 0 0 -3447.81c0,-272.83 -34.73,-536.84 -93.39,-747.54 -30.56,-109.73 -75.89,-201.95 -129.61,-290.86l-128.05 -184.29c-325.17,-370.98 -716.15,-543.26 -1342.82,-543.26 -403.31,0 -769.7,145.76 -1077.8,375.81 -32,23.9 -49.34,39.05 -80.72,63.43 -157.65,122.49 -357.57,358.61 -367.17,365.65 -494.06,-933.73 -1770.82,-1024.74 -2555.55,-441.22 -131.35,97.67 -273,226.65 -384.84,347.97 -31.37,34.03 -36.58,55.55 -74.94,81.23z"/>
  <path class="fil0" d="M-40137.37 5218.98c0,-446.65 20.66,-821.61 266.44,-1187.16 25.9,-38.52 43.72,-52.27 69.9,-86.27 344.96,-447.9 1195.62,-495.28 1620.24,73.69 278.6,373.31 289.9,784.37 289.9,1271.82 0,374.72 -125.55,737.51 -288.03,949.33 -61.11,79.67 -149.9,166.32 -230.12,226.39 -34.98,26.19 -55.94,39.72 -93.81,62.36 -213.71,127.8 -361.54,143.44 -613.39,143.44 -344.81,0 -641.65,-244.24 -778.57,-458.8 -153.27,-240.18 -242.56,-604.71 -242.56,-994.81zm1322.26 4613.09l-417.53 0c-271.85,-9.5 -538.2,-38.11 -767.58,-89.1 -468.92,-104.22 -882.8,-307.68 -1136.61,-713.43 -207.22,-331.27 -213.88,-536.46 -213.88,-927.38l1160.02 137.41c70.01,9.74 123.79,14.17 192.08,24.16 63.11,9.24 134.61,18.63 197.61,18.63 0,87.13 41.59,195.13 71.73,252.63 110.83,211.44 420.82,263.94 673.09,263.94 444.22,0 877.75,-45.62 1065.35,-448.32 118.3,-253.94 75.91,-991.22 75.91,-1377.7 -29.46,19.73 -44.09,47.02 -69,75.16 -171.26,193.52 -139.89,176.84 -342.2,342.55 -52.61,43.09 -98.07,74.16 -153.27,111.02 -108.61,72.52 -240.21,133.59 -373.91,178.7 -276.7,93.35 -414.82,85.44 -695.42,85.44 -451.98,0 -1026.95,-266.74 -1295.65,-602.45 -82.12,-102.59 -90.51,-92.43 -194.12,-238.35 -162.57,-228.94 -286.57,-491.35 -369.82,-795.47 -128.2,-468.34 -143.22,-1071.14 -73.93,-1570.66 99.72,-718.86 392.65,-1256.95 960.37,-1658.53l180.12 -108.19c593.88,-308.75 1324.72,-311.47 1909.8,24.66 184.05,105.74 339.59,255.17 478.2,410.78l134.95 153.37 0 -708.78 1225.35 0c27.68,0 36.04,8.36 36.04,36.04l0 4637.13c0,360.83 -28.83,792.97 -103.24,1086.07 -64.57,254.4 -202.46,598.56 -392.25,785.05 -61.03,59.97 -77.99,88.95 -153.13,147.2 -298.85,231.7 -670.82,369.53 -1055.17,422.46 -171.27,23.59 -359.84,39.3 -553.91,45.95z"/>
  <path class="fil0" d="M-29601.73 6924.86c-266.92,0 -409.94,-8.36 -615.7,-213.22 -268.83,-267.68 -280.13,-681.03 26.75,-916.32 128.28,-98.35 306.48,-148.67 490.41,-194.35 176.56,-43.85 372.49,-90.54 556.04,-128.72l402.26 -102.29c47.28,-13.45 100.52,-25.19 137.34,-42.86 0,616.4 58.12,1135.71 -500.62,1445.53 -127.04,70.44 -306.32,152.24 -496.48,152.24zm-2030.24 -2907.21c46.63,3.88 103.82,17.48 153.07,27.12l763.2 137.79c56.98,9.85 104.09,16.31 153.94,26.26 44.52,8.88 108.93,24.04 155.13,25.07 44.17,-83.47 64.91,-170.77 117.63,-254.78 108.65,-173.12 216.85,-275.69 421.21,-335.63 291.65,-85.53 870.21,-52.79 1061.95,118.85 175.04,156.69 201.2,366.54 201.2,687.79l-384.49 120.07c-137.97,36.16 -264.44,68.06 -415.29,101.29 -576.89,127.08 -1097.09,182.56 -1622.92,443.36 -342.12,169.68 -596.43,488.68 -691.35,858.37 -31.61,123.11 -61.34,310.83 -47.68,448.37 19.25,193.77 -1.45,232.91 69.6,447.93 353.76,1070.47 1728.51,1221.02 2547.54,808.21 160.75,-81.02 442.19,-256.71 571.74,-389.31 28.84,-29.52 40.49,-52.4 80.95,-63.2l115.6 388.96c69.18,207.44 4.2,163.65 352.91,163.65 344.38,0 688.76,0 1033.14,0 -3.3,-39.64 -45.67,-122.57 -64.17,-164.08 -73.66,-165.22 -135.25,-347.9 -173.25,-523.52 -175.41,-810.7 80.74,-2710.18 -149.37,-3562.73 -125.52,-465.06 -602.07,-763.8 -1052.26,-869.85 -744.3,-175.32 -2098.24,-150.07 -2618.66,365.7 -166.53,165.04 -279.41,284.99 -387.2,501.78 -83.46,167.85 -146.33,295.65 -192.2,492.56z"/>
  <path class="fil0" d="M-45663.47 4702.41c0,-318.26 117.86,-604.72 273.27,-771.89 99.41,-106.93 142.09,-157 295.19,-233.4 270.94,-135.2 601.56,-127.06 865.19,4.12 90.79,45.18 165.89,105.22 237.9,170.56 171.73,155.78 274.87,424.9 308.66,664.41 7.17,50.85 12.47,67.5 13.98,118.16 1.89,62.86 10.94,83.31 12.03,132.13l-2006.21 0 0 -84.09zm1009.11 3183.52c341.4,0 615.75,-26.24 908.5,-124.65 573.59,-192.8 954.02,-536.98 1217.85,-1064.67 32.79,-65.58 125.6,-245.72 132.15,-324.36l-1345.49 -228.26c-8.48,101.96 -117.86,322.61 -180.09,408.56 -55.34,76.43 -121.8,144.79 -201.66,194.78 -270.45,169.3 -655.1,164.57 -939.76,21.42 -419.2,-210.81 -624.63,-634.83 -624.63,-1153.33l3363.71 0c1.22,-54.68 15.15,-84.02 12.57,-156.41 -2.25,-63.04 -13.15,-81.87 -12.85,-155.66 1.26,-305.54 -37.63,-630.54 -105.32,-915.81 -86.91,-366.32 -224.94,-690.43 -419.44,-950.07 -460.96,-615.36 -1114.5,-873.42 -1925.67,-873.42 -262.5,0 -569.32,51.71 -794.62,142.42 -74.41,29.96 -147.96,57.35 -218.77,93.57l-196.67 115.68c-321.68,232.91 -558.59,458.42 -752.25,821.49l-102.44 209.91c-138.79,342.23 -197.78,639.62 -229.17,1020.22 -3.93,47.61 -0.15,107.09 -0.22,155.96 -0.09,71.67 -15.59,92.37 -12.96,155.34 2.29,54.86 13.16,73.85 12.83,144.3 -2.95,632.49 241.7,1369.19 687.22,1823.56 433.72,442.33 1081.13,639.44 1727.17,639.44z"/>
  <path class="fil0" d="M-53844.5 4738.44c0,-1103.72 1081.61,-1435.39 1673.26,-868.38 105.85,101.44 215.37,284.97 258.49,438.28 37.89,134.72 74.46,335.5 74.46,478.15l-2006.22 0 0 -48.05zm-1405.56 348.39c0,728.85 17.61,924.55 281.35,1568.69 18.92,46.21 33.96,66.36 54.4,101.78 20.43,35.41 34.6,62.09 56.81,99.36 123.67,207.61 142.14,201.28 264.63,348.06 73.78,88.41 64.04,69.12 150.57,149.76 385.57,359.31 1050.2,531.44 1606.91,531.44 348.62,0 608.21,-27.04 910.29,-122.86 110.04,-34.9 219.81,-81.52 323.22,-133.28 105.06,-52.57 191.31,-112.51 280.22,-176.28l243.12 -213.38c22.63,-25.74 23.9,-33.84 48.17,-59.95l153.28 -195.11c97.68,-137.56 288.74,-475.02 300.2,-612.81l-1345.49 -228.26c-7.09,85.26 -75.55,222.83 -108.03,288.41 -197.7,399.16 -581.25,495.31 -1000.41,411.59 -200.36,-40.02 -436.48,-189.75 -549.63,-339.36 -196.87,-260.33 -288.08,-538.09 -288.08,-889.22l3375.73 0c0,-943.38 -149.59,-1730.5 -604.15,-2267.02l-161.45 -174.92c-34.11,-32.78 -55.08,-42.84 -90.28,-77.91 -204.98,-204.18 -616.8,-387.32 -900.3,-457.19 -372.51,-91.81 -865.67,-104.17 -1242.39,-9.53 -333.31,83.73 -544.07,188.31 -813.1,388.23 -626.67,465.67 -945.57,1299.16 -945.57,2069.76z"/>
  <path class="fil0" d="M-60619.99 1939.35l2078.3 0 0 5802.41c0,27.68 8.36,36.04 36.04,36.04l1357.5 0c27.68,0 36.04,-8.36 36.04,-36.04l0 -5802.41 2078.3 0 0 -1165.29c0,-27.68 -8.36,-36.04 -36.04,-36.04l-5550.13 0 0 1201.33z"/>
  <polygon class="fil0" points="-49399.59,7777.8 -48054.11,7777.8 -48054.11,738.03 -49399.59,738.03 "/>
  <path class="fil0" d="M-34022.61 3380.94l0.02 -552.63c0.2,-60.26 19.54,-156.16 -36.06,-156.16l-1189.31 0c-27.69,0 -36.04,8.36 -36.04,36.04l0 5033.56c0,27.68 8.36,36.04 36.04,36.04l1309.44 0 0 -1369.52c0,-178.18 12.01,-313.4 12.01,-492.54l18.96 -737.88c32.44,-215.41 1.86,-392.82 82.13,-674.7 41.15,-144.5 78.94,-241.15 143.07,-361.48 193.66,-363.35 615.39,-443.19 1001.9,-288.9 98.74,39.42 257,134.8 279.62,140.84 19.07,-39.75 33.11,-93.98 51.57,-140.64 82.08,-207.39 176.27,-524.47 260.77,-736.33 32.54,-81.58 71.96,-224.98 108.12,-300.33 -124.5,-33.24 -346.44,-252.28 -925.02,-252.28 -156.2,0 -289.22,38.33 -398.33,82.21 -178.47,71.78 -283.82,180.19 -409.81,310.98 -61.81,64.17 -200.26,259.92 -256.29,344.38l-37.57 58.54c-17.09,25.17 -3.3,7.06 -15.24,20.8z"/>
 </g>
</svg>
