<?xml version="1.0" encoding="UTF-8"?>
<!DOCTYPE svg PUBLIC "-//W3C//DTD SVG 1.1//EN" "http://www.w3.org/Graphics/SVG/1.1/DTD/svg11.dtd">
<!-- Creator: CorelDRAW 2021 (64-Bit) -->
<svg xmlns="http://www.w3.org/2000/svg" xml:space="preserve" width="1.05555in" height="0.819441in" version="1.1" style="shape-rendering:geometricPrecision; text-rendering:geometricPrecision; image-rendering:optimizeQuality; fill-rule:evenodd; clip-rule:evenodd"
viewBox="0 0 1055.55 819.44"
 xmlns:xlink="http://www.w3.org/1999/xlink"
 xmlns:xodm="http://www.corel.com/coreldraw/odm/2003">
 <defs>
  <style type="text/css">
   <![CDATA[
    .fil0 {fill:#4BC6E9}
    .fil1 {fill:#4BC6E9;fill-rule:nonzero}
   ]]>
  </style>
 </defs>
 <g id="Layer_x0020_1">
  <metadata id="CorelCorpID_0Corel-Layer"/>
  <path class="fil0" d="M669.06 394.57c0,0 -9.79,5.44 -13.7,17.56 -3.86,11.94 -2.39,20.7 -0.57,26.8 1.82,6.1 5.99,13.98 15.57,20.46 9.58,6.48 19.3,8.62 29.41,7.91 10.11,-0.71 19.94,-3.01 24.93,-6.22 5,-3.21 9.51,-7.67 10.46,-12.22 0.95,-4.56 -1.71,-8.91 -5.53,-10.41 -3.82,-1.5 -9.21,-0.44 -15.77,2.64 -13.54,6.35 -24.6,2.97 -29.47,-1.76 -1.75,-1.7 -2.51,-3.6 -2.51,-3.6l30.96 -0.18c0,0 16.61,0.35 20.47,-1.66 5.81,-3.02 7.56,-6.58 5.48,-17.31 -2.08,-10.74 -9.16,-18.57 -20.63,-24.2 -11.48,-5.63 -23.22,-5.44 -30.88,-4.04 -12.48,2.28 -18.22,6.23 -18.22,6.23zm13.38 23c0.08,-0.17 0.17,-0.33 0.26,-0.5 2.09,-3.84 5.57,-6.24 9.48,-7.28 5.57,-1.92 11.77,-0.8 16.57,3.97 0.7,0.66 1.34,1.4 1.92,2.2 0.38,0.51 0.75,1.05 1.11,1.61l-0.11 0 0.11 0.22 -16.74 -0.12c-4.2,0.02 -8.41,-0.01 -12.59,-0.09z"/>
  <path class="fil1" d="M206.1 329.02c-9.61,4.26 -19.93,7.14 -30.76,8.44 11.05,-6.63 19.55,-17.13 23.55,-29.65 -10.35,6.15 -21.81,10.6 -34.02,13.01 -9.77,-10.42 -23.69,-16.92 -39.1,-16.92 -29.58,0 -53.56,23.98 -53.56,53.56 0,4.19 0.47,8.29 1.39,12.21 -44.52,-2.24 -83.99,-23.56 -110.41,-55.97 -4.61,7.91 -7.26,17.11 -7.26,26.93 0,18.58 9.46,34.98 23.83,44.58 -8.78,-0.28 -17.04,-2.69 -24.26,-6.7 -0.01,0.22 -0.01,0.44 -0.01,0.67 0,25.95 18.46,47.6 42.96,52.52 -4.49,1.23 -9.22,1.88 -14.11,1.88 -3.45,0 -6.8,-0.33 -10.07,-0.96 6.81,21.28 26.59,36.77 50.04,37.2 -18.34,14.37 -41.43,22.93 -66.53,22.93 -4.32,0 -8.59,-0.25 -12.78,-0.75 23.7,15.2 51.86,24.07 82.11,24.07 98.53,0 152.41,-81.63 152.41,-152.41 0,-2.32 -0.06,-4.63 -0.16,-6.93 10.46,-7.55 19.55,-16.98 26.73,-27.72z"/>
  <path class="fil1" d="M245.85 353.24c7.16,-2.09 15.71,3.09 16.81,10.54 0.5,5.87 0.5,11.84 0.6,17.7 14.82,0.1 29.74,-0.5 44.55,0.2 5.57,0.89 10.74,5.37 11.44,11.14 2.19,7.26 -3.48,15.81 -10.84,17 -15.12,1.2 -30.33,0.3 -45.55,0.5 0.2,5.57 -0.1,11.14 0.6,16.61 0.99,5.27 5.47,10.15 10.94,10.74 11.44,0.99 22.87,0 34.21,0.89 9.85,1.49 14.72,15.02 8.06,22.38 -3.58,6.37 -11.54,6.17 -17.8,6.17 -11.54,-0.2 -23.47,1.39 -34.71,-2.09 -17.01,-5.17 -29.83,-21.98 -29.74,-39.78 -0.59,-18.2 -0.2,-36.5 -0.2,-54.69 -1.19,-7.56 3.78,-16.11 11.64,-17.31z"/>
  <path class="fil1" d="M507.89 356.82c6.47,-6.96 19.59,-4.28 22.87,4.57 1.49,10.54 0.7,21.28 0.89,31.92 10.04,0.1 20.09,-0.39 30.13,0.8 6.76,1.59 12.43,8.56 11.04,15.81 -0.2,7.06 -7.26,13.12 -14.42,12.13 -8.55,0.5 -17.11,0.3 -25.65,0.4 0.99,4.77 1.19,11.64 6.46,14.02 9.24,3.68 20.48,-0.8 29.13,4.67 3.28,3.98 5.67,9.05 4.37,14.22 -1.39,7.46 -9.04,12.13 -16.3,11.54 -17.31,2.09 -38.49,-3.08 -45.85,-20.78 -8.75,-21.58 -7.85,-45.74 -7.95,-68.61 0.6,-6.86 -0.99,-15.91 5.27,-20.69z"/>
  <path class="fil1" d="M587.38 354.09c3.95,-1.55 8.4,-1.88 12.1,0.24 3.19,1.99 6.47,4.77 7.07,8.65 1.09,10.15 0.59,20.29 0.69,30.33 10.04,0.1 20.09,-0.39 30.13,0.8 6.57,1.39 11.84,7.95 11.14,14.91 -0.79,5.77 -4.28,12.03 -10.74,12.83 -9.75,0.8 -19.49,0.4 -29.24,0.4 0.69,4.58 0.29,10.84 4.87,13.62 10.24,5.37 24.67,-2.08 32.62,8.16 5.77,7.95 1.19,19.69 -7.85,22.18 -16.41,2.78 -36.1,1.09 -47.63,-12.43 -8.35,-10.94 -9.75,-25.17 -11.44,-38.29 -0.9,-14.32 -2.29,-28.64 -1.09,-42.96 -0.28,-7.72 1.73,-15.43 9.38,-18.44z"/>
  <path class="fil1" d="M334.96 387.26c6.37,-2.29 13.13,2.39 15.91,7.85 1.39,10.65 0.19,21.38 0.79,32.12 0.6,7.37 7.76,14.13 15.41,12.43 5.07,-0.39 9.15,-4.77 9.94,-9.65 0.8,-10.15 0.1,-20.39 0.5,-30.63 0.69,-5.96 5.57,-11.23 11.44,-12.43 4.37,-1.19 8.65,1.39 12.14,3.67 8.15,11.83 1.98,27.25 4.57,40.38 1.49,4.37 5.07,8.35 9.94,8.65 7.16,1.49 15.91,-4.57 14.32,-12.43 0.99,-10.64 -1.39,-21.78 1.89,-32.12 2.58,-6.17 10.65,-10.54 17,-7.36 4.28,1.79 8.06,5.47 8.56,10.24 1.09,10.64 0.99,21.38 0.4,32.12 -1.49,19.79 -19.59,37.09 -39.58,36.8 -9.94,0.6 -19.1,-4.07 -26.85,-9.65 -6.47,3.88 -12.83,8.35 -20.48,9.15 -19.09,3.38 -39.29,-9.45 -44.35,-28.14 -2.69,-11.74 -1.99,-23.97 -1.69,-35.91 -0.5,-6.37 3.19,-14.22 10.15,-15.11z"/>
  <path class="fil1" d="M778.59 388.05c8.45,-0.89 17,-0.99 25.46,-0.59 8.45,0.3 15.61,10.04 12.13,17.99 -2.08,3.69 -4.97,7.86 -9.55,8.26 -8.15,0.69 -16.3,0.4 -24.46,0.89 -5.27,0.4 -9.75,4.57 -10.54,9.85 -0.79,9.84 -0.1,19.79 -0.49,29.73 -0.41,8.26 -9.95,15.52 -17.91,12.04 -3.68,-2.09 -7.85,-5.07 -8.35,-9.54 -1,-11.44 -1,-22.87 -0.1,-34.31 1.39,-17.31 16.51,-32.72 33.81,-34.31z"/>
  <path class="fil1" d="M478.26 391.93c7.36,-1.4 15.02,4.57 15.91,11.83 1.19,16.41 0.89,32.92 0.4,49.32 -0.4,6.46 -5.57,12.53 -12.13,13.43 -8.45,2.19 -17.5,-5.76 -16.31,-14.41 -0.4,-16.51 -0.7,-33.02 0.2,-49.52 0.7,-5.97 6.36,-9.94 11.93,-10.64zm-0.99 -38.89c10.15,-2.69 20.09,8.65 16.5,18.5 -2.18,9.94 -16.3,13.43 -23.17,6.27 -9.05,-6.67 -4.48,-23.37 6.66,-24.77z"/>
 </g>
</svg>
