<svg width="1394" height="340" viewBox="0 0 1394 340" fill="none" xmlns="http://www.w3.org/2000/svg">
<path fill-rule="evenodd" clip-rule="evenodd" d="M0 165.711V246.653L306.499 199.476L294.329 120.407L0 165.711Z" fill="#10A2E9"/>
<rect width="340" height="80" rx="40" fill="#10A2E9"/>
<path d="M0 260H300C322.091 260 340 277.909 340 300V300C340 322.091 322.091 340 300 340H40C17.9086 340 0 322.091 0 300V260Z" fill="#4E47E5"/>
<rect x="260" y="200" width="200" height="80" rx="40" transform="rotate(-90 260 200)" fill="#10A2E9"/>
<rect y="240" width="240" height="80" rx="40" transform="rotate(-90 0 240)" fill="#10A2E9"/>
<path d="M421.885 170.373C421.885 163.233 422.956 157.011 425.098 151.707C427.342 146.301 430.249 141.813 433.819 138.243C437.389 134.673 441.469 131.97 446.059 130.134C450.751 128.298 455.545 127.38 460.441 127.38C471.865 127.38 480.892 130.899 487.522 137.937C494.152 144.873 497.467 155.124 497.467 168.69C497.467 170.016 497.416 171.495 497.314 173.127C497.212 174.657 497.11 176.034 497.008 177.258H445.294C445.804 181.95 447.997 185.673 451.873 188.427C455.749 191.181 460.951 192.558 467.479 192.558C471.661 192.558 475.741 192.201 479.719 191.487C483.799 190.671 487.114 189.702 489.664 188.58L492.724 207.093C491.5 207.705 489.868 208.317 487.828 208.929C485.788 209.541 483.493 210.051 480.943 210.459C478.495 210.969 475.843 211.377 472.987 211.683C470.131 211.989 467.275 212.142 464.419 212.142C457.177 212.142 450.853 211.071 445.447 208.929C440.143 206.787 435.706 203.88 432.136 200.208C428.668 196.434 426.067 191.997 424.333 186.897C422.701 181.797 421.885 176.289 421.885 170.373ZM475.435 161.652C475.333 159.714 474.976 157.827 474.364 155.991C473.854 154.155 472.987 152.523 471.763 151.095C470.641 149.667 469.162 148.494 467.326 147.576C465.592 146.658 463.399 146.199 460.747 146.199C458.197 146.199 456.004 146.658 454.168 147.576C452.332 148.392 450.802 149.514 449.578 150.942C448.354 152.37 447.385 154.053 446.671 155.991C446.059 157.827 445.6 159.714 445.294 161.652H475.435ZM534.491 169.149C534.491 176.187 536.072 181.848 539.234 186.132C542.396 190.416 547.088 192.558 553.31 192.558C555.35 192.558 557.237 192.507 558.971 192.405C560.705 192.201 562.133 191.997 563.255 191.793V150.33C561.827 149.412 559.94 148.647 557.594 148.035C555.35 147.423 553.055 147.117 550.709 147.117C539.897 147.117 534.491 154.461 534.491 169.149ZM586.052 207.399C584.012 208.011 581.666 208.623 579.014 209.235C576.362 209.745 573.557 210.204 570.599 210.612C567.743 211.02 564.785 211.326 561.725 211.53C558.767 211.836 555.911 211.989 553.157 211.989C546.527 211.989 540.611 211.02 535.409 209.082C530.207 207.144 525.821 204.39 522.251 200.82C518.681 197.148 515.927 192.762 513.989 187.662C512.153 182.46 511.235 176.646 511.235 170.22C511.235 163.692 512.051 157.827 513.683 152.625C515.315 147.321 517.661 142.833 520.721 139.161C523.781 135.489 527.504 132.684 531.89 130.746C536.378 128.808 541.478 127.839 547.19 127.839C550.352 127.839 553.157 128.145 555.605 128.757C558.155 129.369 560.705 130.236 563.255 131.358V94.944L586.052 91.272V207.399ZM630.195 210H607.398V129.522H630.195V210ZM632.337 106.266C632.337 110.448 630.96 113.763 628.206 116.211C625.554 118.557 622.392 119.73 618.72 119.73C615.048 119.73 611.835 118.557 609.081 116.211C606.429 113.763 605.103 110.448 605.103 106.266C605.103 102.084 606.429 98.82 609.081 96.474C611.835 94.026 615.048 92.802 618.72 92.802C622.392 92.802 625.554 94.026 628.206 96.474C630.96 98.82 632.337 102.084 632.337 106.266Z" fill="#4E47E5"/>
<path d="M674.421 158.592C676.665 156.144 678.96 153.594 681.306 150.942C683.754 148.29 686.1 145.689 688.344 143.139C690.588 140.487 692.679 137.988 694.617 135.642C696.657 133.296 698.391 131.256 699.819 129.522H726.9C721.494 135.744 716.19 141.711 710.988 147.423C705.888 153.033 700.278 158.847 694.158 164.865C697.218 167.619 700.38 170.934 703.644 174.81C706.908 178.584 710.07 182.511 713.13 186.591C716.19 190.671 718.995 194.751 721.545 198.831C724.095 202.911 726.237 206.634 727.971 210H701.808C700.176 207.348 698.289 204.441 696.147 201.279C694.107 198.015 691.914 194.802 689.568 191.64C687.222 188.376 684.723 185.265 682.071 182.307C679.521 179.349 676.971 176.85 674.421 174.81V210H651.624V94.944L674.421 91.272V158.592ZM807.429 207.246C803.553 208.368 798.555 209.388 792.435 210.306C786.315 211.326 779.889 211.836 773.157 211.836C766.323 211.836 760.611 210.918 756.021 209.082C751.533 207.246 747.963 204.696 745.311 201.432C742.659 198.066 740.772 194.088 739.65 189.498C738.528 184.908 737.967 179.859 737.967 174.351V129.522H760.764V171.597C760.764 178.941 761.733 184.245 763.671 187.509C765.609 190.773 769.23 192.405 774.534 192.405C776.166 192.405 777.9 192.354 779.736 192.252C781.572 192.048 783.204 191.844 784.632 191.64V129.522H807.429V207.246ZM877.33 149.718C875.29 149.208 872.893 148.698 870.139 148.188C867.385 147.576 864.427 147.27 861.265 147.27C859.837 147.27 858.103 147.423 856.063 147.729C854.125 147.933 852.646 148.188 851.626 148.494V210H828.829V133.806C832.909 132.378 837.703 131.052 843.211 129.828C848.821 128.502 855.043 127.839 861.877 127.839C863.101 127.839 864.58 127.941 866.314 128.145C868.048 128.247 869.782 128.451 871.516 128.757C873.25 128.961 874.984 129.267 876.718 129.675C878.452 129.981 879.931 130.389 881.155 130.899L877.33 149.718ZM893.376 132.276C897.252 131.154 902.25 130.134 908.37 129.216C914.49 128.196 920.916 127.686 927.648 127.686C934.482 127.686 940.143 128.604 944.631 130.44C949.221 132.174 952.842 134.673 955.494 137.937C958.146 141.201 960.033 145.077 961.155 149.565C962.277 154.053 962.838 159.051 962.838 164.559V210H940.041V167.313C940.041 159.969 939.072 154.767 937.134 151.707C935.196 148.647 931.575 147.117 926.271 147.117C924.639 147.117 922.905 147.219 921.069 147.423C919.233 147.525 917.601 147.678 916.173 147.882V210H893.376V132.276ZM1006.27 210H983.473V129.522H1006.27V210ZM1008.41 106.266C1008.41 110.448 1007.03 113.763 1004.28 116.211C1001.63 118.557 998.467 119.73 994.795 119.73C991.123 119.73 987.91 118.557 985.156 116.211C982.504 113.763 981.178 110.448 981.178 106.266C981.178 102.084 982.504 98.82 985.156 96.474C987.91 94.026 991.123 92.802 994.795 92.802C998.467 92.802 1001.63 94.026 1004.28 96.474C1007.03 98.82 1008.41 102.084 1008.41 106.266ZM1058.45 194.088C1060.7 194.088 1062.84 194.037 1064.88 193.935C1066.92 193.833 1068.55 193.68 1069.77 193.476V176.187C1068.86 175.983 1067.48 175.779 1065.64 175.575C1063.81 175.371 1062.12 175.269 1060.59 175.269C1058.45 175.269 1056.41 175.422 1054.47 175.728C1052.64 175.932 1051.01 176.391 1049.58 177.105C1048.15 177.819 1047.03 178.788 1046.21 180.012C1045.4 181.236 1044.99 182.766 1044.99 184.602C1044.99 188.172 1046.16 190.671 1048.51 192.099C1050.96 193.425 1054.27 194.088 1058.45 194.088ZM1056.62 127.38C1063.35 127.38 1068.96 128.145 1073.45 129.675C1077.93 131.205 1081.5 133.398 1084.16 136.254C1086.91 139.11 1088.85 142.578 1089.97 146.658C1091.09 150.738 1091.65 155.277 1091.65 160.275V207.705C1088.39 208.419 1083.85 209.235 1078.04 210.153C1072.22 211.173 1065.18 211.683 1056.92 211.683C1051.72 211.683 1046.98 211.224 1042.69 210.306C1038.51 209.388 1034.89 207.909 1031.83 205.869C1028.77 203.727 1026.42 200.973 1024.79 197.607C1023.16 194.241 1022.34 190.11 1022.34 185.214C1022.34 180.522 1023.26 176.544 1025.1 173.28C1027.04 170.016 1029.59 167.415 1032.75 165.477C1035.91 163.539 1039.53 162.162 1043.61 161.346C1047.69 160.428 1051.92 159.969 1056.31 159.969C1059.27 159.969 1061.87 160.122 1064.11 160.428C1066.46 160.632 1068.35 160.938 1069.77 161.346V159.204C1069.77 155.328 1068.6 152.217 1066.26 149.871C1063.91 147.525 1059.83 146.352 1054.02 146.352C1050.14 146.352 1046.31 146.658 1042.54 147.27C1038.77 147.78 1035.5 148.545 1032.75 149.565L1029.84 131.205C1031.17 130.797 1032.8 130.389 1034.74 129.981C1036.78 129.471 1038.97 129.063 1041.32 128.757C1043.66 128.349 1046.11 128.043 1048.66 127.839C1051.31 127.533 1053.96 127.38 1056.62 127.38ZM1159.73 163.794C1157.69 171.546 1155.5 179.247 1153.15 186.897C1150.91 194.547 1148.51 202.248 1145.96 210H1128.22C1126.38 205.716 1124.39 200.616 1122.25 194.7C1120.11 188.784 1117.86 182.358 1115.52 175.422C1113.27 168.384 1110.93 160.989 1108.48 153.237C1106.13 145.383 1103.84 137.478 1101.59 129.522H1125.61C1126.43 133.194 1127.3 137.223 1128.22 141.609C1129.24 145.893 1130.26 150.33 1131.28 154.92C1132.4 159.51 1133.52 164.151 1134.64 168.843C1135.87 173.433 1137.09 177.87 1138.31 182.154C1139.64 177.666 1140.91 173.076 1142.14 168.384C1143.46 163.692 1144.69 159.102 1145.81 154.614C1147.03 150.024 1148.16 145.638 1149.18 141.456C1150.3 137.172 1151.27 133.194 1152.08 129.522H1168.61C1169.42 133.194 1170.34 137.172 1171.36 141.456C1172.38 145.638 1173.45 150.024 1174.57 154.614C1175.7 159.102 1176.87 163.692 1178.09 168.384C1179.32 173.076 1180.59 177.666 1181.92 182.154C1183.14 177.87 1184.37 173.433 1185.59 168.843C1186.81 164.151 1187.94 159.51 1188.96 154.92C1190.08 150.33 1191.1 145.893 1192.02 141.609C1193.04 137.223 1193.95 133.194 1194.77 129.522H1218.49C1216.24 137.478 1213.9 145.383 1211.45 153.237C1209.1 160.989 1206.76 168.384 1204.41 175.422C1202.17 182.358 1199.92 188.784 1197.68 194.7C1195.54 200.616 1193.55 205.716 1191.71 210H1173.96C1171.41 202.248 1168.91 194.547 1166.47 186.897C1164.02 179.247 1161.77 171.546 1159.73 163.794ZM1260.01 194.088C1262.26 194.088 1264.4 194.037 1266.44 193.935C1268.48 193.833 1270.11 193.68 1271.33 193.476V176.187C1270.42 175.983 1269.04 175.779 1267.2 175.575C1265.37 175.371 1263.68 175.269 1262.15 175.269C1260.01 175.269 1257.97 175.422 1256.03 175.728C1254.2 175.932 1252.57 176.391 1251.14 177.105C1249.71 177.819 1248.59 178.788 1247.77 180.012C1246.96 181.236 1246.55 182.766 1246.55 184.602C1246.55 188.172 1247.72 190.671 1250.07 192.099C1252.51 193.425 1255.83 194.088 1260.01 194.088ZM1258.18 127.38C1264.91 127.38 1270.52 128.145 1275.01 129.675C1279.49 131.205 1283.06 133.398 1285.72 136.254C1288.47 139.11 1290.41 142.578 1291.53 146.658C1292.65 150.738 1293.21 155.277 1293.21 160.275V207.705C1289.95 208.419 1285.41 209.235 1279.6 210.153C1273.78 211.173 1266.74 211.683 1258.48 211.683C1253.28 211.683 1248.54 211.224 1244.25 210.306C1240.07 209.388 1236.45 207.909 1233.39 205.869C1230.33 203.727 1227.98 200.973 1226.35 197.607C1224.72 194.241 1223.9 190.11 1223.9 185.214C1223.9 180.522 1224.82 176.544 1226.66 173.28C1228.6 170.016 1231.15 167.415 1234.31 165.477C1237.47 163.539 1241.09 162.162 1245.17 161.346C1249.25 160.428 1253.48 159.969 1257.87 159.969C1260.83 159.969 1263.43 160.122 1265.67 160.428C1268.02 160.632 1269.91 160.938 1271.33 161.346V159.204C1271.33 155.328 1270.16 152.217 1267.81 149.871C1265.47 147.525 1261.39 146.352 1255.57 146.352C1251.7 146.352 1247.87 146.658 1244.1 147.27C1240.33 147.78 1237.06 148.545 1234.31 149.565L1231.4 131.205C1232.73 130.797 1234.36 130.389 1236.3 129.981C1238.34 129.471 1240.53 129.063 1242.88 128.757C1245.22 128.349 1247.67 128.043 1250.22 127.839C1252.87 127.533 1255.52 127.38 1258.18 127.38ZM1313.83 132.276C1317.7 131.154 1322.7 130.134 1328.82 129.216C1334.94 128.196 1341.37 127.686 1348.1 127.686C1354.93 127.686 1360.59 128.604 1365.08 130.44C1369.67 132.174 1373.29 134.673 1375.95 137.937C1378.6 141.201 1380.48 145.077 1381.61 149.565C1382.73 154.053 1383.29 159.051 1383.29 164.559V210H1360.49V167.313C1360.49 159.969 1359.52 154.767 1357.59 151.707C1355.65 148.647 1352.03 147.117 1346.72 147.117C1345.09 147.117 1343.36 147.219 1341.52 147.423C1339.68 147.525 1338.05 147.678 1336.62 147.882V210H1313.83V132.276Z" fill="#10A2E9"/>
</svg>
