<svg width="104" height="104" viewBox="0 0 104 104" fill="none" xmlns="http://www.w3.org/2000/svg">
<path fill-rule="evenodd" clip-rule="evenodd" d="M4.39343 41.1629C-1.46448 47.0208 -1.46448 56.5183 4.39343 62.3761L41.163 99.1457C47.0208 105.004 56.5183 105.004 62.3762 99.1457L99.1457 62.3761C105.004 56.5183 105.004 47.0208 99.1457 41.1629L62.3762 4.39339C56.5183 -1.46446 47.0208 -1.46446 41.163 4.39339L4.39343 41.1629ZM51.8051 44.8051V58.8051H41.8051C39.0437 58.8051 36.8051 61.0437 36.8051 63.8051V68.8051C36.8051 71.5665 39.0437 73.8051 41.8051 73.8051H56.8051H61.8051C64.5665 73.8051 66.8051 71.5665 66.8051 68.8051V63.8051V39.8051V34.8051C66.8051 32.0437 64.5665 29.8051 61.8051 29.8051H56.8051H41.8051C39.0437 29.8051 36.8051 32.0437 36.8051 34.8051V39.8051C36.8051 42.5665 39.0437 44.8051 41.8051 44.8051H51.8051Z" fill="#09090B"/>
</svg>
